%TF.GenerationSoftware,Altium Limited,Altium Designer,26.2.0 (7)*%
G04 Layer_Color=2752767*
%FSLAX45Y45*%
%MOMM*%
%TF.SameCoordinates,5567E761-9546-4A85-A6DF-5BC1022D79F0*%
%TF.FilePolarity,Positive*%
%TF.FileFunction,Drawing*%
%TF.Part,Single*%
G01*
G75*
%TA.AperFunction,NonConductor*%
%ADD81C,0.12700*%
%ADD152C,0.16933*%
%ADD153C,0.10160*%
D81*
X3750000Y12699200D02*
X3699200Y12800800D01*
X3800800D01*
X3750000Y12699200D01*
Y12719520D02*
X3719520Y12780480D01*
X3780480D01*
X3750000Y12719520D01*
X2700000Y2199200D02*
X2725400Y2224600D01*
X2750800D01*
X2725400Y2250000D01*
X2750800Y2275400D01*
X2725400D01*
X2700000Y2300800D01*
X2674600Y2275400D01*
X2649200D01*
X2674600Y2250000D01*
X2649200Y2224600D01*
X2674600D01*
X2700000Y2199200D01*
Y2219520D02*
X2715240Y2234760D01*
X2730480D01*
X2715240Y2250000D01*
X2730480Y2265240D01*
X2715240D01*
X2700000Y2280480D01*
X2684760Y2265240D01*
X2669520D01*
X2684760Y2250000D01*
X2669520Y2234760D01*
X2684760D01*
X2700000Y2219520D01*
X4849200Y4149200D02*
X4874600Y4200000D01*
X4849200Y4250800D01*
X4900000Y4225400D01*
X4950800Y4250800D01*
X4925400Y4200000D01*
X4950800Y4149200D01*
X4900000Y4174600D01*
X4849200Y4149200D01*
X4869520Y4169520D02*
X4884760Y4200000D01*
X4869520Y4230480D01*
X4900000Y4215240D01*
X4930480Y4230480D01*
X4915240Y4200000D01*
X4930480Y4169520D01*
X4900000Y4184760D01*
X4869520Y4169520D01*
X13007339Y3317240D02*
Y3418840D01*
X13108940D01*
Y3317240D01*
X13007339D01*
X2550160Y530860D02*
X2499360Y632460D01*
X2600960D01*
X2550160Y530860D01*
Y403860D02*
X2499360Y505460D01*
X2600960D01*
X2550160Y403860D01*
X2677160D02*
X2626360Y505460D01*
X2727960D01*
X2677160Y403860D01*
X2804160Y530860D02*
X2753360Y632460D01*
X2854960D01*
X2804160Y530860D01*
Y403860D02*
X2753360Y505460D01*
X2854960D01*
X2804160Y403860D01*
X2931160Y530860D02*
X2880360Y632460D01*
X2981960D01*
X2931160Y530860D01*
X2677160D02*
X2626360Y632460D01*
X2727960D01*
X2677160Y530860D01*
X2931160Y403860D02*
X2880360Y505460D01*
X2981960D01*
X2931160Y403860D01*
X3058160D02*
X3007360Y505460D01*
X3108960D01*
X3058160Y403860D01*
Y530860D02*
X3007360Y632460D01*
X3108960D01*
X3058160Y530860D01*
X10507980Y170180D02*
X10533380Y195580D01*
X10558780D01*
X10533380Y220980D01*
X10558780Y246380D01*
X10533380D01*
X10507980Y271780D01*
X10482580Y246380D01*
X10457180D01*
X10482580Y220980D01*
X10457180Y195580D01*
X10482580D01*
X10507980Y170180D01*
X10253980D02*
X10279380Y195580D01*
X10304780D01*
X10279380Y220980D01*
X10304780Y246380D01*
X10279380D01*
X10253980Y271780D01*
X10228580Y246380D01*
X10203180D01*
X10228580Y220980D01*
X10203180Y195580D01*
X10228580D01*
X10253980Y170180D01*
X5323700Y12494260D02*
Y12595860D01*
X5425300D01*
Y12494260D01*
X5323700D01*
X5344020Y12514580D02*
Y12575540D01*
X5404980D01*
Y12514580D01*
X5344020D01*
X4988700Y12494260D02*
Y12595860D01*
X5090300D01*
Y12494260D01*
X4988700D01*
X5009020Y12514580D02*
Y12575540D01*
X5069980D01*
Y12514580D01*
X5009020D01*
X12435580Y12935699D02*
X12486380Y12986501D01*
X12537180Y12935699D01*
X12486380Y12884900D01*
X12435580Y12935699D01*
X11910580Y12661900D02*
X11935980D01*
X11961380Y12687300D01*
X11986780Y12661900D01*
X12012180D01*
Y12687300D01*
X11986780Y12712700D01*
X12012180Y12738100D01*
Y12763500D01*
X11986780D01*
X11961380Y12738100D01*
X11935980Y12763500D01*
X11910580D01*
Y12738100D01*
X11935980Y12712700D01*
X11910580Y12687300D01*
Y12661900D01*
X12260580D02*
X12285980D01*
X12311380Y12687300D01*
X12336780Y12661900D01*
X12362180D01*
Y12687300D01*
X12336780Y12712700D01*
X12362180Y12738100D01*
Y12763500D01*
X12336780D01*
X12311380Y12738100D01*
X12285980Y12763500D01*
X12260580D01*
Y12738100D01*
X12285980Y12712700D01*
X12260580Y12687300D01*
Y12661900D01*
X12610580D02*
X12635980D01*
X12661380Y12687300D01*
X12686780Y12661900D01*
X12712180D01*
Y12687300D01*
X12686780Y12712700D01*
X12712180Y12738100D01*
Y12763500D01*
X12686780D01*
X12661380Y12738100D01*
X12635980Y12763500D01*
X12610580D01*
Y12738100D01*
X12635980Y12712700D01*
X12610580Y12687300D01*
Y12661900D01*
X13609061Y9317240D02*
X13659860Y9368040D01*
X13710660Y9317240D01*
X13659860Y9266440D01*
X13609061Y9317240D01*
X13784061Y9489440D02*
X13809460D01*
X13834860Y9514840D01*
X13860260Y9489440D01*
X13885660D01*
Y9514840D01*
X13860260Y9540240D01*
X13885660Y9565640D01*
Y9591040D01*
X13860260D01*
X13834860Y9565640D01*
X13809460Y9591040D01*
X13784061D01*
Y9565640D01*
X13809460Y9540240D01*
X13784061Y9514840D01*
Y9489440D01*
X13434061D02*
X13459460D01*
X13484860Y9514840D01*
X13510260Y9489440D01*
X13535660D01*
Y9514840D01*
X13510260Y9540240D01*
X13535660Y9565640D01*
Y9591040D01*
X13510260D01*
X13484860Y9565640D01*
X13459460Y9591040D01*
X13434061D01*
Y9565640D01*
X13459460Y9540240D01*
X13434061Y9514840D01*
Y9489440D01*
X1255200Y11780200D02*
X1280600Y11831000D01*
X1255200Y11881800D01*
X1306000Y11856400D01*
X1356800Y11881800D01*
X1331400Y11831000D01*
X1356800Y11780200D01*
X1306000Y11805600D01*
X1255200Y11780200D01*
X1905600Y11939600D02*
Y11914200D01*
X1956400D01*
Y11939600D01*
X1981800D01*
Y11990400D01*
X1956400D01*
Y12015800D01*
X1905600D01*
Y11990400D01*
X1880200D01*
Y11939600D01*
X1905600D01*
X1655600D02*
Y11914200D01*
X1706400D01*
Y11939600D01*
X1731800D01*
Y11990400D01*
X1706400D01*
Y12015800D01*
X1655600D01*
Y11990400D01*
X1630200D01*
Y11939600D01*
X1655600D01*
X1405600D02*
Y11914200D01*
X1456400D01*
Y11939600D01*
X1481800D01*
Y11990400D01*
X1456400D01*
Y12015800D01*
X1405600D01*
Y11990400D01*
X1380200D01*
Y11939600D01*
X1405600D01*
X1155600D02*
Y11914200D01*
X1206400D01*
Y11939600D01*
X1231800D01*
Y11990400D01*
X1206400D01*
Y12015800D01*
X1155600D01*
Y11990400D01*
X1130200D01*
Y11939600D01*
X1155600D01*
X905600D02*
Y11914200D01*
X956400D01*
Y11939600D01*
X981800D01*
Y11990400D01*
X956400D01*
Y12015800D01*
X905600D01*
Y11990400D01*
X880200D01*
Y11939600D01*
X905600D01*
X655600D02*
Y11914200D01*
X706400D01*
Y11939600D01*
X731800D01*
Y11990400D01*
X706400D01*
Y12015800D01*
X655600D01*
Y11990400D01*
X630200D01*
Y11939600D01*
X655600D01*
X3256200Y3257200D02*
X3281600Y3308000D01*
X3256200Y3358800D01*
X3307000Y3333400D01*
X3357800Y3358800D01*
X3332400Y3308000D01*
X3357800Y3257200D01*
X3307000Y3282600D01*
X3256200Y3257200D01*
X2656600Y3148600D02*
Y3123200D01*
X2707400D01*
Y3148600D01*
X2732800D01*
Y3199400D01*
X2707400D01*
Y3224800D01*
X2656600D01*
Y3199400D01*
X2631200D01*
Y3148600D01*
X2656600D01*
X2906600D02*
Y3123200D01*
X2957400D01*
Y3148600D01*
X2982800D01*
Y3199400D01*
X2957400D01*
Y3224800D01*
X2906600D01*
Y3199400D01*
X2881200D01*
Y3148600D01*
X2906600D01*
X3156600D02*
Y3123200D01*
X3207400D01*
Y3148600D01*
X3232800D01*
Y3199400D01*
X3207400D01*
Y3224800D01*
X3156600D01*
Y3199400D01*
X3131200D01*
Y3148600D01*
X3156600D01*
X3406600D02*
Y3123200D01*
X3457400D01*
Y3148600D01*
X3482800D01*
Y3199400D01*
X3457400D01*
Y3224800D01*
X3406600D01*
Y3199400D01*
X3381200D01*
Y3148600D01*
X3406600D01*
X3656600D02*
Y3123200D01*
X3707400D01*
Y3148600D01*
X3732800D01*
Y3199400D01*
X3707400D01*
Y3224800D01*
X3656600D01*
Y3199400D01*
X3631200D01*
Y3148600D01*
X3656600D01*
X2649600Y11939600D02*
Y11914200D01*
X2700400D01*
Y11939600D01*
X2725800D01*
Y11990400D01*
X2700400D01*
Y12015800D01*
X2649600D01*
Y11990400D01*
X2624200D01*
Y11939600D01*
X2649600D01*
X2899600D02*
Y11914200D01*
X2950400D01*
Y11939600D01*
X2975800D01*
Y11990400D01*
X2950400D01*
Y12015800D01*
X2899600D01*
Y11990400D01*
X2874200D01*
Y11939600D01*
X2899600D01*
X3149600D02*
Y11914200D01*
X3200400D01*
Y11939600D01*
X3225800D01*
Y11990400D01*
X3200400D01*
Y12015800D01*
X3149600D01*
Y11990400D01*
X3124200D01*
Y11939600D01*
X3149600D01*
X3399600D02*
Y11914200D01*
X3450400D01*
Y11939600D01*
X3475800D01*
Y11990400D01*
X3450400D01*
Y12015800D01*
X3399600D01*
Y11990400D01*
X3374200D01*
Y11939600D01*
X3399600D01*
X2999200Y11780200D02*
X3024600Y11831000D01*
X2999200Y11881800D01*
X3050000Y11856400D01*
X3100800Y11881800D01*
X3075400Y11831000D01*
X3100800Y11780200D01*
X3050000Y11805600D01*
X2999200Y11780200D01*
X10449560Y12641580D02*
X10474960Y12692380D01*
X10449560Y12743180D01*
X10500360Y12717780D01*
X10551160Y12743180D01*
X10525760Y12692380D01*
X10551160Y12641580D01*
X10500360Y12666980D01*
X10449560Y12641580D01*
X10849960Y12800980D02*
Y12775580D01*
X10900760D01*
Y12800980D01*
X10926160D01*
Y12851781D01*
X10900760D01*
Y12877180D01*
X10849960D01*
Y12851781D01*
X10824560D01*
Y12800980D01*
X10849960D01*
X10599960D02*
Y12775580D01*
X10650760D01*
Y12800980D01*
X10676160D01*
Y12851781D01*
X10650760D01*
Y12877180D01*
X10599960D01*
Y12851781D01*
X10574560D01*
Y12800980D01*
X10599960D01*
X10349960D02*
Y12775580D01*
X10400760D01*
Y12800980D01*
X10426160D01*
Y12851781D01*
X10400760D01*
Y12877180D01*
X10349960D01*
Y12851781D01*
X10324560D01*
Y12800980D01*
X10349960D01*
X9291860D02*
Y12775580D01*
X9342660D01*
Y12800980D01*
X9368060D01*
Y12851781D01*
X9342660D01*
Y12877180D01*
X9291860D01*
Y12851781D01*
X9266460D01*
Y12800980D01*
X9291860D01*
X9141460Y12641580D02*
X9166860Y12692380D01*
X9141460Y12743180D01*
X9192260Y12717780D01*
X9243060Y12743180D01*
X9217660Y12692380D01*
X9243060Y12641580D01*
X9192260Y12666980D01*
X9141460Y12641580D01*
X9041860Y12800980D02*
Y12775580D01*
X9092660D01*
Y12800980D01*
X9118060D01*
Y12851781D01*
X9092660D01*
Y12877180D01*
X9041860D01*
Y12851781D01*
X9016460D01*
Y12800980D01*
X9041860D01*
X1309200Y3069000D02*
X1360000Y3119800D01*
X1410800Y3069000D01*
X1360000Y3018200D01*
X1309200Y3069000D01*
X1484200Y3241200D02*
X1509600D01*
X1535000Y3266600D01*
X1560400Y3241200D01*
X1585800D01*
Y3266600D01*
X1560400Y3292000D01*
X1585800Y3317400D01*
Y3342800D01*
X1560400D01*
X1535000Y3317400D01*
X1509600Y3342800D01*
X1484200D01*
Y3317400D01*
X1509600Y3292000D01*
X1484200Y3266600D01*
Y3241200D01*
X1134200D02*
X1159600D01*
X1185000Y3266600D01*
X1210400Y3241200D01*
X1235800D01*
Y3266600D01*
X1210400Y3292000D01*
X1235800Y3317400D01*
Y3342800D01*
X1210400D01*
X1185000Y3317400D01*
X1159600Y3342800D01*
X1134200D01*
Y3317400D01*
X1159600Y3292000D01*
X1134200Y3266600D01*
Y3241200D01*
X8399780Y9489440D02*
X8425180D01*
X8450580Y9514840D01*
X8475980Y9489440D01*
X8501380D01*
Y9514840D01*
X8475980Y9540240D01*
X8501380Y9565640D01*
Y9591040D01*
X8475980D01*
X8450580Y9565640D01*
X8425180Y9591040D01*
X8399780D01*
Y9565640D01*
X8425180Y9540240D01*
X8399780Y9514840D01*
Y9489440D01*
X8749780D02*
X8775180D01*
X8800580Y9514840D01*
X8825980Y9489440D01*
X8851380D01*
Y9514840D01*
X8825980Y9540240D01*
X8851380Y9565640D01*
Y9591040D01*
X8825980D01*
X8800580Y9565640D01*
X8775180Y9591040D01*
X8749780D01*
Y9565640D01*
X8775180Y9540240D01*
X8749780Y9514840D01*
Y9489440D01*
X8574780Y9317240D02*
X8625580Y9368040D01*
X8676380Y9317240D01*
X8625580Y9266440D01*
X8574780Y9317240D01*
X9581636D02*
X9632436Y9368040D01*
X9683236Y9317240D01*
X9632436Y9266440D01*
X9581636Y9317240D01*
X9756636Y9489440D02*
X9782036D01*
X9807436Y9514840D01*
X9832836Y9489440D01*
X9858236D01*
Y9514840D01*
X9832836Y9540240D01*
X9858236Y9565640D01*
Y9591040D01*
X9832836D01*
X9807436Y9565640D01*
X9782036Y9591040D01*
X9756636D01*
Y9565640D01*
X9782036Y9540240D01*
X9756636Y9514840D01*
Y9489440D01*
X9406636D02*
X9432036D01*
X9457436Y9514840D01*
X9482836Y9489440D01*
X9508236D01*
Y9514840D01*
X9482836Y9540240D01*
X9508236Y9565640D01*
Y9591040D01*
X9482836D01*
X9457436Y9565640D01*
X9432036Y9591040D01*
X9406636D01*
Y9565640D01*
X9432036Y9540240D01*
X9406636Y9514840D01*
Y9489440D01*
X10413492D02*
X10438892D01*
X10464292Y9514840D01*
X10489692Y9489440D01*
X10515092D01*
Y9514840D01*
X10489692Y9540240D01*
X10515092Y9565640D01*
Y9591040D01*
X10489692D01*
X10464292Y9565640D01*
X10438892Y9591040D01*
X10413492D01*
Y9565640D01*
X10438892Y9540240D01*
X10413492Y9514840D01*
Y9489440D01*
X10763492D02*
X10788892D01*
X10814292Y9514840D01*
X10839692Y9489440D01*
X10865092D01*
Y9514840D01*
X10839692Y9540240D01*
X10865092Y9565640D01*
Y9591040D01*
X10839692D01*
X10814292Y9565640D01*
X10788892Y9591040D01*
X10763492D01*
Y9565640D01*
X10788892Y9540240D01*
X10763492Y9514840D01*
Y9489440D01*
X10588492Y9317240D02*
X10639292Y9368040D01*
X10690092Y9317240D01*
X10639292Y9266440D01*
X10588492Y9317240D01*
X11595348D02*
X11646148Y9368040D01*
X11696948Y9317240D01*
X11646148Y9266440D01*
X11595348Y9317240D01*
X11770348Y9489440D02*
X11795748D01*
X11821148Y9514840D01*
X11846548Y9489440D01*
X11871948D01*
Y9514840D01*
X11846548Y9540240D01*
X11871948Y9565640D01*
Y9591040D01*
X11846548D01*
X11821148Y9565640D01*
X11795748Y9591040D01*
X11770348D01*
Y9565640D01*
X11795748Y9540240D01*
X11770348Y9514840D01*
Y9489440D01*
X11420348D02*
X11445748D01*
X11471148Y9514840D01*
X11496548Y9489440D01*
X11521948D01*
Y9514840D01*
X11496548Y9540240D01*
X11521948Y9565640D01*
Y9591040D01*
X11496548D01*
X11471148Y9565640D01*
X11445748Y9591040D01*
X11420348D01*
Y9565640D01*
X11445748Y9540240D01*
X11420348Y9514840D01*
Y9489440D01*
X12427204D02*
X12452604D01*
X12478004Y9514840D01*
X12503404Y9489440D01*
X12528804D01*
Y9514840D01*
X12503404Y9540240D01*
X12528804Y9565640D01*
Y9591040D01*
X12503404D01*
X12478004Y9565640D01*
X12452604Y9591040D01*
X12427204D01*
Y9565640D01*
X12452604Y9540240D01*
X12427204Y9514840D01*
Y9489440D01*
X12777204D02*
X12802605D01*
X12828004Y9514840D01*
X12853404Y9489440D01*
X12878804D01*
Y9514840D01*
X12853404Y9540240D01*
X12878804Y9565640D01*
Y9591040D01*
X12853404D01*
X12828004Y9565640D01*
X12802605Y9591040D01*
X12777204D01*
Y9565640D01*
X12802605Y9540240D01*
X12777204Y9514840D01*
Y9489440D01*
X12602204Y9317240D02*
X12653004Y9368040D01*
X12703804Y9317240D01*
X12653004Y9266440D01*
X12602204Y9317240D01*
X6906260Y1076960D02*
X6931660Y1102360D01*
X6957060D01*
X6931660Y1127760D01*
X6957060Y1153160D01*
X6931660D01*
X6906260Y1178560D01*
X6880860Y1153160D01*
X6855460D01*
X6880860Y1127760D01*
X6855460Y1102360D01*
X6880860D01*
X6906260Y1076960D01*
X6652260D02*
X6677660Y1102360D01*
X6703060D01*
X6677660Y1127760D01*
X6703060Y1153160D01*
X6677660D01*
X6652260Y1178560D01*
X6626860Y1153160D01*
X6601460D01*
X6626860Y1127760D01*
X6601460Y1102360D01*
X6626860D01*
X6652260Y1076960D01*
X5527040Y4434840D02*
Y4536440D01*
X5628640D01*
Y4434840D01*
X5527040D01*
X5938520D02*
Y4536440D01*
X6040120D01*
Y4434840D01*
X5938520D01*
X7223760Y7950200D02*
Y8051800D01*
X7325360D01*
Y7950200D01*
X7223760D01*
X5494020Y7002780D02*
Y7104380D01*
X5595620D01*
Y7002780D01*
X5494020D01*
X6461760Y5808980D02*
Y5910580D01*
X6563360D01*
Y5808980D01*
X6461760D01*
X7625080Y3888740D02*
Y3990340D01*
X7726680D01*
Y3888740D01*
X7625080D01*
X4993640Y8755380D02*
Y8856980D01*
X5095240D01*
Y8755380D01*
X4993640D01*
X1249680Y388620D02*
Y490220D01*
X1351280D01*
Y388620D01*
X1249680D01*
X1790700Y375920D02*
Y477520D01*
X1892300D01*
Y375920D01*
X1790700D01*
X9494520Y3906520D02*
Y4008120D01*
X9596120D01*
Y3906520D01*
X9494520D01*
X13009880Y2966720D02*
Y3068320D01*
X13111481D01*
Y2966720D01*
X13009880D01*
D152*
X650800Y12900000D02*
G03*
X650800Y12900000I-50800J0D01*
G01*
X13750800D02*
G03*
X13750800Y12900000I-50800J0D01*
G01*
X8600800Y6750000D02*
G03*
X8600800Y6750000I-50800J0D01*
G01*
X13750800Y600000D02*
G03*
X13750800Y600000I-50800J0D01*
G01*
X650800D02*
G03*
X650800Y600000I-50800J0D01*
G01*
X4800600Y2537460D02*
G03*
X4800600Y2537460I-50800J0D01*
G01*
X13571220Y10774680D02*
G03*
X13571220Y10774680I-50800J0D01*
G01*
X12801601Y10690860D02*
G03*
X12801601Y10690860I-50800J0D01*
G01*
X12931140Y11206480D02*
G03*
X12931140Y11206480I-50800J0D01*
G01*
X12788900Y10840720D02*
G03*
X12788900Y10840720I-50800J0D01*
G01*
X12763500Y10777220D02*
G03*
X12763500Y10777220I-50800J0D01*
G01*
X11048090Y11274150D02*
G03*
X11048090Y11274150I-50800J0D01*
G01*
X10962640Y10815320D02*
G03*
X10962640Y10815320I-50800J0D01*
G01*
Y10741660D02*
G03*
X10962640Y10741660I-50800J0D01*
G01*
X13053059Y4155440D02*
G03*
X13053059Y4155440I-50800J0D01*
G01*
X13398500Y3873500D02*
G03*
X13398500Y3873500I-50800J0D01*
G01*
X12781280Y10541000D02*
G03*
X12781280Y10541000I-50800J0D01*
G01*
X12796520Y2524760D02*
G03*
X12796520Y2524760I-50800J0D01*
G01*
X13653729Y10951170D02*
G03*
X13653729Y10951170I-50800J0D01*
G01*
X13395959Y3975100D02*
G03*
X13395959Y3975100I-50800J0D01*
G01*
X13050520Y4264660D02*
G03*
X13050520Y4264660I-50800J0D01*
G01*
X12791440Y2232660D02*
G03*
X12791440Y2232660I-50800J0D01*
G01*
X13737711Y10767060D02*
G03*
X13737711Y10767060I-50800J0D01*
G01*
X11917110Y10872710D02*
G03*
X11917110Y10872710I-50800J0D01*
G01*
X12161520Y3423920D02*
G03*
X12161520Y3423920I-50800J0D01*
G01*
X12336780Y3202940D02*
G03*
X12336780Y3202940I-50800J0D01*
G01*
X12285980Y2413000D02*
G03*
X12285980Y2413000I-50800J0D01*
G01*
X10822940Y3853180D02*
G03*
X10822940Y3853180I-50800J0D01*
G01*
X11886144Y3820494D02*
G03*
X11886144Y3820494I-50800J0D01*
G01*
X13225780Y2219960D02*
G03*
X13225780Y2219960I-50800J0D01*
G01*
X13182600Y1607820D02*
G03*
X13182600Y1607820I-50800J0D01*
G01*
X12787750Y837529D02*
G03*
X12787750Y837529I-50800J0D01*
G01*
X12692140Y741920D02*
G03*
X12692140Y741920I-50800J0D01*
G01*
X12024360Y1038860D02*
G03*
X12024360Y1038860I-50800J0D01*
G01*
X11290300Y500380D02*
G03*
X11290300Y500380I-50800J0D01*
G01*
X10213340Y789940D02*
G03*
X10213340Y789940I-50800J0D01*
G01*
X10665460Y749300D02*
G03*
X10665460Y749300I-50800J0D01*
G01*
X10007600Y3375660D02*
G03*
X10007600Y3375660I-50800J0D01*
G01*
X9367520Y2877820D02*
G03*
X9367520Y2877820I-50800J0D01*
G01*
X5166360Y12984480D02*
G03*
X5166360Y12984480I-50800J0D01*
G01*
X9267120Y11116240D02*
G03*
X9267120Y11116240I-50800J0D01*
G01*
X1691640Y10142220D02*
G03*
X1691640Y10142220I-50800J0D01*
G01*
X5994400Y8952470D02*
G03*
X5994400Y8952470I-50800J0D01*
G01*
X9349740Y2131060D02*
G03*
X9349740Y2131060I-50800J0D01*
G01*
X9357360Y1821180D02*
G03*
X9357360Y1821180I-50800J0D01*
G01*
X9354820Y1529080D02*
G03*
X9354820Y1529080I-50800J0D01*
G01*
X6497320Y2006600D02*
G03*
X6497320Y2006600I-50800J0D01*
G01*
X8017040Y1985480D02*
G03*
X8017040Y1985480I-50800J0D01*
G01*
X1203960Y1765300D02*
G03*
X1203960Y1765300I-50800J0D01*
G01*
X7805420Y830580D02*
G03*
X7805420Y830580I-50800J0D01*
G01*
X8115300Y228600D02*
G03*
X8115300Y228600I-50800J0D01*
G01*
X13053059Y4048760D02*
G03*
X13053059Y4048760I-50800J0D01*
G01*
X13479781Y3741420D02*
G03*
X13479781Y3741420I-50800J0D01*
G01*
X12793980Y2379980D02*
G03*
X12793980Y2379980I-50800J0D01*
G01*
X12769890Y10953710D02*
G03*
X12769890Y10953710I-50800J0D01*
G01*
X13644881Y10538460D02*
G03*
X13644881Y10538460I-50800J0D01*
G01*
X12791440Y2674620D02*
G03*
X12791440Y2674620I-50800J0D01*
G01*
X9118600Y2032000D02*
G03*
X9118600Y2032000I-50800J0D01*
G01*
X6502400Y5359725D02*
G03*
X6502400Y5359725I-50800J0D01*
G01*
X7213600Y6004560D02*
G03*
X7213600Y6004560I-50800J0D01*
G01*
X8450580Y3556000D02*
G03*
X8450580Y3556000I-50800J0D01*
G01*
X7569200Y5859780D02*
G03*
X7569200Y5859780I-50800J0D01*
G01*
X8285480Y4229100D02*
G03*
X8285480Y4229100I-50800J0D01*
G01*
X5655600Y9284400D02*
G03*
X5655600Y9284400I-50800J0D01*
G01*
X6527800Y7744460D02*
G03*
X6527800Y7744460I-50800J0D01*
G01*
X6217920Y8079740D02*
G03*
X6217920Y8079740I-50800J0D01*
G01*
X7998826Y7483206D02*
G03*
X7998826Y7483206I-50800J0D01*
G01*
X8204200Y9169400D02*
G03*
X8204200Y9169400I-50800J0D01*
G01*
X8285480Y9227820D02*
G03*
X8285480Y9227820I-50800J0D01*
G01*
Y8997527D02*
G03*
X8285480Y8997527I-50800J0D01*
G01*
X8204200Y8938260D02*
G03*
X8204200Y8938260I-50800J0D01*
G01*
X10627360Y10507980D02*
G03*
X10627360Y10507980I-50800J0D01*
G01*
X10144760Y3713480D02*
G03*
X10144760Y3713480I-50800J0D01*
G01*
X11071860Y3987800D02*
G03*
X11071860Y3987800I-50800J0D01*
G01*
X10418960Y3992760D02*
G03*
X10418960Y3992760I-50800J0D01*
G01*
X5887720Y2423160D02*
G03*
X5887720Y2423160I-50800J0D01*
G01*
X8285480Y8882380D02*
G03*
X8285480Y8882380I-50800J0D01*
G01*
X10079294Y3454834D02*
G03*
X10079294Y3454834I-50800J0D01*
G01*
X8008620Y4940300D02*
G03*
X8008620Y4940300I-50800J0D01*
G01*
X7706360Y1965960D02*
G03*
X7706360Y1965960I-50800J0D01*
G01*
X5168900Y2626360D02*
G03*
X5168900Y2626360I-50800J0D01*
G01*
X5077460Y2720340D02*
G03*
X5077460Y2720340I-50800J0D01*
G01*
X4747260Y3205480D02*
G03*
X4747260Y3205480I-50800J0D01*
G01*
X7706360Y2054860D02*
G03*
X7706360Y2054860I-50800J0D01*
G01*
X8841740Y10678160D02*
G03*
X8841740Y10678160I-50800J0D01*
G01*
X8285480Y9112673D02*
G03*
X8285480Y9112673I-50800J0D01*
G01*
X7066280Y2306320D02*
G03*
X7066280Y2306320I-50800J0D01*
G01*
X7795260Y2054860D02*
G03*
X7795260Y2054860I-50800J0D01*
G01*
X10209650Y638930D02*
G03*
X10209650Y638930I-50800J0D01*
G01*
X9145390Y2966720D02*
G03*
X9145390Y2966720I-50800J0D01*
G01*
X9768830Y1879610D02*
G03*
X9768830Y1879610I-50800J0D01*
G01*
X13434061Y11508740D02*
G03*
X13434061Y11508740I-50800J0D01*
G01*
X13180670Y11020260D02*
G03*
X13180670Y11020260I-50800J0D01*
G01*
X13086920D02*
G03*
X13086920Y11020260I-50800J0D01*
G01*
X13274420D02*
G03*
X13274420Y11020260I-50800J0D01*
G01*
X13962379Y10995660D02*
G03*
X13962379Y10995660I-50800J0D01*
G01*
X13180569Y10926840D02*
G03*
X13180569Y10926840I-50800J0D01*
G01*
X13273280D02*
G03*
X13273280Y10926840I-50800J0D01*
G01*
X13087860Y10926839D02*
G03*
X13087860Y10926839I-50800J0D01*
G01*
X12956540Y11503660D02*
G03*
X12956540Y11503660I-50800J0D01*
G01*
X12131040Y11112500D02*
G03*
X12131040Y11112500I-50800J0D01*
G01*
X11372950Y11010340D02*
G03*
X11372950Y11010340I-50800J0D01*
G01*
X11466700D02*
G03*
X11466700Y11010340I-50800J0D01*
G01*
X11372850Y10916920D02*
G03*
X11372850Y10916920I-50800J0D01*
G01*
X13273280Y10835400D02*
G03*
X13273280Y10835400I-50800J0D01*
G01*
Y10743960D02*
G03*
X13273280Y10743960I-50800J0D01*
G01*
X13180569Y10835400D02*
G03*
X13180569Y10835400I-50800J0D01*
G01*
X13087860Y10836246D02*
G03*
X13087860Y10836246I-50800J0D01*
G01*
Y10745653D02*
G03*
X13087860Y10745653I-50800J0D01*
G01*
X13180569Y10743960D02*
G03*
X13180569Y10743960I-50800J0D01*
G01*
Y10652520D02*
G03*
X13180569Y10652520I-50800J0D01*
G01*
X13087860Y10655060D02*
G03*
X13087860Y10655060I-50800J0D01*
G01*
X13964920Y10538460D02*
G03*
X13964920Y10538460I-50800J0D01*
G01*
X13273280Y10652520D02*
G03*
X13273280Y10652520I-50800J0D01*
G01*
X12453620Y10845800D02*
G03*
X12453620Y10845800I-50800J0D01*
G01*
X11465560Y10916920D02*
G03*
X11465560Y10916920I-50800J0D01*
G01*
Y10825480D02*
G03*
X11465560Y10825480I-50800J0D01*
G01*
X11372850D02*
G03*
X11372850Y10825480I-50800J0D01*
G01*
X11465560Y10734040D02*
G03*
X11465560Y10734040I-50800J0D01*
G01*
X11372850D02*
G03*
X11372850Y10734040I-50800J0D01*
G01*
X12138660Y10637520D02*
G03*
X12138660Y10637520I-50800J0D01*
G01*
X12461240Y10541000D02*
G03*
X12461240Y10541000I-50800J0D01*
G01*
X11372850Y10642600D02*
G03*
X11372850Y10642600I-50800J0D01*
G01*
X11465560D02*
G03*
X11465560Y10642600I-50800J0D01*
G01*
X11056620Y11424920D02*
G03*
X11056620Y11424920I-50800J0D01*
G01*
X9964420Y12194540D02*
G03*
X9964420Y12194540I-50800J0D01*
G01*
X9818793Y11394440D02*
G03*
X9818793Y11394440I-50800J0D01*
G01*
X10454640Y11295380D02*
G03*
X10454640Y11295380I-50800J0D01*
G01*
X9906000Y11309773D02*
G03*
X9906000Y11309773I-50800J0D01*
G01*
Y11225107D02*
G03*
X9906000Y11225107I-50800J0D01*
G01*
Y11140440D02*
G03*
X9906000Y11140440I-50800J0D01*
G01*
Y11394440D02*
G03*
X9906000Y11394440I-50800J0D01*
G01*
X9818793Y11309773D02*
G03*
X9818793Y11309773I-50800J0D01*
G01*
X9731587Y11311466D02*
G03*
X9731587Y11311466I-50800J0D01*
G01*
Y11228493D02*
G03*
X9731587Y11228493I-50800J0D01*
G01*
X9818793Y11225107D02*
G03*
X9818793Y11225107I-50800J0D01*
G01*
Y11140440D02*
G03*
X9818793Y11140440I-50800J0D01*
G01*
X9731587Y11145520D02*
G03*
X9731587Y11145520I-50800J0D01*
G01*
X9644380Y11394440D02*
G03*
X9644380Y11394440I-50800J0D01*
G01*
X9731587Y11394439D02*
G03*
X9731587Y11394439I-50800J0D01*
G01*
X8928100Y11564620D02*
G03*
X8928100Y11564620I-50800J0D01*
G01*
X9644380Y11309773D02*
G03*
X9644380Y11309773I-50800J0D01*
G01*
Y11225107D02*
G03*
X9644380Y11225107I-50800J0D01*
G01*
Y11140440D02*
G03*
X9644380Y11140440I-50800J0D01*
G01*
X8928100Y11117580D02*
G03*
X8928100Y11117580I-50800J0D01*
G01*
X11279200Y11010340D02*
G03*
X11279200Y11010340I-50800J0D01*
G01*
X11280140Y10916919D02*
G03*
X11280140Y10916919I-50800J0D01*
G01*
X10627360Y10972800D02*
G03*
X10627360Y10972800I-50800J0D01*
G01*
X11280140Y10735733D02*
G03*
X11280140Y10735733I-50800J0D01*
G01*
Y10645140D02*
G03*
X11280140Y10645140I-50800J0D01*
G01*
Y10826326D02*
G03*
X11280140Y10826326I-50800J0D01*
G01*
X7825740Y8209280D02*
G03*
X7825740Y8209280I-50800J0D01*
G01*
X13537160Y2665960D02*
G03*
X13537160Y2665960I-50800J0D01*
G01*
X11910060Y4003040D02*
G03*
X11910060Y4003040I-50800J0D01*
G01*
X12029440Y3576320D02*
G03*
X12029440Y3576320I-50800J0D01*
G01*
X12024360Y3083560D02*
G03*
X12024360Y3083560I-50800J0D01*
G01*
X12288520Y1818640D02*
G03*
X12288520Y1818640I-50800J0D01*
G01*
X12042140Y2377440D02*
G03*
X12042140Y2377440I-50800J0D01*
G01*
X10723880Y3449320D02*
G03*
X10723880Y3449320I-50800J0D01*
G01*
X12677140Y1348740D02*
G03*
X12677140Y1348740I-50800J0D01*
G01*
X11930380Y1178560D02*
G03*
X11930380Y1178560I-50800J0D01*
G01*
X13007339Y1008380D02*
G03*
X13007339Y1008380I-50800J0D01*
G01*
X12288520Y284480D02*
G03*
X12288520Y284480I-50800J0D01*
G01*
X11122660Y1160780D02*
G03*
X11122660Y1160780I-50800J0D01*
G01*
X10723880Y1155700D02*
G03*
X10723880Y1155700I-50800J0D01*
G01*
X11800840Y510540D02*
G03*
X11800840Y510540I-50800J0D01*
G01*
X11437620Y500380D02*
G03*
X11437620Y500380I-50800J0D01*
G01*
X10904220Y530860D02*
G03*
X10904220Y530860I-50800J0D01*
G01*
X9771380Y2529840D02*
G03*
X9771380Y2529840I-50800J0D01*
G01*
X9766300Y2829560D02*
G03*
X9766300Y2829560I-50800J0D01*
G01*
X9761220Y2230120D02*
G03*
X9761220Y2230120I-50800J0D01*
G01*
X7823200Y2847340D02*
G03*
X7823200Y2847340I-50800J0D01*
G01*
X10022840Y1153160D02*
G03*
X10022840Y1153160I-50800J0D01*
G01*
X8354060Y2100580D02*
G03*
X8354060Y2100580I-50800J0D01*
G01*
X7795260Y1965960D02*
G03*
X7795260Y1965960I-50800J0D01*
G01*
X8161020Y1379220D02*
G03*
X8161020Y1379220I-50800J0D01*
G01*
X8107680Y523240D02*
G03*
X8107680Y523240I-50800J0D01*
G01*
X7864856Y1377696D02*
G03*
X7864856Y1377696I-50800J0D01*
G01*
X6967220Y12951460D02*
G03*
X6967220Y12951460I-50800J0D01*
G01*
X6845300Y12832080D02*
G03*
X6845300Y12832080I-50800J0D01*
G01*
Y12951460D02*
G03*
X6845300Y12951460I-50800J0D01*
G01*
X6967220Y12832080D02*
G03*
X6967220Y12832080I-50800J0D01*
G01*
X6723380Y12951460D02*
G03*
X6723380Y12951460I-50800J0D01*
G01*
Y12832080D02*
G03*
X6723380Y12832080I-50800J0D01*
G01*
X6601460Y12951460D02*
G03*
X6601460Y12951460I-50800J0D01*
G01*
Y12832080D02*
G03*
X6601460Y12832080I-50800J0D01*
G01*
X5435880Y9286240D02*
G03*
X5435880Y9286240I-50800J0D01*
G01*
X5354320Y12984480D02*
G03*
X5354320Y12984480I-50800J0D01*
G01*
X6179820Y8387080D02*
G03*
X6179820Y8387080I-50800J0D01*
G01*
X7462520Y7396480D02*
G03*
X7462520Y7396480I-50800J0D01*
G01*
Y6893560D02*
G03*
X7462520Y6893560I-50800J0D01*
G01*
X7457440Y6718300D02*
G03*
X7457440Y6718300I-50800J0D01*
G01*
X7459980Y6553200D02*
G03*
X7459980Y6553200I-50800J0D01*
G01*
X7467600Y6220460D02*
G03*
X7467600Y6220460I-50800J0D01*
G01*
X7096760Y7007860D02*
G03*
X7096760Y7007860I-50800J0D01*
G01*
X6794500Y7005320D02*
G03*
X6794500Y7005320I-50800J0D01*
G01*
X5252720Y7208520D02*
G03*
X5252720Y7208520I-50800J0D01*
G01*
X7114360Y6279060D02*
G03*
X7114360Y6279060I-50800J0D01*
G01*
X6789420Y6278880D02*
G03*
X6789420Y6278880I-50800J0D01*
G01*
X5858276Y5619236D02*
G03*
X5858276Y5619236I-50800J0D01*
G01*
X4366260Y11158220D02*
G03*
X4366260Y11158220I-50800J0D01*
G01*
X4093210Y10474960D02*
G03*
X4093210Y10474960I-50800J0D01*
G01*
X4198620D02*
G03*
X4198620Y10474960I-50800J0D01*
G01*
X3873500Y11206480D02*
G03*
X3873500Y11206480I-50800J0D01*
G01*
X3882390Y10474960D02*
G03*
X3882390Y10474960I-50800J0D01*
G01*
X3987800D02*
G03*
X3987800Y10474960I-50800J0D01*
G01*
X3776980D02*
G03*
X3776980Y10474960I-50800J0D01*
G01*
X4198620Y10365740D02*
G03*
X4198620Y10365740I-50800J0D01*
G01*
X4093210Y10256520D02*
G03*
X4093210Y10256520I-50800J0D01*
G01*
X4198620D02*
G03*
X4198620Y10256520I-50800J0D01*
G01*
X4093210Y10365740D02*
G03*
X4093210Y10365740I-50800J0D01*
G01*
X3987800Y10363200D02*
G03*
X3987800Y10363200I-50800J0D01*
G01*
X3776980Y10365740D02*
G03*
X3776980Y10365740I-50800J0D01*
G01*
X3882390D02*
G03*
X3882390Y10365740I-50800J0D01*
G01*
Y10256520D02*
G03*
X3882390Y10256520I-50800J0D01*
G01*
X3987800D02*
G03*
X3987800Y10256520I-50800J0D01*
G01*
X3776980D02*
G03*
X3776980Y10256520I-50800J0D01*
G01*
X3027680Y11399520D02*
G03*
X3027680Y11399520I-50800J0D01*
G01*
X525780Y10675620D02*
G03*
X525780Y10675620I-50800J0D01*
G01*
X2430780Y10584180D02*
G03*
X2430780Y10584180I-50800J0D01*
G01*
X1691640Y10447020D02*
G03*
X1691640Y10447020I-50800J0D01*
G01*
X4770120Y7526020D02*
G03*
X4770120Y7526020I-50800J0D01*
G01*
X4772660Y7383780D02*
G03*
X4772660Y7383780I-50800J0D01*
G01*
X5072380Y6619240D02*
G03*
X5072380Y6619240I-50800J0D01*
G01*
X1305560Y10172700D02*
G03*
X1305560Y10172700I-50800J0D01*
G01*
X4759960Y6621780D02*
G03*
X4759960Y6621780I-50800J0D01*
G01*
X4518660Y6125170D02*
G03*
X4518660Y6125170I-50800J0D01*
G01*
X4447540Y6664960D02*
G03*
X4447540Y6664960I-50800J0D01*
G01*
X7058660Y5346700D02*
G03*
X7058660Y5346700I-50800J0D01*
G01*
X7056120Y5204460D02*
G03*
X7056120Y5204460I-50800J0D01*
G01*
X7569200Y5092700D02*
G03*
X7569200Y5092700I-50800J0D01*
G01*
X7378700Y2847340D02*
G03*
X7378700Y2847340I-50800J0D01*
G01*
X6903720Y4145280D02*
G03*
X6903720Y4145280I-50800J0D01*
G01*
X5928360Y5481320D02*
G03*
X5928360Y5481320I-50800J0D01*
G01*
X6425998Y5285258D02*
G03*
X6425998Y5285258I-50800J0D01*
G01*
X5925820Y5328920D02*
G03*
X5925820Y5328920I-50800J0D01*
G01*
Y5181600D02*
G03*
X5925820Y5181600I-50800J0D01*
G01*
X6525260Y4589780D02*
G03*
X6525260Y4589780I-50800J0D01*
G01*
X6412350Y4270890D02*
G03*
X6412350Y4270890I-50800J0D01*
G01*
X6151880Y3970020D02*
G03*
X6151880Y3970020I-50800J0D01*
G01*
X5928360Y5031740D02*
G03*
X5928360Y5031740I-50800J0D01*
G01*
X6337300Y2771140D02*
G03*
X6337300Y2771140I-50800J0D01*
G01*
X6037780Y2770940D02*
G03*
X6037780Y2770940I-50800J0D01*
G01*
X7071360Y2014220D02*
G03*
X7071360Y2014220I-50800J0D01*
G01*
X6441440Y1961500D02*
G03*
X6441440Y1961500I-50800J0D01*
G01*
X7498080Y830580D02*
G03*
X7498080Y830580I-50800J0D01*
G01*
X7073900Y1714500D02*
G03*
X7073900Y1714500I-50800J0D01*
G01*
X7071360Y1419860D02*
G03*
X7071360Y1419860I-50800J0D01*
G01*
X6974840Y256540D02*
G03*
X6974840Y256540I-50800J0D01*
G01*
X6250940Y2143760D02*
G03*
X6250940Y2143760I-50800J0D01*
G01*
X6154420Y2146300D02*
G03*
X6154420Y2146300I-50800J0D01*
G01*
X6250940Y2039620D02*
G03*
X6250940Y2039620I-50800J0D01*
G01*
X6154420D02*
G03*
X6154420Y2039620I-50800J0D01*
G01*
X6103620Y1435100D02*
G03*
X6103620Y1435100I-50800J0D01*
G01*
X4188460Y4064000D02*
G03*
X4188460Y4064000I-50800J0D01*
G01*
X3416300Y3916680D02*
G03*
X3416300Y3916680I-50800J0D01*
G01*
X5184140Y3385820D02*
G03*
X5184140Y3385820I-50800J0D01*
G01*
X5129820Y3029240D02*
G03*
X5129820Y3029240I-50800J0D01*
G01*
X2232660Y4343400D02*
G03*
X2232660Y4343400I-50800J0D01*
G01*
X2377440D02*
G03*
X2377440Y4343400I-50800J0D01*
G01*
Y4230793D02*
G03*
X2377440Y4230793I-50800J0D01*
G01*
X2232660D02*
G03*
X2232660Y4230793I-50800J0D01*
G01*
Y4118187D02*
G03*
X2232660Y4118187I-50800J0D01*
G01*
X1897380Y4394200D02*
G03*
X1897380Y4394200I-50800J0D01*
G01*
X2994660Y4112260D02*
G03*
X2994660Y4112260I-50800J0D01*
G01*
X2377440Y4118187D02*
G03*
X2377440Y4118187I-50800J0D01*
G01*
Y4005580D02*
G03*
X2377440Y4005580I-50800J0D01*
G01*
X2232660D02*
G03*
X2232660Y4005580I-50800J0D01*
G01*
X2476500Y3693160D02*
G03*
X2476500Y3693160I-50800J0D01*
G01*
X685800Y2908300D02*
G03*
X685800Y2908300I-50800J0D01*
G01*
X5567680Y2631440D02*
G03*
X5567680Y2631440I-50800J0D01*
G01*
X5168900Y2720340D02*
G03*
X5168900Y2720340I-50800J0D01*
G01*
X5077460Y2626360D02*
G03*
X5077460Y2626360I-50800J0D01*
G01*
X5435600Y2143760D02*
G03*
X5435600Y2143760I-50800J0D01*
G01*
X5415280Y1706919D02*
G03*
X5415280Y1706919I-50800J0D01*
G01*
X4152900Y2824480D02*
G03*
X4152900Y2824480I-50800J0D01*
G01*
X1061720Y2547620D02*
G03*
X1061720Y2547620I-50800J0D01*
G01*
X1313180Y1874520D02*
G03*
X1313180Y1874520I-50800J0D01*
G01*
X433190Y1903850D02*
G03*
X433190Y1903850I-50800J0D01*
G01*
X7901940Y5240020D02*
G03*
X7901940Y5240020I-50800J0D01*
G01*
X9292660Y11410880D02*
G03*
X9292660Y11410880I-50800J0D01*
G01*
X7734300Y7985760D02*
G03*
X7734300Y7985760I-50800J0D01*
G01*
X6268720Y8387080D02*
G03*
X6268720Y8387080I-50800J0D01*
G01*
X8356600Y3792220D02*
G03*
X8356600Y3792220I-50800J0D01*
G01*
X8262581Y4348202D02*
G03*
X8262581Y4348202I-50800J0D01*
G01*
X8151876Y1693164D02*
G03*
X8151876Y1693164I-50800J0D01*
G01*
X6311900Y1823720D02*
G03*
X6311900Y1823720I-50800J0D01*
G01*
X5384800Y9057640D02*
G03*
X5384800Y9057640I-50800J0D01*
G01*
X5031740Y7289800D02*
G03*
X5031740Y7289800I-50800J0D01*
G01*
X1691640Y10754360D02*
G03*
X1691640Y10754360I-50800J0D01*
G01*
X675640Y10678160D02*
G03*
X675640Y10678160I-50800J0D01*
G01*
X5036820Y3037887D02*
G03*
X5036820Y3037887I-50800J0D01*
G01*
X3789680Y4079240D02*
G03*
X3789680Y4079240I-50800J0D01*
G01*
X1317110Y2028070D02*
G03*
X1317110Y2028070I-50800J0D01*
G01*
X9761220Y2928620D02*
G03*
X9761220Y2928620I-50800J0D01*
G01*
X7244080Y5798820D02*
G03*
X7244080Y5798820I-50800J0D01*
G01*
X9354820Y3004820D02*
G03*
X9354820Y3004820I-50800J0D01*
G01*
X6362700Y6631940D02*
G03*
X6362700Y6631940I-50800J0D01*
G01*
Y6505787D02*
G03*
X6362700Y6505787I-50800J0D01*
G01*
X9509760Y3025140D02*
G03*
X9509760Y3025140I-50800J0D01*
G01*
X6078220Y6990081D02*
G03*
X6078220Y6990081I-50800J0D01*
G01*
X4381500Y9903460D02*
G03*
X4381500Y9903460I-50800J0D01*
G01*
X8046720Y5598160D02*
G03*
X8046720Y5598160I-50800J0D01*
G01*
X7983220Y5554980D02*
G03*
X7983220Y5554980I-50800J0D01*
G01*
X8097520Y6611620D02*
G03*
X8097520Y6611620I-50800J0D01*
G01*
X8315960Y6385560D02*
G03*
X8315960Y6385560I-50800J0D01*
G01*
X9438640Y3081020D02*
G03*
X9438640Y3081020I-50800J0D01*
G01*
X10772140Y3708400D02*
G03*
X10772140Y3708400I-50800J0D01*
G01*
X9474200Y3281680D02*
G03*
X9474200Y3281680I-50800J0D01*
G01*
X6489700Y7363460D02*
G03*
X6489700Y7363460I-50800J0D01*
G01*
X6352540D02*
G03*
X6352540Y7363460I-50800J0D01*
G01*
X6215380D02*
G03*
X6215380Y7363460I-50800J0D01*
G01*
X9509760Y3134360D02*
G03*
X9509760Y3134360I-50800J0D01*
G01*
X5575300Y8714740D02*
G03*
X5575300Y8714740I-50800J0D01*
G01*
X8446867Y2395740D02*
G03*
X8446867Y2395740I-50800J0D01*
G01*
X8442960Y2230120D02*
G03*
X8442960Y2230120I-50800J0D01*
G01*
X7980680Y7386320D02*
G03*
X7980680Y7386320I-50800J0D01*
G01*
X8295640Y8516620D02*
G03*
X8295640Y8516620I-50800J0D01*
G01*
X9779000Y4015740D02*
G03*
X9779000Y4015740I-50800J0D01*
G01*
X8219440Y5085080D02*
G03*
X8219440Y5085080I-50800J0D01*
G01*
X10868660Y3703320D02*
G03*
X10868660Y3703320I-50800J0D01*
G01*
X10320020Y4025900D02*
G03*
X10320020Y4025900I-50800J0D01*
G01*
X9370060Y4097020D02*
G03*
X9370060Y4097020I-50800J0D01*
G01*
X8518343Y9901247D02*
G03*
X8518343Y9901247I-50800J0D01*
G01*
X9451340Y9977120D02*
G03*
X9451340Y9977120I-50800J0D01*
G01*
X10561320Y10066020D02*
G03*
X10561320Y10066020I-50800J0D01*
G01*
X10647680Y10060940D02*
G03*
X10647680Y10060940I-50800J0D01*
G01*
X10952480Y3426460D02*
G03*
X10952480Y3426460I-50800J0D01*
G01*
X11584940Y1813560D02*
G03*
X11584940Y1813560I-50800J0D01*
G01*
X11650980Y1158240D02*
G03*
X11650980Y1158240I-50800J0D01*
G01*
X11722100Y1183640D02*
G03*
X11722100Y1183640I-50800J0D01*
G01*
X5204460Y4643120D02*
G03*
X5204460Y4643120I-50800J0D01*
G01*
X5323840Y4615180D02*
G03*
X5323840Y4615180I-50800J0D01*
G01*
X11739880Y1648460D02*
G03*
X11739880Y1648460I-50800J0D01*
G01*
X4605020Y9796780D02*
G03*
X4605020Y9796780I-50800J0D01*
G01*
X11805920Y1696720D02*
G03*
X11805920Y1696720I-50800J0D01*
G01*
X12037060Y1351280D02*
G03*
X12037060Y1351280I-50800J0D01*
G01*
X8318500Y7406640D02*
G03*
X8318500Y7406640I-50800J0D01*
G01*
X8310880Y7200900D02*
G03*
X8310880Y7200900I-50800J0D01*
G01*
Y7302500D02*
G03*
X8310880Y7302500I-50800J0D01*
G01*
X12270261Y1436079D02*
G03*
X12270261Y1436079I-50800J0D01*
G01*
X12288534Y1369978D02*
G03*
X12288534Y1369978I-50800J0D01*
G01*
X8237220Y8696960D02*
G03*
X8237220Y8696960I-50800J0D01*
G01*
X10439400Y1158240D02*
G03*
X10439400Y1158240I-50800J0D01*
G01*
X10375900Y1214967D02*
G03*
X10375900Y1214967I-50800J0D01*
G01*
X10299700Y1181100D02*
G03*
X10299700Y1181100I-50800J0D01*
G01*
X8104906Y6178599D02*
G03*
X8104906Y6178599I-50800J0D01*
G01*
X7673340Y6850380D02*
G03*
X7673340Y6850380I-50800J0D01*
G01*
X10485120Y3129280D02*
G03*
X10485120Y3129280I-50800J0D01*
G01*
X7571740Y1376680D02*
G03*
X7571740Y1376680I-50800J0D01*
G01*
X7061200Y2573020D02*
G03*
X7061200Y2573020I-50800J0D01*
G01*
X10558780Y3251200D02*
G03*
X10558780Y3251200I-50800J0D01*
G01*
X10574020Y934720D02*
G03*
X10574020Y934720I-50800J0D01*
G01*
X10520062Y1160510D02*
G03*
X10520062Y1160510I-50800J0D01*
G01*
X3586480Y9890760D02*
G03*
X3586480Y9890760I-50800J0D01*
G01*
X6662420Y8892540D02*
G03*
X6662420Y8892540I-50800J0D01*
G01*
X9060180Y961451D02*
G03*
X9060180Y961451I-50800J0D01*
G01*
X3116580Y1363980D02*
G03*
X3116580Y1363980I-50800J0D01*
G01*
X12039600Y2029460D02*
G03*
X12039600Y2029460I-50800J0D01*
G01*
X12085320Y675640D02*
G03*
X12085320Y675640I-50800J0D01*
G01*
X9377680Y1051560D02*
G03*
X9377680Y1051560I-50800J0D01*
G01*
X10424160Y937260D02*
G03*
X10424160Y937260I-50800J0D01*
G01*
X6868160Y1638300D02*
G03*
X6868160Y1638300I-50800J0D01*
G01*
X10579100Y541020D02*
G03*
X10579100Y541020I-50800J0D01*
G01*
X6720840Y825500D02*
G03*
X6720840Y825500I-50800J0D01*
G01*
X5356860Y1419860D02*
G03*
X5356860Y1419860I-50800J0D01*
G01*
X12443460Y10688320D02*
G03*
X12443460Y10688320I-50800J0D01*
G01*
X10627360Y10820400D02*
G03*
X10627360Y10820400I-50800J0D01*
G01*
X9822180Y1252220D02*
G03*
X9822180Y1252220I-50800J0D01*
G01*
X11701780Y807720D02*
G03*
X11701780Y807720I-50800J0D01*
G01*
X9822180Y883920D02*
G03*
X9822180Y883920I-50800J0D01*
G01*
X9923780Y1501140D02*
G03*
X9923780Y1501140I-50800J0D01*
G01*
X9922440Y1220540D02*
G03*
X9922440Y1220540I-50800J0D01*
G01*
X10622280Y3434080D02*
G03*
X10622280Y3434080I-50800J0D01*
G01*
X3697835Y9901325D02*
G03*
X3697835Y9901325I-50800J0D01*
G01*
X3817620Y9885680D02*
G03*
X3817620Y9885680I-50800J0D01*
G01*
X10622280Y1203960D02*
G03*
X10622280Y1203960I-50800J0D01*
G01*
X4437380Y6520180D02*
G03*
X4437380Y6520180I-50800J0D01*
G01*
X10213340Y1376680D02*
G03*
X10213340Y1376680I-50800J0D01*
G01*
X4769507Y2029460D02*
G03*
X4769507Y2029460I-50800J0D01*
G01*
X4315460Y3215640D02*
G03*
X4315460Y3215640I-50800J0D01*
G01*
X4373880Y3299460D02*
G03*
X4373880Y3299460I-50800J0D01*
G01*
X4264660Y3360420D02*
G03*
X4264660Y3360420I-50800J0D01*
G01*
X10210800Y1447800D02*
G03*
X10210800Y1447800I-50800J0D01*
G01*
X4427220Y3411220D02*
G03*
X4427220Y3411220I-50800J0D01*
G01*
X2552700Y9339580D02*
G03*
X2552700Y9339580I-50800J0D01*
G01*
X8656320Y1625600D02*
G03*
X8656320Y1625600I-50800J0D01*
G01*
X8597900Y1757680D02*
G03*
X8597900Y1757680I-50800J0D01*
G01*
X2352040Y9258300D02*
G03*
X2352040Y9258300I-50800J0D01*
G01*
X2341880Y9161780D02*
G03*
X2341880Y9161780I-50800J0D01*
G01*
X2346960Y9083040D02*
G03*
X2346960Y9083040I-50800J0D01*
G01*
X12928600Y3741420D02*
G03*
X12928600Y3741420I-50800J0D01*
G01*
X12966701Y3822700D02*
G03*
X12966701Y3822700I-50800J0D01*
G01*
X13058141Y3853180D02*
G03*
X13058141Y3853180I-50800J0D01*
G01*
X13053059Y3942080D02*
G03*
X13053059Y3942080I-50800J0D01*
G01*
X13835381Y3058160D02*
G03*
X13835381Y3058160I-50800J0D01*
G01*
X13751559Y3253740D02*
G03*
X13751559Y3253740I-50800J0D01*
G01*
X13906500Y3426460D02*
G03*
X13906500Y3426460I-50800J0D01*
G01*
X13650786Y3608440D02*
G03*
X13650786Y3608440I-50800J0D01*
G01*
X7670800Y3053080D02*
G03*
X7670800Y3053080I-50800J0D01*
G01*
X7358380Y3070860D02*
G03*
X7358380Y3070860I-50800J0D01*
G01*
X6141720Y9250680D02*
G03*
X6141720Y9250680I-50800J0D01*
G01*
X5748020Y3769360D02*
G03*
X5748020Y3769360I-50800J0D01*
G01*
X7924800Y5392420D02*
G03*
X7924800Y5392420I-50800J0D01*
G01*
X6807200Y3543300D02*
G03*
X6807200Y3543300I-50800J0D01*
G01*
X7833360Y5288280D02*
G03*
X7833360Y5288280I-50800J0D01*
G01*
X6758053Y2691513D02*
G03*
X6758053Y2691513I-50800J0D01*
G01*
X6880860Y3070860D02*
G03*
X6880860Y3070860I-50800J0D01*
G01*
X6189980Y2773680D02*
G03*
X6189980Y2773680I-50800J0D01*
G01*
X6931660Y2984500D02*
G03*
X6931660Y2984500I-50800J0D01*
G01*
X8554720Y11229340D02*
G03*
X8554720Y11229340I-50800J0D01*
G01*
X10096500Y11391900D02*
G03*
X10096500Y11391900I-50800J0D01*
G01*
X8016240Y1376680D02*
G03*
X8016240Y1376680I-50800J0D01*
G01*
X5151120Y7216140D02*
G03*
X5151120Y7216140I-50800J0D01*
G01*
X7129780Y7264400D02*
G03*
X7129780Y7264400I-50800J0D01*
G01*
X7127240Y6535420D02*
G03*
X7127240Y6535420I-50800J0D01*
G01*
X7137400Y2570480D02*
G03*
X7137400Y2570480I-50800J0D01*
G01*
X7612380Y6078220D02*
G03*
X7612380Y6078220I-50800J0D01*
G01*
X7609840Y7353300D02*
G03*
X7609840Y7353300I-50800J0D01*
G01*
X10370820Y11689080D02*
G03*
X10370820Y11689080I-50800J0D01*
G01*
X7063740Y1864360D02*
G03*
X7063740Y1864360I-50800J0D01*
G01*
X4165600Y3533140D02*
G03*
X4165600Y3533140I-50800J0D01*
G01*
X6697980Y1564640D02*
G03*
X6697980Y1564640I-50800J0D01*
G01*
X7012940Y2161540D02*
G03*
X7012940Y2161540I-50800J0D01*
G01*
X5234940Y1645920D02*
G03*
X5234940Y1645920I-50800J0D01*
G01*
X1259840Y2435860D02*
G03*
X1259840Y2435860I-50800J0D01*
G01*
X5097308Y6334191D02*
G03*
X5097308Y6334191I-50800J0D01*
G01*
X6487160Y2773680D02*
G03*
X6487160Y2773680I-50800J0D01*
G01*
X8249920Y2771140D02*
G03*
X8249920Y2771140I-50800J0D01*
G01*
X6784340Y2268220D02*
G03*
X6784340Y2268220I-50800J0D01*
G01*
X8034020Y2913380D02*
G03*
X8034020Y2913380I-50800J0D01*
G01*
X8442375Y3433635D02*
G03*
X8442375Y3433635I-50800J0D01*
G01*
X10335260Y1699260D02*
G03*
X10335260Y1699260I-50800J0D01*
G01*
X9141460Y688340D02*
G03*
X9141460Y688340I-50800J0D01*
G01*
X9077960Y11915140D02*
G03*
X9077960Y11915140I-50800J0D01*
G01*
X8750300Y11010900D02*
G03*
X8750300Y11010900I-50800J0D01*
G01*
X7655560Y11450320D02*
G03*
X7655560Y11450320I-50800J0D01*
G01*
X8835320Y10821600D02*
G03*
X8835320Y10821600I-50800J0D01*
G01*
X8841740Y10970260D02*
G03*
X8841740Y10970260I-50800J0D01*
G01*
X12791440Y1673860D02*
G03*
X12791440Y1673860I-50800J0D01*
G01*
Y1790700D02*
G03*
X12791440Y1790700I-50800J0D01*
G01*
X12788900Y1938020D02*
G03*
X12788900Y1938020I-50800J0D01*
G01*
X12791440Y2087880D02*
G03*
X12791440Y2087880I-50800J0D01*
G01*
X10325100Y429260D02*
G03*
X10325100Y429260I-50800J0D01*
G01*
X8879840Y960120D02*
G03*
X8879840Y960120I-50800J0D01*
G01*
X3116580Y1295400D02*
G03*
X3116580Y1295400I-50800J0D01*
G01*
X3114040Y1224280D02*
G03*
X3114040Y1224280I-50800J0D01*
G01*
X3251200Y1122680D02*
G03*
X3251200Y1122680I-50800J0D01*
G01*
X12273280Y2829560D02*
G03*
X12273280Y2829560I-50800J0D01*
G01*
X9585960Y11625580D02*
G03*
X9585960Y11625580I-50800J0D01*
G01*
X9752260Y11590020D02*
G03*
X9752260Y11590020I-50800J0D01*
G01*
X10116400Y11292440D02*
G03*
X10116400Y11292440I-50800J0D01*
G01*
X10962640Y10922000D02*
G03*
X10962640Y10922000I-50800J0D01*
G01*
X10927320Y10510760D02*
G03*
X10927320Y10510760I-50800J0D01*
G01*
X11798300Y10888980D02*
G03*
X11798300Y10888980I-50800J0D01*
G01*
X11833860Y10634980D02*
G03*
X11833860Y10634980I-50800J0D01*
G01*
X10958647Y10666547D02*
G03*
X10958647Y10666547I-50800J0D01*
G01*
X11734800Y10769600D02*
G03*
X11734800Y10769600I-50800J0D01*
G01*
X9997440Y11653520D02*
G03*
X9997440Y11653520I-50800J0D01*
G01*
X7929880Y12397740D02*
G03*
X7929880Y12397740I-50800J0D01*
G01*
Y12494260D02*
G03*
X7929880Y12494260I-50800J0D01*
G01*
X8052647D02*
G03*
X8052647Y12494260I-50800J0D01*
G01*
X8175413D02*
G03*
X8175413Y12494260I-50800J0D01*
G01*
X8298180D02*
G03*
X8298180Y12494260I-50800J0D01*
G01*
X8051800Y12397740D02*
G03*
X8051800Y12397740I-50800J0D01*
G01*
X8295640D02*
G03*
X8295640Y12397740I-50800J0D01*
G01*
X8173720D02*
G03*
X8173720Y12397740I-50800J0D01*
G01*
X9796780Y10490200D02*
G03*
X9796780Y10490200I-50800J0D01*
G01*
X10088400D02*
G03*
X10088400Y10490200I-50800J0D01*
G01*
X9941560D02*
G03*
X9941560Y10490200I-50800J0D01*
G01*
X9646920D02*
G03*
X9646920Y10490200I-50800J0D01*
G01*
X9499600D02*
G03*
X9499600Y10490200I-50800J0D01*
G01*
X9352280D02*
G03*
X9352280Y10490200I-50800J0D01*
G01*
X9204960D02*
G03*
X9204960Y10490200I-50800J0D01*
G01*
X5814060Y10360660D02*
G03*
X5814060Y10360660I-50800J0D01*
G01*
X8432800Y10924540D02*
G03*
X8432800Y10924540I-50800J0D01*
G01*
X8313420D02*
G03*
X8313420Y10924540I-50800J0D01*
G01*
Y10802620D02*
G03*
X8313420Y10802620I-50800J0D01*
G01*
Y10680700D02*
G03*
X8313420Y10680700I-50800J0D01*
G01*
Y10558780D02*
G03*
X8313420Y10558780I-50800J0D01*
G01*
X8432800Y10802620D02*
G03*
X8432800Y10802620I-50800J0D01*
G01*
Y10680700D02*
G03*
X8432800Y10680700I-50800J0D01*
G01*
Y10558780D02*
G03*
X8432800Y10558780I-50800J0D01*
G01*
X6906260Y11267440D02*
G03*
X6906260Y11267440I-50800J0D01*
G01*
Y11148060D02*
G03*
X6906260Y11148060I-50800J0D01*
G01*
X7028180D02*
G03*
X7028180Y11148060I-50800J0D01*
G01*
X7150100D02*
G03*
X7150100Y11148060I-50800J0D01*
G01*
X7272020D02*
G03*
X7272020Y11148060I-50800J0D01*
G01*
X7028180Y11267440D02*
G03*
X7028180Y11267440I-50800J0D01*
G01*
X7150100D02*
G03*
X7150100Y11267440I-50800J0D01*
G01*
X7272020D02*
G03*
X7272020Y11267440I-50800J0D01*
G01*
X6268720Y11269980D02*
G03*
X6268720Y11269980I-50800J0D01*
G01*
Y11150600D02*
G03*
X6268720Y11150600I-50800J0D01*
G01*
X6390640D02*
G03*
X6390640Y11150600I-50800J0D01*
G01*
X6512560D02*
G03*
X6512560Y11150600I-50800J0D01*
G01*
X6634480D02*
G03*
X6634480Y11150600I-50800J0D01*
G01*
X6390640Y11269980D02*
G03*
X6390640Y11269980I-50800J0D01*
G01*
X6512560D02*
G03*
X6512560Y11269980I-50800J0D01*
G01*
X6634480D02*
G03*
X6634480Y11269980I-50800J0D01*
G01*
X8460740Y12006580D02*
G03*
X8460740Y12006580I-50800J0D01*
G01*
X8341360D02*
G03*
X8341360Y12006580I-50800J0D01*
G01*
Y11884660D02*
G03*
X8341360Y11884660I-50800J0D01*
G01*
Y11762740D02*
G03*
X8341360Y11762740I-50800J0D01*
G01*
Y11640820D02*
G03*
X8341360Y11640820I-50800J0D01*
G01*
X8460740Y11884660D02*
G03*
X8460740Y11884660I-50800J0D01*
G01*
Y11762740D02*
G03*
X8460740Y11762740I-50800J0D01*
G01*
Y11640820D02*
G03*
X8460740Y11640820I-50800J0D01*
G01*
X1744980Y3606800D02*
G03*
X1744980Y3606800I-50800J0D01*
G01*
X1625600D02*
G03*
X1625600Y3606800I-50800J0D01*
G01*
X1745568Y3743960D02*
G03*
X1745568Y3743960I-50800J0D01*
G01*
X1741014Y3881120D02*
G03*
X1741014Y3881120I-50800J0D01*
G01*
X1747086Y4018280D02*
G03*
X1747086Y4018280I-50800J0D01*
G01*
X1743356Y4155440D02*
G03*
X1743356Y4155440I-50800J0D01*
G01*
X1625600Y3743960D02*
G03*
X1625600Y3743960I-50800J0D01*
G01*
Y3881120D02*
G03*
X1625600Y3881120I-50800J0D01*
G01*
Y4018280D02*
G03*
X1625600Y4018280I-50800J0D01*
G01*
Y4155440D02*
G03*
X1625600Y4155440I-50800J0D01*
G01*
X6967220Y12039600D02*
G03*
X6967220Y12039600I-50800J0D01*
G01*
Y12158980D02*
G03*
X6967220Y12158980I-50800J0D01*
G01*
X6845300D02*
G03*
X6845300Y12158980I-50800J0D01*
G01*
X6723380D02*
G03*
X6723380Y12158980I-50800J0D01*
G01*
X6601460D02*
G03*
X6601460Y12158980I-50800J0D01*
G01*
X6845300Y12039600D02*
G03*
X6845300Y12039600I-50800J0D01*
G01*
X6723380D02*
G03*
X6723380Y12039600I-50800J0D01*
G01*
X6601460D02*
G03*
X6601460Y12039600I-50800J0D01*
G01*
X5194300Y11440160D02*
G03*
X5194300Y11440160I-50800J0D01*
G01*
X7457440Y9123680D02*
G03*
X7457440Y9123680I-50800J0D01*
G01*
Y8996680D02*
G03*
X7457440Y8996680I-50800J0D01*
G01*
Y9250680D02*
G03*
X7457440Y9250680I-50800J0D01*
G01*
X5057140Y9464040D02*
G03*
X5057140Y9464040I-50800J0D01*
G01*
X7457440Y9377680D02*
G03*
X7457440Y9377680I-50800J0D01*
G01*
Y8869680D02*
G03*
X7457440Y8869680I-50800J0D01*
G01*
X5209540Y9464040D02*
G03*
X5209540Y9464040I-50800J0D01*
G01*
X4991100Y10571480D02*
G03*
X4991100Y10571480I-50800J0D01*
G01*
X5115560Y10568940D02*
G03*
X5115560Y10568940I-50800J0D01*
G01*
X5229860Y10563860D02*
G03*
X5229860Y10563860I-50800J0D01*
G01*
X9390380Y11394440D02*
G03*
X9390380Y11394440I-50800J0D01*
G01*
X4516120Y10800080D02*
G03*
X4516120Y10800080I-50800J0D01*
G01*
X4605020Y11074400D02*
G03*
X4605020Y11074400I-50800J0D01*
G01*
X1290320Y9685140D02*
G03*
X1290320Y9685140I-50800J0D01*
G01*
X1998980Y10589260D02*
G03*
X1998980Y10589260I-50800J0D01*
G01*
X1927860Y10586720D02*
G03*
X1927860Y10586720I-50800J0D01*
G01*
X1137920Y9664700D02*
G03*
X1137920Y9664700I-50800J0D01*
G01*
X840740Y9662160D02*
G03*
X840740Y9662160I-50800J0D01*
G01*
X6436360Y9250680D02*
G03*
X6436360Y9250680I-50800J0D01*
G01*
X6289040D02*
G03*
X6289040Y9250680I-50800J0D01*
G01*
X7508240Y7289800D02*
G03*
X7508240Y7289800I-50800J0D01*
G01*
X6786880Y7432040D02*
G03*
X6786880Y7432040I-50800J0D01*
G01*
X6949440Y6858000D02*
G03*
X6949440Y6858000I-50800J0D01*
G01*
X4091940Y11061700D02*
G03*
X4091940Y11061700I-50800J0D01*
G01*
X3845560Y10863580D02*
G03*
X3845560Y10863580I-50800J0D01*
G01*
X3959860Y10777220D02*
G03*
X3959860Y10777220I-50800J0D01*
G01*
X4046220Y10833100D02*
G03*
X4046220Y10833100I-50800J0D01*
G01*
X4170680Y10769600D02*
G03*
X4170680Y10769600I-50800J0D01*
G01*
X4338964Y10838180D02*
G03*
X4338964Y10838180I-50800J0D01*
G01*
X4028440Y9570720D02*
G03*
X4028440Y9570720I-50800J0D01*
G01*
X4305300Y9903460D02*
G03*
X4305300Y9903460I-50800J0D01*
G01*
X4224020Y9906000D02*
G03*
X4224020Y9906000I-50800J0D01*
G01*
X4145280Y9908540D02*
G03*
X4145280Y9908540I-50800J0D01*
G01*
X3969437Y9925557D02*
G03*
X3969437Y9925557I-50800J0D01*
G01*
X6842760Y5796280D02*
G03*
X6842760Y5796280I-50800J0D01*
G01*
X4843780Y6794500D02*
G03*
X4843780Y6794500I-50800J0D01*
G01*
X5006340Y6764020D02*
G03*
X5006340Y6764020I-50800J0D01*
G01*
X6797040Y6703060D02*
G03*
X6797040Y6703060I-50800J0D01*
G01*
X6791960Y6195060D02*
G03*
X6791960Y6195060I-50800J0D01*
G01*
X6078220Y7363461D02*
G03*
X6078220Y7363461I-50800J0D01*
G01*
Y7239001D02*
G03*
X6078220Y7239001I-50800J0D01*
G01*
Y7114541D02*
G03*
X6078220Y7114541I-50800J0D01*
G01*
X6489700Y6992621D02*
G03*
X6489700Y6992621I-50800J0D01*
G01*
Y7116234D02*
G03*
X6489700Y7116234I-50800J0D01*
G01*
Y7239847D02*
G03*
X6489700Y7239847I-50800J0D01*
G01*
X6215380Y7237307D02*
G03*
X6215380Y7237307I-50800J0D01*
G01*
X6352540D02*
G03*
X6352540Y7237307I-50800J0D01*
G01*
X6215380Y7111154D02*
G03*
X6215380Y7111154I-50800J0D01*
G01*
X6352540D02*
G03*
X6352540Y7111154I-50800J0D01*
G01*
Y6985001D02*
G03*
X6352540Y6985001I-50800J0D01*
G01*
X6215380D02*
G03*
X6215380Y6985001I-50800J0D01*
G01*
X6088380Y6631941D02*
G03*
X6088380Y6631941I-50800J0D01*
G01*
Y6507481D02*
G03*
X6088380Y6507481I-50800J0D01*
G01*
Y6383021D02*
G03*
X6088380Y6383021I-50800J0D01*
G01*
Y6258561D02*
G03*
X6088380Y6258561I-50800J0D01*
G01*
X6499860Y6261101D02*
G03*
X6499860Y6261101I-50800J0D01*
G01*
Y6384714D02*
G03*
X6499860Y6384714I-50800J0D01*
G01*
Y6508327D02*
G03*
X6499860Y6508327I-50800J0D01*
G01*
X6225540Y6505787D02*
G03*
X6225540Y6505787I-50800J0D01*
G01*
Y6379634D02*
G03*
X6225540Y6379634I-50800J0D01*
G01*
X6362700D02*
G03*
X6362700Y6379634I-50800J0D01*
G01*
Y6253481D02*
G03*
X6362700Y6253481I-50800J0D01*
G01*
X6225540D02*
G03*
X6225540Y6253481I-50800J0D01*
G01*
Y6631940D02*
G03*
X6225540Y6631940I-50800J0D01*
G01*
X6499860D02*
G03*
X6499860Y6631940I-50800J0D01*
G01*
X5643880Y6634479D02*
G03*
X5643880Y6634479I-50800J0D01*
G01*
X5781040D02*
G03*
X5781040Y6634479I-50800J0D01*
G01*
X5506720D02*
G03*
X5506720Y6634479I-50800J0D01*
G01*
Y6256020D02*
G03*
X5506720Y6256020I-50800J0D01*
G01*
X5643880D02*
G03*
X5643880Y6256020I-50800J0D01*
G01*
Y6382173D02*
G03*
X5643880Y6382173I-50800J0D01*
G01*
X5506720D02*
G03*
X5506720Y6382173I-50800J0D01*
G01*
X5643880Y6508326D02*
G03*
X5643880Y6508326I-50800J0D01*
G01*
X5506720D02*
G03*
X5506720Y6508326I-50800J0D01*
G01*
X5781040Y6510866D02*
G03*
X5781040Y6510866I-50800J0D01*
G01*
Y6387253D02*
G03*
X5781040Y6387253I-50800J0D01*
G01*
Y6263640D02*
G03*
X5781040Y6263640I-50800J0D01*
G01*
X5369560Y6261100D02*
G03*
X5369560Y6261100I-50800J0D01*
G01*
Y6385560D02*
G03*
X5369560Y6385560I-50800J0D01*
G01*
Y6510020D02*
G03*
X5369560Y6510020I-50800J0D01*
G01*
Y6634480D02*
G03*
X5369560Y6634480I-50800J0D01*
G01*
X2133600Y3594100D02*
G03*
X2133600Y3594100I-50800J0D01*
G01*
X12085320Y289560D02*
G03*
X12085320Y289560I-50800J0D01*
G01*
X12272500Y1929620D02*
G03*
X12272500Y1929620I-50800J0D01*
G01*
X11902440Y840740D02*
G03*
X11902440Y840740I-50800J0D01*
G01*
X12666980Y891540D02*
G03*
X12666980Y891540I-50800J0D01*
G01*
X5367020Y2428240D02*
G03*
X5367020Y2428240I-50800J0D01*
G01*
X5331460Y3385820D02*
G03*
X5331460Y3385820I-50800J0D01*
G01*
X4839487Y2836993D02*
G03*
X4839487Y2836993I-50800J0D01*
G01*
X5433060Y2542540D02*
G03*
X5433060Y2542540I-50800J0D01*
G01*
X5321300Y2357120D02*
G03*
X5321300Y2357120I-50800J0D01*
G01*
X5382260Y2303780D02*
G03*
X5382260Y2303780I-50800J0D01*
G01*
X1897380Y4244340D02*
G03*
X1897380Y4244340I-50800J0D01*
G01*
X1894840Y4038600D02*
G03*
X1894840Y4038600I-50800J0D01*
G01*
X1897380Y3830320D02*
G03*
X1897380Y3830320I-50800J0D01*
G01*
X2042160Y3688080D02*
G03*
X2042160Y3688080I-50800J0D01*
G01*
X2131060Y3451860D02*
G03*
X2131060Y3451860I-50800J0D01*
G01*
D153*
X630480Y12900000D02*
G03*
X630480Y12900000I-30480J0D01*
G01*
X13730479D02*
G03*
X13730479Y12900000I-30480J0D01*
G01*
X8580480Y6750000D02*
G03*
X8580480Y6750000I-30480J0D01*
G01*
X13730479Y600000D02*
G03*
X13730479Y600000I-30480J0D01*
G01*
X630480D02*
G03*
X630480Y600000I-30480J0D01*
G01*
%TF.MD5,ce95626a266bdc0bfdfffef05e124bc5*%
M02*
