%TF.GenerationSoftware,Altium Limited,Altium Designer,26.2.0 (7)*%
G04 Layer_Color=16711935*
%FSLAX45Y45*%
%MOMM*%
%TF.SameCoordinates,5567E761-9546-4A85-A6DF-5BC1022D79F0*%
%TF.FilePolarity,Negative*%
%TF.FileFunction,Soldermask,Bot*%
%TF.Part,Single*%
G01*
G75*
%TA.AperFunction,SMDPad,CuDef*%
%ADD29R,1.14380X0.81040*%
%ADD42R,0.81040X1.14380*%
%TA.AperFunction,ComponentPad*%
%ADD61C,1.65100*%
%ADD62C,1.57480*%
%ADD63C,1.34620*%
%ADD64C,1.75260*%
%TA.AperFunction,SMDPad,CuDef*%
%ADD70R,1.60000X2.00000*%
%ADD74R,3.48060X1.19140*%
%ADD107O,0.97600X0.40600*%
%ADD108O,0.40600X0.97600*%
G04:AMPARAMS|DCode=114|XSize=1.2862mm|YSize=0.6562mm|CornerRadius=0.1106mm|HoleSize=0mm|Usage=FLASHONLY|Rotation=0.000|XOffset=0mm|YOffset=0mm|HoleType=Round|Shape=RoundedRectangle|*
%AMROUNDEDRECTD114*
21,1,1.28620,0.43500,0,0,0.0*
21,1,1.06500,0.65620,0,0,0.0*
1,1,0.22120,0.53250,-0.21750*
1,1,0.22120,-0.53250,-0.21750*
1,1,0.22120,-0.53250,0.21750*
1,1,0.22120,0.53250,0.21750*
%
%ADD114ROUNDEDRECTD114*%
%TA.AperFunction,FiducialPad,Global*%
%ADD115C,3.55600*%
%TA.AperFunction,ComponentPad*%
%ADD116C,2.47620*%
%ADD117C,1.19380*%
%ADD118R,1.19380X1.19380*%
%ADD119C,1.57620*%
%ADD120C,1.02620*%
%TA.AperFunction,SMDPad,CuDef*%
%ADD121O,0.97600X0.40600*%
%ADD122O,0.40600X0.97600*%
%ADD123R,2.20240X2.20240*%
%ADD124R,0.37600X0.77600*%
%ADD125R,0.77600X0.37600*%
%ADD126R,3.60240X3.60240*%
G04:AMPARAMS|DCode=127|XSize=1.164mm|YSize=5.614mm|CornerRadius=0.222mm|HoleSize=0mm|Usage=FLASHONLY|Rotation=180.000|XOffset=0mm|YOffset=0mm|HoleType=Round|Shape=RoundedRectangle|*
%AMROUNDEDRECTD127*
21,1,1.16400,5.17000,0,0,180.0*
21,1,0.72000,5.61400,0,0,180.0*
1,1,0.44400,-0.36000,2.58500*
1,1,0.44400,0.36000,2.58500*
1,1,0.44400,0.36000,-2.58500*
1,1,0.44400,-0.36000,-2.58500*
%
%ADD127ROUNDEDRECTD127*%
%ADD128R,2.35320X2.45320*%
%ADD129R,2.45320X2.35320*%
G36*
X3763219Y13153816D02*
X3763345Y13153821D01*
X3789478Y13152107D01*
X3789603Y13152087D01*
X3789727Y13152083D01*
X3815693Y13148665D01*
X3815815Y13148636D01*
X3815940Y13148624D01*
X3841626Y13143513D01*
X3841746Y13143478D01*
X3841870Y13143457D01*
X3867167Y13136679D01*
X3867284Y13136635D01*
X3867407Y13136606D01*
X3892206Y13128188D01*
X3892320Y13128137D01*
X3892441Y13128101D01*
X3916636Y13118079D01*
X3916747Y13118019D01*
X3916865Y13117975D01*
X3940353Y13106390D01*
X3940460Y13106325D01*
X3940574Y13106273D01*
X3963255Y13093179D01*
X3963357Y13093105D01*
X3963467Y13093047D01*
X3985243Y13078496D01*
X3985341Y13078416D01*
X3985447Y13078349D01*
X4006224Y13062407D01*
X4006316Y13062321D01*
X4006417Y13062248D01*
X4026108Y13044980D01*
X4026194Y13044888D01*
X4026290Y13044809D01*
X4044809Y13026291D01*
X4044890Y13026192D01*
X4044980Y13026108D01*
X4062248Y13006416D01*
X4062322Y13006316D01*
X4062407Y13006224D01*
X4078350Y12985448D01*
X4078416Y12985341D01*
X4078496Y12985243D01*
X4093046Y12963467D01*
X4093105Y12963358D01*
X4093179Y12963255D01*
X4106273Y12940575D01*
X4106325Y12940460D01*
X4106391Y12940353D01*
X4117974Y12916866D01*
X4118019Y12916747D01*
X4118078Y12916637D01*
X4128100Y12892441D01*
X4128137Y12892320D01*
X4128188Y12892206D01*
X4136606Y12867407D01*
X4136635Y12867284D01*
X4136679Y12867168D01*
X4143457Y12841870D01*
X4143478Y12841747D01*
X4143514Y12841626D01*
X4148624Y12815939D01*
X4148636Y12815816D01*
X4148665Y12815694D01*
X4152083Y12789728D01*
X4152087Y12789603D01*
X4152108Y12789478D01*
X4153820Y12763345D01*
X4153816Y12763219D01*
X4153829Y12763095D01*
Y12750000D01*
Y12736906D01*
X4153816Y12736781D01*
X4153820Y12736655D01*
X4152108Y12710522D01*
X4152087Y12710397D01*
X4152083Y12710273D01*
X4148665Y12684308D01*
X4148636Y12684185D01*
X4148624Y12684060D01*
X4143514Y12658374D01*
X4143478Y12658254D01*
X4143457Y12658130D01*
X4136679Y12632833D01*
X4136635Y12632716D01*
X4136606Y12632593D01*
X4128188Y12607794D01*
X4128137Y12607680D01*
X4128100Y12607560D01*
X4118078Y12583364D01*
X4118019Y12583253D01*
X4117974Y12583136D01*
X4106391Y12559647D01*
X4106325Y12559541D01*
X4106273Y12559426D01*
X4093179Y12536746D01*
X4093105Y12536643D01*
X4093046Y12536533D01*
X4078496Y12514757D01*
X4078416Y12514660D01*
X4078350Y12514554D01*
X4062407Y12493776D01*
X4062321Y12493684D01*
X4062248Y12493583D01*
X4044980Y12473893D01*
X4044888Y12473806D01*
X4044809Y12473710D01*
X4026291Y12455191D01*
X4026192Y12455110D01*
X4026108Y12455020D01*
X4006417Y12437752D01*
X4006315Y12437678D01*
X4006224Y12437593D01*
X3985447Y12421650D01*
X3985341Y12421584D01*
X3985243Y12421504D01*
X3963467Y12406954D01*
X3963357Y12406895D01*
X3963255Y12406822D01*
X3940574Y12393727D01*
X3940460Y12393676D01*
X3940353Y12393609D01*
X3916865Y12382026D01*
X3916747Y12381981D01*
X3916636Y12381922D01*
X3892441Y12371900D01*
X3892320Y12371863D01*
X3892206Y12371812D01*
X3867407Y12363394D01*
X3867284Y12363365D01*
X3867167Y12363321D01*
X3841870Y12356543D01*
X3841746Y12356523D01*
X3841626Y12356486D01*
X3815940Y12351377D01*
X3815815Y12351364D01*
X3815693Y12351336D01*
X3789727Y12347917D01*
X3789603Y12347913D01*
X3789478Y12347893D01*
X3763345Y12346180D01*
X3763219Y12346184D01*
X3763095Y12346172D01*
X3736906D01*
X3736781Y12346184D01*
X3736655Y12346180D01*
X3710522Y12347893D01*
X3710397Y12347913D01*
X3710273Y12347917D01*
X3684308Y12351336D01*
X3684185Y12351364D01*
X3684060Y12351377D01*
X3658374Y12356486D01*
X3658254Y12356523D01*
X3658130Y12356543D01*
X3632833Y12363321D01*
X3632716Y12363365D01*
X3632593Y12363394D01*
X3607794Y12371812D01*
X3607680Y12371863D01*
X3607560Y12371900D01*
X3583364Y12381922D01*
X3583253Y12381981D01*
X3583136Y12382026D01*
X3559647Y12393609D01*
X3559541Y12393675D01*
X3559426Y12393727D01*
X3536746Y12406822D01*
X3536643Y12406895D01*
X3536533Y12406954D01*
X3514757Y12421504D01*
X3514660Y12421584D01*
X3514554Y12421650D01*
X3493776Y12437593D01*
X3493684Y12437679D01*
X3493583Y12437752D01*
X3473892Y12455020D01*
X3473806Y12455112D01*
X3473710Y12455191D01*
X3455191Y12473710D01*
X3455110Y12473808D01*
X3455020Y12473893D01*
X3437752Y12493583D01*
X3437678Y12493685D01*
X3437593Y12493776D01*
X3421650Y12514554D01*
X3421584Y12514660D01*
X3421504Y12514757D01*
X3406954Y12536533D01*
X3406895Y12536643D01*
X3406822Y12536746D01*
X3393727Y12559426D01*
X3393676Y12559540D01*
X3393609Y12559647D01*
X3382026Y12583136D01*
X3381981Y12583254D01*
X3381922Y12583364D01*
X3371900Y12607560D01*
X3371863Y12607680D01*
X3371812Y12607794D01*
X3363394Y12632593D01*
X3363365Y12632716D01*
X3363321Y12632833D01*
X3356543Y12658130D01*
X3356523Y12658254D01*
X3356486Y12658374D01*
X3351377Y12684060D01*
X3351364Y12684185D01*
X3351336Y12684308D01*
X3347917Y12710273D01*
X3347913Y12710397D01*
X3347893Y12710522D01*
X3346180Y12736655D01*
X3346184Y12736781D01*
X3346172Y12736906D01*
Y12750000D01*
Y12763095D01*
X3346184Y12763219D01*
X3346180Y12763345D01*
X3347893Y12789478D01*
X3347913Y12789603D01*
X3347917Y12789728D01*
X3351336Y12815694D01*
X3351364Y12815816D01*
X3351377Y12815939D01*
X3356486Y12841626D01*
X3356523Y12841747D01*
X3356543Y12841870D01*
X3363321Y12867168D01*
X3363365Y12867284D01*
X3363394Y12867407D01*
X3371812Y12892206D01*
X3371863Y12892320D01*
X3371900Y12892441D01*
X3381922Y12916637D01*
X3381981Y12916747D01*
X3382026Y12916866D01*
X3393609Y12940353D01*
X3393675Y12940460D01*
X3393727Y12940575D01*
X3406822Y12963255D01*
X3406895Y12963358D01*
X3406954Y12963467D01*
X3421504Y12985243D01*
X3421584Y12985341D01*
X3421650Y12985448D01*
X3437593Y13006224D01*
X3437679Y13006316D01*
X3437752Y13006416D01*
X3455020Y13026108D01*
X3455112Y13026193D01*
X3455191Y13026289D01*
X3473710Y13044809D01*
X3473808Y13044890D01*
X3473893Y13044980D01*
X3493583Y13062248D01*
X3493685Y13062321D01*
X3493776Y13062407D01*
X3514554Y13078349D01*
X3514660Y13078416D01*
X3514757Y13078496D01*
X3536533Y13093047D01*
X3536643Y13093105D01*
X3536746Y13093179D01*
X3559426Y13106273D01*
X3559540Y13106325D01*
X3559647Y13106390D01*
X3583136Y13117975D01*
X3583254Y13118019D01*
X3583364Y13118079D01*
X3607560Y13128101D01*
X3607680Y13128137D01*
X3607794Y13128188D01*
X3632593Y13136606D01*
X3632716Y13136635D01*
X3632833Y13136679D01*
X3658130Y13143457D01*
X3658254Y13143478D01*
X3658374Y13143513D01*
X3684060Y13148624D01*
X3684185Y13148636D01*
X3684308Y13148665D01*
X3710273Y13152083D01*
X3710397Y13152087D01*
X3710522Y13152107D01*
X3736655Y13153821D01*
X3736781Y13153816D01*
X3736906Y13153828D01*
X3763095D01*
X3763219Y13153816D01*
D02*
G37*
G36*
X13708540Y13073810D02*
X13708727D01*
X13725349Y13072173D01*
X13725533Y13072136D01*
X13725722Y13072118D01*
X13742104Y13068858D01*
X13742284Y13068805D01*
X13742468Y13068768D01*
X13758452Y13063919D01*
X13758626Y13063847D01*
X13758804Y13063792D01*
X13774237Y13057401D01*
X13774403Y13057312D01*
X13774576Y13057240D01*
X13789308Y13049367D01*
X13789464Y13049261D01*
X13789630Y13049173D01*
X13803519Y13039893D01*
X13803664Y13039774D01*
X13803819Y13039668D01*
X13816731Y13029073D01*
X13816866Y13028938D01*
X13817010Y13028821D01*
X13828821Y13017010D01*
X13828940Y13016864D01*
X13829073Y13016731D01*
X13839668Y13003819D01*
X13839774Y13003665D01*
X13839893Y13003519D01*
X13849173Y12989630D01*
X13849261Y12989462D01*
X13849367Y12989308D01*
X13857240Y12974577D01*
X13857310Y12974403D01*
X13857401Y12974237D01*
X13863792Y12958804D01*
X13863847Y12958626D01*
X13863919Y12958452D01*
X13868768Y12942468D01*
X13868805Y12942284D01*
X13868858Y12942104D01*
X13872118Y12925722D01*
X13872136Y12925534D01*
X13872173Y12925349D01*
X13873810Y12908727D01*
Y12908540D01*
X13873828Y12908353D01*
Y12900000D01*
Y12891649D01*
X13873810Y12891461D01*
Y12891273D01*
X13872173Y12874651D01*
X13872136Y12874467D01*
X13872118Y12874278D01*
X13868858Y12857896D01*
X13868805Y12857716D01*
X13868768Y12857532D01*
X13863919Y12841548D01*
X13863847Y12841374D01*
X13863792Y12841196D01*
X13857401Y12825763D01*
X13857312Y12825597D01*
X13857240Y12825424D01*
X13849367Y12810692D01*
X13849261Y12810536D01*
X13849173Y12810370D01*
X13839893Y12796482D01*
X13839774Y12796337D01*
X13839668Y12796180D01*
X13829073Y12783269D01*
X13828938Y12783135D01*
X13828819Y12782990D01*
X13817010Y12771179D01*
X13816864Y12771060D01*
X13816731Y12770927D01*
X13803819Y12760331D01*
X13803665Y12760227D01*
X13803519Y12760107D01*
X13789630Y12750827D01*
X13789462Y12750738D01*
X13789307Y12750634D01*
X13774576Y12742760D01*
X13774403Y12742689D01*
X13774237Y12742600D01*
X13758804Y12736208D01*
X13758626Y12736153D01*
X13758452Y12736081D01*
X13742468Y12731232D01*
X13742284Y12731196D01*
X13742104Y12731141D01*
X13725722Y12727883D01*
X13725534Y12727864D01*
X13725349Y12727827D01*
X13708727Y12726190D01*
X13708540D01*
X13708353Y12726172D01*
X13700000Y12726172D01*
X13691649D01*
X13691461Y12726190D01*
X13691273D01*
X13674651Y12727827D01*
X13674467Y12727864D01*
X13674278Y12727883D01*
X13657896Y12731141D01*
X13657716Y12731196D01*
X13657532Y12731232D01*
X13641548Y12736081D01*
X13641374Y12736153D01*
X13641196Y12736208D01*
X13625763Y12742600D01*
X13625597Y12742689D01*
X13625424Y12742760D01*
X13610692Y12750634D01*
X13610536Y12750739D01*
X13610370Y12750827D01*
X13596481Y12760107D01*
X13596336Y12760227D01*
X13596181Y12760331D01*
X13583269Y12770927D01*
X13583134Y12771061D01*
X13582990Y12771180D01*
X13571179Y12782990D01*
X13571060Y12783136D01*
X13570927Y12783269D01*
X13560332Y12796180D01*
X13560226Y12796336D01*
X13560107Y12796482D01*
X13550827Y12810370D01*
X13550739Y12810538D01*
X13550633Y12810693D01*
X13542760Y12825424D01*
X13542690Y12825597D01*
X13542599Y12825763D01*
X13536208Y12841196D01*
X13536153Y12841374D01*
X13536081Y12841548D01*
X13531232Y12857533D01*
X13531195Y12857716D01*
X13531142Y12857896D01*
X13527882Y12874278D01*
X13527864Y12874466D01*
X13527827Y12874651D01*
X13526190Y12891273D01*
Y12891461D01*
X13526172Y12891649D01*
Y12900000D01*
Y12908353D01*
X13526190Y12908540D01*
Y12908727D01*
X13527827Y12925349D01*
X13527864Y12925533D01*
X13527882Y12925722D01*
X13531142Y12942104D01*
X13531195Y12942284D01*
X13531232Y12942468D01*
X13536081Y12958452D01*
X13536153Y12958626D01*
X13536208Y12958804D01*
X13542599Y12974237D01*
X13542688Y12974403D01*
X13542760Y12974577D01*
X13550633Y12989308D01*
X13550739Y12989464D01*
X13550827Y12989630D01*
X13560107Y13003519D01*
X13560226Y13003664D01*
X13560332Y13003819D01*
X13570927Y13016731D01*
X13571062Y13016866D01*
X13571181Y13017010D01*
X13582990Y13028821D01*
X13583136Y13028940D01*
X13583269Y13029073D01*
X13596181Y13039668D01*
X13596336Y13039774D01*
X13596481Y13039893D01*
X13610370Y13049173D01*
X13610538Y13049261D01*
X13610693Y13049367D01*
X13625424Y13057240D01*
X13625597Y13057310D01*
X13625763Y13057401D01*
X13641196Y13063792D01*
X13641374Y13063847D01*
X13641548Y13063919D01*
X13657533Y13068768D01*
X13657716Y13068805D01*
X13657896Y13068858D01*
X13674278Y13072118D01*
X13674466Y13072136D01*
X13674651Y13072173D01*
X13691273Y13073810D01*
X13691461D01*
X13691649Y13073830D01*
X13708353D01*
X13708540Y13073810D01*
D02*
G37*
G36*
X608540D02*
X608727D01*
X625350Y13072173D01*
X625533Y13072136D01*
X625721Y13072118D01*
X642103Y13068858D01*
X642283Y13068805D01*
X642468Y13068768D01*
X658452Y13063919D01*
X658626Y13063847D01*
X658805Y13063792D01*
X674237Y13057401D01*
X674403Y13057312D01*
X674577Y13057240D01*
X689308Y13049367D01*
X689464Y13049261D01*
X689630Y13049173D01*
X703518Y13039893D01*
X703664Y13039774D01*
X703820Y13039668D01*
X716731Y13029073D01*
X716865Y13028938D01*
X717010Y13028821D01*
X728821Y13017010D01*
X728940Y13016864D01*
X729073Y13016731D01*
X739669Y13003819D01*
X739773Y13003665D01*
X739893Y13003519D01*
X749173Y12989630D01*
X749262Y12989462D01*
X749366Y12989308D01*
X757240Y12974577D01*
X757311Y12974403D01*
X757401Y12974237D01*
X763792Y12958804D01*
X763847Y12958626D01*
X763919Y12958452D01*
X768768Y12942468D01*
X768805Y12942284D01*
X768859Y12942104D01*
X772118Y12925722D01*
X772136Y12925534D01*
X772173Y12925349D01*
X773810Y12908727D01*
Y12908540D01*
X773829Y12908353D01*
Y12900000D01*
Y12891649D01*
X773810Y12891461D01*
Y12891273D01*
X772173Y12874651D01*
X772136Y12874467D01*
X772118Y12874278D01*
X768859Y12857896D01*
X768805Y12857716D01*
X768768Y12857532D01*
X763919Y12841548D01*
X763847Y12841374D01*
X763792Y12841196D01*
X757400Y12825763D01*
X757312Y12825597D01*
X757240Y12825424D01*
X749366Y12810692D01*
X749262Y12810536D01*
X749173Y12810370D01*
X739893Y12796482D01*
X739773Y12796337D01*
X739669Y12796180D01*
X729073Y12783269D01*
X728939Y12783135D01*
X728820Y12782990D01*
X717010Y12771179D01*
X716864Y12771060D01*
X716731Y12770927D01*
X703820Y12760331D01*
X703665Y12760227D01*
X703518Y12760107D01*
X689630Y12750827D01*
X689463Y12750738D01*
X689307Y12750634D01*
X674577Y12742760D01*
X674404Y12742689D01*
X674237Y12742600D01*
X658805Y12736208D01*
X658626Y12736153D01*
X658452Y12736081D01*
X642468Y12731232D01*
X642283Y12731196D01*
X642103Y12731141D01*
X625721Y12727883D01*
X625534Y12727864D01*
X625349Y12727827D01*
X608727Y12726190D01*
X608540D01*
X608352Y12726172D01*
X600000Y12726172D01*
X591649D01*
X591461Y12726190D01*
X591273D01*
X574651Y12727827D01*
X574467Y12727864D01*
X574279Y12727883D01*
X557897Y12731141D01*
X557717Y12731196D01*
X557532Y12731232D01*
X541548Y12736081D01*
X541374Y12736153D01*
X541195Y12736208D01*
X525763Y12742600D01*
X525597Y12742689D01*
X525424Y12742760D01*
X510692Y12750634D01*
X510536Y12750739D01*
X510370Y12750827D01*
X496482Y12760107D01*
X496337Y12760227D01*
X496180Y12760331D01*
X483269Y12770927D01*
X483135Y12771061D01*
X482990Y12771180D01*
X471179Y12782990D01*
X471060Y12783136D01*
X470927Y12783269D01*
X460331Y12796180D01*
X460227Y12796336D01*
X460107Y12796482D01*
X450827Y12810370D01*
X450738Y12810538D01*
X450634Y12810693D01*
X442760Y12825424D01*
X442689Y12825597D01*
X442600Y12825763D01*
X436208Y12841196D01*
X436153Y12841374D01*
X436081Y12841548D01*
X431232Y12857533D01*
X431195Y12857716D01*
X431141Y12857896D01*
X427883Y12874278D01*
X427864Y12874466D01*
X427827Y12874651D01*
X426190Y12891273D01*
Y12891461D01*
X426172Y12891649D01*
Y12900000D01*
Y12908353D01*
X426190Y12908540D01*
Y12908727D01*
X427827Y12925349D01*
X427864Y12925533D01*
X427883Y12925722D01*
X431141Y12942104D01*
X431195Y12942284D01*
X431232Y12942468D01*
X436081Y12958452D01*
X436153Y12958626D01*
X436208Y12958804D01*
X442600Y12974237D01*
X442688Y12974403D01*
X442760Y12974577D01*
X450634Y12989308D01*
X450738Y12989464D01*
X450827Y12989630D01*
X460107Y13003519D01*
X460227Y13003664D01*
X460331Y13003819D01*
X470927Y13016731D01*
X471061Y13016866D01*
X471180Y13017010D01*
X482990Y13028821D01*
X483136Y13028940D01*
X483269Y13029073D01*
X496180Y13039668D01*
X496336Y13039774D01*
X496482Y13039893D01*
X510370Y13049173D01*
X510537Y13049261D01*
X510693Y13049367D01*
X525424Y13057240D01*
X525597Y13057310D01*
X525763Y13057401D01*
X541195Y13063792D01*
X541374Y13063847D01*
X541548Y13063919D01*
X557533Y13068768D01*
X557717Y13068805D01*
X557897Y13068858D01*
X574279Y13072118D01*
X574466Y13072136D01*
X574651Y13072173D01*
X591273Y13073810D01*
X591461D01*
X591649Y13073830D01*
X608352D01*
X608540Y13073810D01*
D02*
G37*
G36*
X8558539Y6923810D02*
X8558727D01*
X8575349Y6922173D01*
X8575533Y6922136D01*
X8575721Y6922118D01*
X8592103Y6918859D01*
X8592283Y6918805D01*
X8592468Y6918768D01*
X8608452Y6913919D01*
X8608626Y6913847D01*
X8608805Y6913793D01*
X8624237Y6907400D01*
X8624403Y6907312D01*
X8624576Y6907240D01*
X8639308Y6899366D01*
X8639464Y6899262D01*
X8639630Y6899173D01*
X8653518Y6889893D01*
X8653663Y6889774D01*
X8653820Y6889669D01*
X8666731Y6879073D01*
X8666865Y6878940D01*
X8667010Y6878821D01*
X8678821Y6867010D01*
X8678940Y6866864D01*
X8679073Y6866732D01*
X8689669Y6853820D01*
X8689773Y6853665D01*
X8689893Y6853518D01*
X8699173Y6839630D01*
X8699262Y6839463D01*
X8699366Y6839308D01*
X8707240Y6824577D01*
X8707311Y6824404D01*
X8707400Y6824237D01*
X8713792Y6808806D01*
X8713847Y6808626D01*
X8713919Y6808452D01*
X8718768Y6792468D01*
X8718805Y6792283D01*
X8718859Y6792104D01*
X8722117Y6775721D01*
X8722136Y6775534D01*
X8722173Y6775350D01*
X8723810Y6758727D01*
Y6758540D01*
X8723828Y6758352D01*
Y6750000D01*
Y6741649D01*
X8723810Y6741461D01*
Y6741273D01*
X8722173Y6724651D01*
X8722136Y6724467D01*
X8722117Y6724279D01*
X8718859Y6707897D01*
X8718805Y6707718D01*
X8718768Y6707532D01*
X8713919Y6691548D01*
X8713847Y6691374D01*
X8713792Y6691195D01*
X8707400Y6675763D01*
X8707312Y6675597D01*
X8707240Y6675424D01*
X8699366Y6660693D01*
X8699261Y6660536D01*
X8699173Y6660370D01*
X8689893Y6646482D01*
X8689773Y6646337D01*
X8689669Y6646181D01*
X8679073Y6633269D01*
X8678939Y6633135D01*
X8678820Y6632991D01*
X8667010Y6621180D01*
X8666864Y6621060D01*
X8666731Y6620927D01*
X8653820Y6610331D01*
X8653664Y6610228D01*
X8653518Y6610107D01*
X8639630Y6600827D01*
X8639463Y6600738D01*
X8639307Y6600634D01*
X8624576Y6592760D01*
X8624403Y6592689D01*
X8624237Y6592600D01*
X8608805Y6586208D01*
X8608626Y6586153D01*
X8608452Y6586081D01*
X8592467Y6581232D01*
X8592283Y6581196D01*
X8592103Y6581141D01*
X8575721Y6577883D01*
X8575534Y6577864D01*
X8575349Y6577828D01*
X8558727Y6576191D01*
X8558539D01*
X8558351Y6576172D01*
X8550000Y6576172D01*
X8541648D01*
X8541460Y6576190D01*
X8541273D01*
X8524650Y6577828D01*
X8524467Y6577864D01*
X8524279Y6577883D01*
X8507897Y6581141D01*
X8507717Y6581196D01*
X8507532Y6581232D01*
X8491548Y6586081D01*
X8491374Y6586153D01*
X8491195Y6586208D01*
X8475763Y6592600D01*
X8475597Y6592689D01*
X8475423Y6592760D01*
X8460692Y6600634D01*
X8460536Y6600739D01*
X8460370Y6600827D01*
X8446482Y6610107D01*
X8446336Y6610227D01*
X8446180Y6610331D01*
X8433269Y6620927D01*
X8433135Y6621061D01*
X8432990Y6621180D01*
X8421179Y6632991D01*
X8421060Y6633136D01*
X8420927Y6633269D01*
X8410331Y6646181D01*
X8410227Y6646336D01*
X8410107Y6646482D01*
X8400827Y6660370D01*
X8400738Y6660538D01*
X8400634Y6660693D01*
X8392760Y6675424D01*
X8392689Y6675597D01*
X8392599Y6675763D01*
X8386208Y6691195D01*
X8386153Y6691374D01*
X8386081Y6691548D01*
X8381232Y6707533D01*
X8381195Y6707718D01*
X8381141Y6707897D01*
X8377882Y6724279D01*
X8377864Y6724466D01*
X8377827Y6724651D01*
X8376190Y6741274D01*
Y6741461D01*
X8376171Y6741649D01*
Y6750000D01*
Y6758352D01*
X8376190Y6758540D01*
Y6758727D01*
X8377827Y6775350D01*
X8377864Y6775534D01*
X8377882Y6775721D01*
X8381141Y6792104D01*
X8381195Y6792283D01*
X8381232Y6792468D01*
X8386081Y6808452D01*
X8386153Y6808626D01*
X8386208Y6808806D01*
X8392600Y6824237D01*
X8392688Y6824403D01*
X8392760Y6824577D01*
X8400634Y6839308D01*
X8400738Y6839464D01*
X8400827Y6839630D01*
X8410107Y6853518D01*
X8410227Y6853664D01*
X8410331Y6853820D01*
X8420927Y6866732D01*
X8421061Y6866865D01*
X8421179Y6867010D01*
X8432990Y6878821D01*
X8433136Y6878940D01*
X8433269Y6879073D01*
X8446180Y6889669D01*
X8446335Y6889773D01*
X8446482Y6889893D01*
X8460370Y6899173D01*
X8460537Y6899263D01*
X8460693Y6899366D01*
X8475423Y6907240D01*
X8475596Y6907312D01*
X8475763Y6907401D01*
X8491195Y6913793D01*
X8491374Y6913847D01*
X8491548Y6913919D01*
X8507532Y6918768D01*
X8507717Y6918805D01*
X8507897Y6918859D01*
X8524279Y6922118D01*
X8524466Y6922136D01*
X8524650Y6922173D01*
X8541273Y6923810D01*
X8541460D01*
X8541648Y6923829D01*
X8558351D01*
X8558539Y6923810D01*
D02*
G37*
G36*
X4914856Y4653816D02*
X4914982Y4653821D01*
X4944382Y4651893D01*
X4944506Y4651873D01*
X4944631Y4651869D01*
X4973842Y4648023D01*
X4973965Y4647995D01*
X4974089Y4647982D01*
X5002986Y4642234D01*
X5003107Y4642198D01*
X5003230Y4642177D01*
X5031689Y4634552D01*
X5031807Y4634508D01*
X5031929Y4634479D01*
X5059828Y4625009D01*
X5059942Y4624957D01*
X5060063Y4624920D01*
X5087283Y4613646D01*
X5087393Y4613587D01*
X5087511Y4613542D01*
X5113935Y4600511D01*
X5114041Y4600445D01*
X5114157Y4600393D01*
X5139672Y4585661D01*
X5139774Y4585588D01*
X5139885Y4585529D01*
X5164382Y4569160D01*
X5164480Y4569081D01*
X5164586Y4569014D01*
X5187961Y4551078D01*
X5188053Y4550992D01*
X5188154Y4550919D01*
X5210306Y4531493D01*
X5210392Y4531401D01*
X5210488Y4531322D01*
X5231322Y4510488D01*
X5231402Y4510391D01*
X5231493Y4510305D01*
X5250919Y4488154D01*
X5250993Y4488052D01*
X5251078Y4487961D01*
X5269014Y4464586D01*
X5269080Y4464480D01*
X5269160Y4464382D01*
X5285529Y4439885D01*
X5285588Y4439775D01*
X5285662Y4439672D01*
X5300393Y4414156D01*
X5300444Y4414043D01*
X5300511Y4413936D01*
X5313542Y4387511D01*
X5313586Y4387394D01*
X5313646Y4387283D01*
X5324921Y4360062D01*
X5324957Y4359942D01*
X5325009Y4359828D01*
X5334479Y4331929D01*
X5334508Y4331806D01*
X5334552Y4331689D01*
X5342178Y4303230D01*
X5342198Y4303106D01*
X5342234Y4302986D01*
X5347982Y4274089D01*
X5347995Y4273965D01*
X5348023Y4273842D01*
X5351869Y4244631D01*
X5351873Y4244506D01*
X5351894Y4244382D01*
X5353820Y4214982D01*
X5353816Y4214856D01*
X5353829Y4214731D01*
X5353829Y4200000D01*
Y4185269D01*
X5353817Y4185144D01*
X5353821Y4185018D01*
X5351894Y4155619D01*
X5351873Y4155494D01*
X5351869Y4155369D01*
X5348023Y4126158D01*
X5347995Y4126035D01*
X5347982Y4125911D01*
X5342234Y4097014D01*
X5342198Y4096894D01*
X5342178Y4096770D01*
X5334552Y4068311D01*
X5334508Y4068193D01*
X5334479Y4068071D01*
X5325009Y4040172D01*
X5324957Y4040058D01*
X5324921Y4039938D01*
X5313646Y4012717D01*
X5313587Y4012607D01*
X5313542Y4012489D01*
X5300511Y3986065D01*
X5300445Y3985959D01*
X5300393Y3985843D01*
X5285661Y3960328D01*
X5285589Y3960227D01*
X5285529Y3960115D01*
X5269160Y3935618D01*
X5269081Y3935520D01*
X5269014Y3935414D01*
X5251078Y3912039D01*
X5250992Y3911947D01*
X5250919Y3911846D01*
X5231493Y3889695D01*
X5231401Y3889608D01*
X5231322Y3889512D01*
X5210488Y3868678D01*
X5210391Y3868598D01*
X5210306Y3868507D01*
X5188154Y3849081D01*
X5188052Y3849008D01*
X5187961Y3848922D01*
X5164586Y3830986D01*
X5164480Y3830920D01*
X5164382Y3830840D01*
X5139885Y3814471D01*
X5139775Y3814412D01*
X5139672Y3814339D01*
X5114156Y3799607D01*
X5114043Y3799556D01*
X5113936Y3799489D01*
X5087511Y3786458D01*
X5087394Y3786414D01*
X5087283Y3786354D01*
X5060063Y3775080D01*
X5059942Y3775043D01*
X5059828Y3774991D01*
X5031929Y3765521D01*
X5031806Y3765492D01*
X5031689Y3765448D01*
X5003230Y3757823D01*
X5003106Y3757802D01*
X5002986Y3757766D01*
X4974089Y3752018D01*
X4973965Y3752005D01*
X4973842Y3751977D01*
X4944631Y3748131D01*
X4944506Y3748127D01*
X4944382Y3748107D01*
X4914982Y3746179D01*
X4914856Y3746184D01*
X4914731Y3746171D01*
X4885269D01*
X4885144Y3746184D01*
X4885018Y3746179D01*
X4855619Y3748107D01*
X4855494Y3748127D01*
X4855369Y3748131D01*
X4826158Y3751977D01*
X4826036Y3752005D01*
X4825911Y3752018D01*
X4797014Y3757766D01*
X4796894Y3757802D01*
X4796770Y3757823D01*
X4768311Y3765448D01*
X4768193Y3765492D01*
X4768071Y3765521D01*
X4740172Y3774991D01*
X4740058Y3775043D01*
X4739938Y3775080D01*
X4712718Y3786354D01*
X4712607Y3786413D01*
X4712489Y3786458D01*
X4686065Y3799489D01*
X4685959Y3799555D01*
X4685844Y3799607D01*
X4660328Y3814339D01*
X4660227Y3814411D01*
X4660115Y3814471D01*
X4635618Y3830840D01*
X4635521Y3830919D01*
X4635414Y3830986D01*
X4612040Y3848922D01*
X4611948Y3849008D01*
X4611846Y3849081D01*
X4589695Y3868507D01*
X4589608Y3868599D01*
X4589512Y3868678D01*
X4568678Y3889512D01*
X4568598Y3889609D01*
X4568507Y3889695D01*
X4549081Y3911846D01*
X4549008Y3911948D01*
X4548922Y3912039D01*
X4530986Y3935414D01*
X4530920Y3935520D01*
X4530840Y3935618D01*
X4514471Y3960115D01*
X4514412Y3960225D01*
X4514339Y3960328D01*
X4499607Y3985844D01*
X4499556Y3985957D01*
X4499489Y3986064D01*
X4486458Y4012489D01*
X4486414Y4012606D01*
X4486355Y4012717D01*
X4475080Y4039938D01*
X4475043Y4040058D01*
X4474992Y4040172D01*
X4465521Y4068071D01*
X4465492Y4068194D01*
X4465448Y4068311D01*
X4457823Y4096770D01*
X4457802Y4096894D01*
X4457766Y4097014D01*
X4452018Y4125911D01*
X4452006Y4126035D01*
X4451977Y4126158D01*
X4448131Y4155369D01*
X4448127Y4155494D01*
X4448107Y4155618D01*
X4446180Y4185018D01*
X4446184Y4185144D01*
X4446171Y4185269D01*
Y4200000D01*
Y4214731D01*
X4446184Y4214856D01*
X4446180Y4214982D01*
X4448107Y4244381D01*
X4448127Y4244506D01*
X4448131Y4244631D01*
X4451977Y4273842D01*
X4452006Y4273965D01*
X4452018Y4274089D01*
X4457766Y4302986D01*
X4457802Y4303106D01*
X4457823Y4303230D01*
X4465448Y4331689D01*
X4465492Y4331807D01*
X4465521Y4331929D01*
X4474992Y4359828D01*
X4475043Y4359942D01*
X4475080Y4360062D01*
X4486355Y4387283D01*
X4486413Y4387393D01*
X4486458Y4387511D01*
X4499489Y4413935D01*
X4499555Y4414041D01*
X4499607Y4414157D01*
X4514339Y4439672D01*
X4514412Y4439773D01*
X4514471Y4439885D01*
X4530840Y4464382D01*
X4530920Y4464480D01*
X4530986Y4464586D01*
X4548922Y4487961D01*
X4549008Y4488052D01*
X4549081Y4488154D01*
X4568507Y4510305D01*
X4568599Y4510392D01*
X4568678Y4510488D01*
X4589512Y4531322D01*
X4589609Y4531402D01*
X4589695Y4531493D01*
X4611846Y4550919D01*
X4611948Y4550992D01*
X4612040Y4551078D01*
X4635414Y4569014D01*
X4635520Y4569080D01*
X4635618Y4569160D01*
X4660115Y4585529D01*
X4660225Y4585588D01*
X4660328Y4585661D01*
X4685844Y4600393D01*
X4685957Y4600444D01*
X4686065Y4600511D01*
X4712489Y4613542D01*
X4712606Y4613586D01*
X4712718Y4613646D01*
X4739938Y4624920D01*
X4740058Y4624957D01*
X4740172Y4625009D01*
X4768071Y4634479D01*
X4768194Y4634508D01*
X4768311Y4634552D01*
X4796770Y4642177D01*
X4796894Y4642198D01*
X4797014Y4642234D01*
X4825911Y4647982D01*
X4826036Y4647995D01*
X4826158Y4648023D01*
X4855369Y4651869D01*
X4855494Y4651873D01*
X4855618Y4651893D01*
X4885018Y4653820D01*
X4885144Y4653816D01*
X4885269Y4653828D01*
X4900000Y4653829D01*
X4914731D01*
X4914856Y4653816D01*
D02*
G37*
G36*
X3612636Y2603815D02*
X3612773Y2603819D01*
X3637710Y2602035D01*
X3637845Y2602012D01*
X3637982Y2602006D01*
X3662728Y2598448D01*
X3662861Y2598415D01*
X3662997Y2598400D01*
X3687426Y2593085D01*
X3687558Y2593043D01*
X3687691Y2593018D01*
X3711679Y2585974D01*
X3711805Y2585923D01*
X3711938Y2585888D01*
X3735362Y2577151D01*
X3735486Y2577091D01*
X3735615Y2577047D01*
X3758356Y2566661D01*
X3758475Y2566592D01*
X3758601Y2566539D01*
X3780543Y2554557D01*
X3780656Y2554480D01*
X3780778Y2554418D01*
X3801810Y2540901D01*
X3801916Y2540817D01*
X3802034Y2540745D01*
X3822048Y2525763D01*
X3822150Y2525670D01*
X3822261Y2525592D01*
X3841155Y2509220D01*
X3841250Y2509120D01*
X3841355Y2509034D01*
X3859033Y2491355D01*
X3859120Y2491250D01*
X3859220Y2491156D01*
X3875591Y2472262D01*
X3875670Y2472150D01*
X3875763Y2472049D01*
X3890745Y2452034D01*
X3890817Y2451916D01*
X3890901Y2451810D01*
X3904417Y2430778D01*
X3904480Y2430657D01*
X3904557Y2430543D01*
X3916539Y2408601D01*
X3916592Y2408475D01*
X3916661Y2408356D01*
X3927047Y2385615D01*
X3927090Y2385486D01*
X3927151Y2385363D01*
X3935888Y2361938D01*
X3935923Y2361805D01*
X3935974Y2361679D01*
X3943018Y2337691D01*
X3943043Y2337558D01*
X3943085Y2337426D01*
X3948399Y2312997D01*
X3948415Y2312863D01*
X3948448Y2312728D01*
X3952006Y2287982D01*
X3952012Y2287845D01*
X3952035Y2287710D01*
X3953819Y2262773D01*
X3953815Y2262636D01*
X3953829Y2262500D01*
Y2237500D01*
X3953815Y2237364D01*
X3953819Y2237227D01*
X3952035Y2212290D01*
X3952012Y2212155D01*
X3952006Y2212018D01*
X3948448Y2187272D01*
X3948415Y2187139D01*
X3948400Y2187003D01*
X3943085Y2162574D01*
X3943043Y2162442D01*
X3943018Y2162309D01*
X3935974Y2138321D01*
X3935923Y2138195D01*
X3935888Y2138062D01*
X3927151Y2114638D01*
X3927091Y2114514D01*
X3927047Y2114385D01*
X3916661Y2091644D01*
X3916592Y2091525D01*
X3916539Y2091399D01*
X3904557Y2069457D01*
X3904480Y2069344D01*
X3904417Y2069222D01*
X3890901Y2048190D01*
X3890817Y2048084D01*
X3890745Y2047966D01*
X3875763Y2027951D01*
X3875670Y2027850D01*
X3875591Y2027739D01*
X3859220Y2008845D01*
X3859120Y2008750D01*
X3859033Y2008645D01*
X3841355Y1990967D01*
X3841250Y1990880D01*
X3841155Y1990780D01*
X3822261Y1974409D01*
X3822150Y1974330D01*
X3822048Y1974237D01*
X3802034Y1959255D01*
X3801916Y1959183D01*
X3801810Y1959099D01*
X3780778Y1945583D01*
X3780656Y1945520D01*
X3780543Y1945443D01*
X3758601Y1933461D01*
X3758475Y1933408D01*
X3758356Y1933339D01*
X3735615Y1922953D01*
X3735486Y1922910D01*
X3735362Y1922849D01*
X3711938Y1914112D01*
X3711805Y1914077D01*
X3711679Y1914026D01*
X3687691Y1906982D01*
X3687558Y1906957D01*
X3687426Y1906915D01*
X3662997Y1901601D01*
X3662862Y1901585D01*
X3662728Y1901552D01*
X3637982Y1897994D01*
X3637845Y1897988D01*
X3637710Y1897965D01*
X3612773Y1896181D01*
X3612636Y1896185D01*
X3612500Y1896171D01*
X1787500D01*
X1787364Y1896185D01*
X1787227Y1896181D01*
X1762290Y1897965D01*
X1762154Y1897988D01*
X1762018Y1897994D01*
X1737272Y1901552D01*
X1737139Y1901585D01*
X1737003Y1901600D01*
X1712574Y1906915D01*
X1712442Y1906957D01*
X1712309Y1906982D01*
X1688321Y1914026D01*
X1688195Y1914077D01*
X1688062Y1914112D01*
X1664638Y1922849D01*
X1664514Y1922909D01*
X1664385Y1922953D01*
X1641644Y1933339D01*
X1641525Y1933408D01*
X1641399Y1933461D01*
X1619457Y1945443D01*
X1619343Y1945520D01*
X1619222Y1945583D01*
X1598190Y1959099D01*
X1598084Y1959183D01*
X1597966Y1959255D01*
X1577951Y1974237D01*
X1577850Y1974330D01*
X1577739Y1974409D01*
X1558844Y1990780D01*
X1558750Y1990880D01*
X1558645Y1990967D01*
X1540966Y2008645D01*
X1540880Y2008750D01*
X1540780Y2008845D01*
X1524408Y2027739D01*
X1524330Y2027850D01*
X1524237Y2027951D01*
X1509255Y2047966D01*
X1509183Y2048084D01*
X1509099Y2048190D01*
X1495582Y2069222D01*
X1495520Y2069344D01*
X1495443Y2069457D01*
X1483461Y2091399D01*
X1483408Y2091525D01*
X1483339Y2091644D01*
X1472953Y2114385D01*
X1472909Y2114514D01*
X1472849Y2114638D01*
X1464112Y2138062D01*
X1464077Y2138195D01*
X1464026Y2138321D01*
X1456982Y2162309D01*
X1456957Y2162442D01*
X1456915Y2162574D01*
X1451601Y2187003D01*
X1451585Y2187138D01*
X1451552Y2187272D01*
X1447994Y2212018D01*
X1447988Y2212155D01*
X1447965Y2212290D01*
X1446181Y2237227D01*
X1446185Y2237364D01*
X1446171Y2237500D01*
Y2262500D01*
X1446185Y2262636D01*
X1446181Y2262773D01*
X1447965Y2287710D01*
X1447988Y2287846D01*
X1447994Y2287982D01*
X1451552Y2312728D01*
X1451585Y2312861D01*
X1451600Y2312997D01*
X1456915Y2337426D01*
X1456957Y2337558D01*
X1456982Y2337691D01*
X1464026Y2361679D01*
X1464077Y2361805D01*
X1464112Y2361938D01*
X1472849Y2385363D01*
X1472909Y2385486D01*
X1472953Y2385615D01*
X1483339Y2408356D01*
X1483408Y2408475D01*
X1483461Y2408601D01*
X1495443Y2430543D01*
X1495520Y2430657D01*
X1495582Y2430778D01*
X1509099Y2451810D01*
X1509183Y2451916D01*
X1509255Y2452034D01*
X1524237Y2472049D01*
X1524330Y2472151D01*
X1524408Y2472262D01*
X1540780Y2491156D01*
X1540880Y2491250D01*
X1540966Y2491355D01*
X1558645Y2509034D01*
X1558750Y2509120D01*
X1558844Y2509220D01*
X1577739Y2525592D01*
X1577850Y2525670D01*
X1577951Y2525763D01*
X1597966Y2540745D01*
X1598084Y2540817D01*
X1598190Y2540901D01*
X1619222Y2554418D01*
X1619343Y2554480D01*
X1619457Y2554557D01*
X1641399Y2566539D01*
X1641525Y2566592D01*
X1641644Y2566661D01*
X1664385Y2577047D01*
X1664514Y2577091D01*
X1664638Y2577151D01*
X1688062Y2585888D01*
X1688195Y2585923D01*
X1688321Y2585974D01*
X1712309Y2593018D01*
X1712442Y2593043D01*
X1712574Y2593085D01*
X1737003Y2598399D01*
X1737137Y2598415D01*
X1737272Y2598448D01*
X1762018Y2602006D01*
X1762155Y2602012D01*
X1762290Y2602035D01*
X1787227Y2603819D01*
X1787364Y2603815D01*
X1787500Y2603829D01*
X3612500D01*
X3612636Y2603815D01*
D02*
G37*
G36*
X13708540Y773810D02*
X13708727D01*
X13725349Y772173D01*
X13725533Y772136D01*
X13725722Y772118D01*
X13742104Y768859D01*
X13742284Y768805D01*
X13742468Y768768D01*
X13758452Y763919D01*
X13758626Y763847D01*
X13758804Y763792D01*
X13774237Y757400D01*
X13774403Y757312D01*
X13774576Y757240D01*
X13789308Y749366D01*
X13789464Y749262D01*
X13789630Y749173D01*
X13803519Y739893D01*
X13803664Y739773D01*
X13803819Y739669D01*
X13816731Y729073D01*
X13816866Y728939D01*
X13817010Y728820D01*
X13828821Y717010D01*
X13828940Y716864D01*
X13829073Y716731D01*
X13839668Y703820D01*
X13839774Y703665D01*
X13839893Y703518D01*
X13849173Y689630D01*
X13849261Y689463D01*
X13849367Y689307D01*
X13857240Y674577D01*
X13857310Y674404D01*
X13857401Y674237D01*
X13863792Y658805D01*
X13863847Y658626D01*
X13863919Y658452D01*
X13868768Y642468D01*
X13868805Y642283D01*
X13868858Y642103D01*
X13872118Y625721D01*
X13872136Y625534D01*
X13872173Y625350D01*
X13873810Y608727D01*
Y608540D01*
X13873828Y608352D01*
Y600000D01*
Y591649D01*
X13873810Y591461D01*
Y591273D01*
X13872173Y574651D01*
X13872136Y574467D01*
X13872118Y574279D01*
X13868858Y557897D01*
X13868805Y557717D01*
X13868768Y557532D01*
X13863919Y541548D01*
X13863847Y541374D01*
X13863792Y541195D01*
X13857401Y525763D01*
X13857312Y525597D01*
X13857240Y525424D01*
X13849367Y510692D01*
X13849261Y510536D01*
X13849173Y510370D01*
X13839893Y496482D01*
X13839774Y496337D01*
X13839668Y496180D01*
X13829073Y483269D01*
X13828938Y483135D01*
X13828819Y482990D01*
X13817010Y471179D01*
X13816864Y471060D01*
X13816731Y470927D01*
X13803819Y460331D01*
X13803665Y460227D01*
X13803519Y460107D01*
X13789630Y450827D01*
X13789462Y450738D01*
X13789307Y450634D01*
X13774576Y442760D01*
X13774403Y442689D01*
X13774237Y442600D01*
X13758804Y436208D01*
X13758626Y436153D01*
X13758452Y436081D01*
X13742468Y431232D01*
X13742284Y431195D01*
X13742104Y431141D01*
X13725722Y427883D01*
X13725534Y427864D01*
X13725349Y427827D01*
X13708727Y426190D01*
X13708540D01*
X13708353Y426172D01*
X13700000Y426172D01*
X13691649D01*
X13691461Y426190D01*
X13691273D01*
X13674651Y427827D01*
X13674467Y427864D01*
X13674278Y427883D01*
X13657896Y431141D01*
X13657716Y431195D01*
X13657532Y431232D01*
X13641548Y436081D01*
X13641374Y436153D01*
X13641196Y436208D01*
X13625763Y442600D01*
X13625597Y442688D01*
X13625424Y442760D01*
X13610692Y450634D01*
X13610536Y450738D01*
X13610370Y450827D01*
X13596481Y460107D01*
X13596336Y460227D01*
X13596181Y460331D01*
X13583269Y470927D01*
X13583134Y471061D01*
X13582990Y471180D01*
X13571179Y482990D01*
X13571060Y483136D01*
X13570927Y483269D01*
X13560332Y496180D01*
X13560226Y496336D01*
X13560107Y496482D01*
X13550827Y510370D01*
X13550739Y510537D01*
X13550633Y510693D01*
X13542760Y525424D01*
X13542690Y525597D01*
X13542599Y525763D01*
X13536208Y541195D01*
X13536153Y541374D01*
X13536081Y541548D01*
X13531232Y557533D01*
X13531195Y557717D01*
X13531142Y557897D01*
X13527882Y574279D01*
X13527864Y574466D01*
X13527827Y574651D01*
X13526190Y591273D01*
Y591461D01*
X13526172Y591649D01*
Y600000D01*
Y608352D01*
X13526190Y608540D01*
Y608727D01*
X13527827Y625350D01*
X13527864Y625533D01*
X13527882Y625721D01*
X13531142Y642103D01*
X13531195Y642283D01*
X13531232Y642468D01*
X13536081Y658452D01*
X13536153Y658626D01*
X13536208Y658805D01*
X13542599Y674237D01*
X13542688Y674403D01*
X13542760Y674577D01*
X13550633Y689308D01*
X13550739Y689464D01*
X13550827Y689630D01*
X13560107Y703518D01*
X13560226Y703664D01*
X13560332Y703820D01*
X13570927Y716731D01*
X13571062Y716865D01*
X13571181Y717010D01*
X13582990Y728821D01*
X13583136Y728940D01*
X13583269Y729073D01*
X13596181Y739669D01*
X13596336Y739773D01*
X13596481Y739893D01*
X13610370Y749173D01*
X13610538Y749262D01*
X13610693Y749366D01*
X13625424Y757240D01*
X13625597Y757311D01*
X13625763Y757401D01*
X13641196Y763792D01*
X13641374Y763847D01*
X13641548Y763919D01*
X13657533Y768768D01*
X13657716Y768805D01*
X13657896Y768859D01*
X13674278Y772118D01*
X13674466Y772136D01*
X13674651Y772173D01*
X13691273Y773810D01*
X13691461D01*
X13691649Y773829D01*
X13708353D01*
X13708540Y773810D01*
D02*
G37*
G36*
X608540D02*
X608727D01*
X625350Y772173D01*
X625533Y772136D01*
X625721Y772118D01*
X642103Y768859D01*
X642283Y768805D01*
X642468Y768768D01*
X658452Y763919D01*
X658626Y763847D01*
X658805Y763792D01*
X674237Y757400D01*
X674403Y757312D01*
X674577Y757240D01*
X689308Y749366D01*
X689464Y749262D01*
X689630Y749173D01*
X703518Y739893D01*
X703664Y739773D01*
X703820Y739669D01*
X716731Y729073D01*
X716865Y728939D01*
X717010Y728820D01*
X728821Y717010D01*
X728940Y716864D01*
X729073Y716731D01*
X739669Y703820D01*
X739773Y703665D01*
X739893Y703518D01*
X749173Y689630D01*
X749262Y689463D01*
X749366Y689307D01*
X757240Y674577D01*
X757311Y674404D01*
X757401Y674237D01*
X763792Y658805D01*
X763847Y658626D01*
X763919Y658452D01*
X768768Y642468D01*
X768805Y642283D01*
X768859Y642103D01*
X772118Y625721D01*
X772136Y625534D01*
X772173Y625350D01*
X773810Y608727D01*
Y608540D01*
X773829Y608352D01*
Y600000D01*
Y591649D01*
X773810Y591461D01*
Y591273D01*
X772173Y574651D01*
X772136Y574467D01*
X772118Y574279D01*
X768859Y557897D01*
X768805Y557717D01*
X768768Y557532D01*
X763919Y541548D01*
X763847Y541374D01*
X763792Y541195D01*
X757400Y525763D01*
X757312Y525597D01*
X757240Y525424D01*
X749366Y510692D01*
X749262Y510536D01*
X749173Y510370D01*
X739893Y496482D01*
X739773Y496337D01*
X739669Y496180D01*
X729073Y483269D01*
X728939Y483135D01*
X728820Y482990D01*
X717010Y471179D01*
X716864Y471060D01*
X716731Y470927D01*
X703820Y460331D01*
X703665Y460227D01*
X703518Y460107D01*
X689630Y450827D01*
X689463Y450738D01*
X689307Y450634D01*
X674577Y442760D01*
X674404Y442689D01*
X674237Y442600D01*
X658805Y436208D01*
X658626Y436153D01*
X658452Y436081D01*
X642468Y431232D01*
X642283Y431195D01*
X642103Y431141D01*
X625721Y427883D01*
X625534Y427864D01*
X625349Y427827D01*
X608727Y426190D01*
X608540D01*
X608352Y426172D01*
X600000Y426172D01*
X591649D01*
X591461Y426190D01*
X591273D01*
X574651Y427827D01*
X574467Y427864D01*
X574279Y427883D01*
X557897Y431141D01*
X557717Y431195D01*
X557532Y431232D01*
X541548Y436081D01*
X541374Y436153D01*
X541195Y436208D01*
X525763Y442600D01*
X525597Y442688D01*
X525424Y442760D01*
X510692Y450634D01*
X510536Y450738D01*
X510370Y450827D01*
X496482Y460107D01*
X496337Y460227D01*
X496180Y460331D01*
X483269Y470927D01*
X483135Y471061D01*
X482990Y471180D01*
X471179Y482990D01*
X471060Y483136D01*
X470927Y483269D01*
X460331Y496180D01*
X460227Y496336D01*
X460107Y496482D01*
X450827Y510370D01*
X450738Y510537D01*
X450634Y510693D01*
X442760Y525424D01*
X442689Y525597D01*
X442600Y525763D01*
X436208Y541195D01*
X436153Y541374D01*
X436081Y541548D01*
X431232Y557533D01*
X431195Y557717D01*
X431141Y557897D01*
X427883Y574279D01*
X427864Y574466D01*
X427827Y574651D01*
X426190Y591273D01*
Y591461D01*
X426172Y591649D01*
Y600000D01*
Y608352D01*
X426190Y608540D01*
Y608727D01*
X427827Y625350D01*
X427864Y625533D01*
X427883Y625721D01*
X431141Y642103D01*
X431195Y642283D01*
X431232Y642468D01*
X436081Y658452D01*
X436153Y658626D01*
X436208Y658805D01*
X442600Y674237D01*
X442688Y674403D01*
X442760Y674577D01*
X450634Y689308D01*
X450738Y689464D01*
X450827Y689630D01*
X460107Y703518D01*
X460227Y703664D01*
X460331Y703820D01*
X470927Y716731D01*
X471061Y716865D01*
X471180Y717010D01*
X482990Y728821D01*
X483136Y728940D01*
X483269Y729073D01*
X496180Y739669D01*
X496336Y739773D01*
X496482Y739893D01*
X510370Y749173D01*
X510537Y749262D01*
X510693Y749366D01*
X525424Y757240D01*
X525597Y757311D01*
X525763Y757401D01*
X541195Y763792D01*
X541374Y763847D01*
X541548Y763919D01*
X557533Y768768D01*
X557717Y768805D01*
X557897Y768859D01*
X574279Y772118D01*
X574466Y772136D01*
X574651Y772173D01*
X591273Y773810D01*
X591461D01*
X591649Y773829D01*
X608352D01*
X608540Y773810D01*
D02*
G37*
D29*
X10187460Y11016030D02*
D03*
Y11165650D02*
D03*
Y10901490D02*
D03*
Y10751870D02*
D03*
X4986020Y3166230D02*
D03*
Y3315850D02*
D03*
X5133340Y3166230D02*
D03*
Y3315850D02*
D03*
X5468620Y1703190D02*
D03*
Y1852810D02*
D03*
X9621040Y11965990D02*
D03*
Y12115610D02*
D03*
X10037600Y10718610D02*
D03*
Y10568990D02*
D03*
X9890280Y10718610D02*
D03*
Y10568990D02*
D03*
X9153680Y10716070D02*
D03*
Y10566450D02*
D03*
X9301000Y10716070D02*
D03*
Y10566450D02*
D03*
X9448320Y10716070D02*
D03*
Y10566450D02*
D03*
X9595640Y10716070D02*
D03*
Y10566450D02*
D03*
X9742960Y10716070D02*
D03*
Y10566450D02*
D03*
X10063000Y11971070D02*
D03*
Y12120690D02*
D03*
X9768360Y11968530D02*
D03*
Y12118150D02*
D03*
X9915680Y11969920D02*
D03*
Y12119540D02*
D03*
X5318760Y2022990D02*
D03*
Y1873370D02*
D03*
X4838700Y3166230D02*
D03*
Y3315850D02*
D03*
X5021580Y1873370D02*
D03*
Y2022990D02*
D03*
X4874260Y1873370D02*
D03*
Y2022990D02*
D03*
X5168900Y1873370D02*
D03*
Y2022990D02*
D03*
X5427980Y3315850D02*
D03*
Y3166230D02*
D03*
X5280660Y3315850D02*
D03*
Y3166230D02*
D03*
X1049020Y1913770D02*
D03*
Y1764150D02*
D03*
X858520Y2676010D02*
D03*
Y2825630D02*
D03*
X635000Y2676010D02*
D03*
Y2825630D02*
D03*
X5128260Y6803270D02*
D03*
Y6653650D02*
D03*
D42*
X9106570Y11558200D02*
D03*
X8956950D02*
D03*
X9106570Y11410880D02*
D03*
X8956950D02*
D03*
Y11263560D02*
D03*
X9106570D02*
D03*
X8956950Y11116240D02*
D03*
X9106570D02*
D03*
X10171070Y11446440D02*
D03*
X10320690D02*
D03*
X10172220Y11296580D02*
D03*
X10321840D02*
D03*
X4687450Y7188200D02*
D03*
X4537830D02*
D03*
X4331850Y2824480D02*
D03*
X4182230D02*
D03*
X4545450Y2529840D02*
D03*
X4695070D02*
D03*
X5614790Y2420620D02*
D03*
X5764410D02*
D03*
X4545450Y3119120D02*
D03*
X4695070D02*
D03*
X5764410Y1978660D02*
D03*
X5614790D02*
D03*
X10171070Y11596300D02*
D03*
X10320690D02*
D03*
X8956950Y11705520D02*
D03*
X9106570D02*
D03*
X9012590Y10968920D02*
D03*
X8862970D02*
D03*
X8842410Y11705520D02*
D03*
X8692790D02*
D03*
X9012590Y10821600D02*
D03*
X8862970D02*
D03*
X9012590Y10674280D02*
D03*
X8862970D02*
D03*
X4687450Y7040880D02*
D03*
X4537830D02*
D03*
X5614790Y2125980D02*
D03*
X5764410D02*
D03*
X5614790Y2273300D02*
D03*
X5764410D02*
D03*
X5614790Y2862580D02*
D03*
X5764410D02*
D03*
X4695070Y2824480D02*
D03*
X4545450D02*
D03*
X4695070Y2677160D02*
D03*
X4545450D02*
D03*
X5764410Y2567940D02*
D03*
X5614790D02*
D03*
X4545450Y2235200D02*
D03*
X4695070D02*
D03*
X5764410Y2715260D02*
D03*
X5614790D02*
D03*
X4545450Y2382520D02*
D03*
X4695070D02*
D03*
X5764410Y3009900D02*
D03*
X5614790D02*
D03*
X4695070Y2971800D02*
D03*
X4545450D02*
D03*
X530860Y1805940D02*
D03*
X381240D02*
D03*
X4687450Y6893560D02*
D03*
X4537830D02*
D03*
D61*
X12486380Y12935699D02*
D03*
X13659860Y9317240D02*
D03*
X1360000Y3069000D02*
D03*
X8625580Y9317240D02*
D03*
X9632436D02*
D03*
X10639292D02*
D03*
X11646148D02*
D03*
X12653004D02*
D03*
D62*
X11961380Y12712700D02*
D03*
X12311380D02*
D03*
X12661380D02*
D03*
X13834860Y9540240D02*
D03*
X13484860D02*
D03*
X1535000Y3292000D02*
D03*
X1185000D02*
D03*
X8450580Y9540240D02*
D03*
X8800580D02*
D03*
X9807436D02*
D03*
X9457436D02*
D03*
X10464292D02*
D03*
X10814292D02*
D03*
X11821148D02*
D03*
X11471148D02*
D03*
X12478004D02*
D03*
X12828004D02*
D03*
D63*
X1306000Y11831000D02*
D03*
X3307000Y3308000D02*
D03*
X3050000Y11831000D02*
D03*
X10500360Y12692380D02*
D03*
X9192260D02*
D03*
D64*
X1931000Y11965000D02*
D03*
X1681000D02*
D03*
X1431000D02*
D03*
X1181000D02*
D03*
X931000D02*
D03*
X681000D02*
D03*
X2682000Y3174000D02*
D03*
X2932000D02*
D03*
X3182000D02*
D03*
X3432000D02*
D03*
X3682000D02*
D03*
X2675000Y11965000D02*
D03*
X2925000D02*
D03*
X3175000D02*
D03*
X3425000D02*
D03*
X10875360Y12826379D02*
D03*
X10625360D02*
D03*
X10375360D02*
D03*
X9317260D02*
D03*
X9067260D02*
D03*
D70*
X862000Y2508000D02*
D03*
X642000D02*
D03*
Y1998000D02*
D03*
X862000D02*
D03*
D74*
X6736080Y12208630D02*
D03*
Y12784970D02*
D03*
D107*
X4870300Y2569960D02*
D03*
Y2619960D02*
D03*
Y2669960D02*
D03*
X5260300Y2569960D02*
D03*
Y2619960D02*
D03*
Y2669960D02*
D03*
Y2719960D02*
D03*
D108*
X4965300Y2864960D02*
D03*
X5015300D02*
D03*
X5065300D02*
D03*
X5115300D02*
D03*
X5165300D02*
D03*
D114*
X4852052Y6942974D02*
D03*
Y7037974D02*
D03*
Y7132974D02*
D03*
X5103052Y6942974D02*
D03*
Y7132974D02*
D03*
Y7037974D02*
D03*
D115*
X1122680Y13208000D02*
D03*
X330200Y4211320D02*
D03*
X13949680D02*
D03*
D116*
X13058141Y3368040D02*
D03*
X5577840Y4485640D02*
D03*
X5989320D02*
D03*
X7274560Y8001000D02*
D03*
X5544820Y7053580D02*
D03*
X6512560Y5859780D02*
D03*
X7675880Y3939540D02*
D03*
X5044440Y8806180D02*
D03*
X1300480Y439420D02*
D03*
X1841500Y426720D02*
D03*
X9545320Y3957320D02*
D03*
X13060680Y3017520D02*
D03*
D117*
X2550160Y581660D02*
D03*
X2677160Y454660D02*
D03*
X2804160Y581660D02*
D03*
Y454660D02*
D03*
X2931160Y581660D02*
D03*
X2677160D02*
D03*
X2931160Y454660D02*
D03*
X3058160D02*
D03*
Y581660D02*
D03*
D118*
X2550160Y454660D02*
D03*
D119*
X10507980Y220980D02*
D03*
X10253980D02*
D03*
X6906260Y1127760D02*
D03*
X6652260D02*
D03*
D120*
X5374500Y12545060D02*
D03*
X5039500D02*
D03*
D121*
X4870300Y2719960D02*
D03*
Y2769960D02*
D03*
X5260300D02*
D03*
D122*
X5165300Y2474960D02*
D03*
X5115300D02*
D03*
X5065300D02*
D03*
X5015300D02*
D03*
X4965300D02*
D03*
D123*
X5065300Y2669960D02*
D03*
D124*
X9848120Y11027440D02*
D03*
X9798120D02*
D03*
X9748120D02*
D03*
X9698120D02*
D03*
X9848120Y11507440D02*
D03*
X9798120D02*
D03*
X9748120D02*
D03*
X9698120D02*
D03*
X9648120D02*
D03*
X9598120D02*
D03*
X9548120Y11027440D02*
D03*
X9598120D02*
D03*
X9648120D02*
D03*
X9898120Y11507440D02*
D03*
Y11027440D02*
D03*
X9548120Y11507440D02*
D03*
D125*
X9963120Y11092440D02*
D03*
Y11142440D02*
D03*
Y11192440D02*
D03*
Y11242440D02*
D03*
Y11442440D02*
D03*
X9483120D02*
D03*
Y11392440D02*
D03*
Y11192440D02*
D03*
Y11142440D02*
D03*
Y11092440D02*
D03*
X9963120Y11392440D02*
D03*
Y11292440D02*
D03*
Y11342440D02*
D03*
X9483120D02*
D03*
Y11292440D02*
D03*
Y11242440D02*
D03*
D126*
X9723120Y11267440D02*
D03*
D127*
X7482440Y8514080D02*
D03*
X8067440D02*
D03*
X7330840Y9075420D02*
D03*
X6745840D02*
D03*
X7333380Y9672320D02*
D03*
X6748380D02*
D03*
X7330840Y10274300D02*
D03*
X6745840D02*
D03*
X7479900Y10858500D02*
D03*
X8064900D02*
D03*
X7482440Y10261600D02*
D03*
X8067440D02*
D03*
X7482440Y9667240D02*
D03*
X8067440D02*
D03*
X7484980Y9070340D02*
D03*
X8069980D02*
D03*
D128*
X5146040Y10826220D02*
D03*
Y11236220D02*
D03*
X5128260Y10154920D02*
D03*
Y9744920D02*
D03*
D129*
X8537680Y10200640D02*
D03*
X8947680D02*
D03*
X8911060Y12306300D02*
D03*
X9321060D02*
D03*
%TF.MD5,c4610a63d1c2f82610ff03ad9daa5944*%
M02*
