%TF.GenerationSoftware,Altium Limited,Altium Designer,26.2.0 (7)*%
G04 Layer_Color=0*
%FSLAX45Y45*%
%MOMM*%
%TF.SameCoordinates,5567E761-9546-4A85-A6DF-5BC1022D79F0*%
%TF.FilePolarity,Positive*%
%TF.FileFunction,Plated,1,8,PTH,Drill*%
%TF.Part,Single*%
G01*
G75*
%TA.AperFunction,ComponentDrill*%
%ADD145C,1.60000*%
%ADD146C,0.71120*%
%ADD147C,1.00000*%
%ADD148C,1.06680*%
%ADD149C,1.24460*%
%ADD150C,1.60000*%
%TA.AperFunction,ViaDrill,NotFilled*%
%ADD151C,0.25400*%
D145*
X13058141Y3368040D02*
D03*
X5577840Y4485640D02*
D03*
X5989320D02*
D03*
X7274560Y8001000D02*
D03*
X5044440Y8806180D02*
D03*
X1300480Y439420D02*
D03*
X1841500Y426720D02*
D03*
X9545320Y3957320D02*
D03*
X13060680Y3017520D02*
D03*
D146*
X2550160Y581660D02*
D03*
Y454660D02*
D03*
X2677160D02*
D03*
X2804160Y581660D02*
D03*
Y454660D02*
D03*
X2931160Y581660D02*
D03*
X2677160D02*
D03*
X2931160Y454660D02*
D03*
X3058160D02*
D03*
Y581660D02*
D03*
D147*
X10507980Y220980D02*
D03*
X10253980D02*
D03*
X6906260Y1127760D02*
D03*
X6652260D02*
D03*
D148*
X11961380Y12712700D02*
D03*
X12311380D02*
D03*
X12661380D02*
D03*
X13834860Y9540240D02*
D03*
X13484860D02*
D03*
X1535000Y3292000D02*
D03*
X1185000D02*
D03*
X8450580Y9540240D02*
D03*
X8800580D02*
D03*
X9807436D02*
D03*
X9457436D02*
D03*
X10464292D02*
D03*
X10814292D02*
D03*
X11821148D02*
D03*
X11471148D02*
D03*
X12478004D02*
D03*
X12828004D02*
D03*
D149*
X1931000Y11965000D02*
D03*
X1681000D02*
D03*
X1431000D02*
D03*
X1181000D02*
D03*
X931000D02*
D03*
X681000D02*
D03*
X2682000Y3174000D02*
D03*
X2932000D02*
D03*
X3182000D02*
D03*
X3432000D02*
D03*
X3682000D02*
D03*
X2675000Y11965000D02*
D03*
X2925000D02*
D03*
X3175000D02*
D03*
X3425000D02*
D03*
X10875360Y12826379D02*
D03*
X10625360D02*
D03*
X10375360D02*
D03*
X9317260D02*
D03*
X9067260D02*
D03*
D150*
X5544820Y7053580D02*
D03*
X6512560Y5859780D02*
D03*
X7675880Y3939540D02*
D03*
D151*
X4749800Y2537460D02*
D03*
X13520419Y10774680D02*
D03*
X12750800Y10690860D02*
D03*
X12880341Y11206480D02*
D03*
X12738100Y10840720D02*
D03*
X12712700Y10777220D02*
D03*
X10997290Y11274150D02*
D03*
X10911840Y10815320D02*
D03*
Y10741660D02*
D03*
X13002260Y4155440D02*
D03*
X13347701Y3873500D02*
D03*
X12730480Y10541000D02*
D03*
X12745720Y2524760D02*
D03*
X13602930Y10951170D02*
D03*
X13345160Y3975100D02*
D03*
X12999719Y4264660D02*
D03*
X12740640Y2232660D02*
D03*
X13686909Y10767060D02*
D03*
X11866310Y10872710D02*
D03*
X12110720Y3423920D02*
D03*
X12285980Y3202940D02*
D03*
X12235180Y2413000D02*
D03*
X10772140Y3853180D02*
D03*
X11835344Y3820494D02*
D03*
X13174980Y2219960D02*
D03*
X13131799Y1607820D02*
D03*
X12736950Y837529D02*
D03*
X12641340Y741920D02*
D03*
X11973560Y1038860D02*
D03*
X11239500Y500380D02*
D03*
X10162540Y789940D02*
D03*
X10614660Y749300D02*
D03*
X9956800Y3375660D02*
D03*
X9316720Y2877820D02*
D03*
X5115560Y12984480D02*
D03*
X9216320Y11116240D02*
D03*
X1640840Y10142220D02*
D03*
X5943600Y8952470D02*
D03*
X9298940Y2131060D02*
D03*
X9306560Y1821180D02*
D03*
X9304020Y1529080D02*
D03*
X6446520Y2006600D02*
D03*
X7966240Y1985480D02*
D03*
X1153160Y1765300D02*
D03*
X7754620Y830580D02*
D03*
X8064500Y228600D02*
D03*
X13002260Y4048760D02*
D03*
X13428979Y3741420D02*
D03*
X12743180Y2379980D02*
D03*
X12719090Y10953710D02*
D03*
X13594080Y10538460D02*
D03*
X12740640Y2674620D02*
D03*
X9067800Y2032000D02*
D03*
X6451600Y5359725D02*
D03*
X7162800Y6004560D02*
D03*
X8399780Y3556000D02*
D03*
X7518400Y5859780D02*
D03*
X8234680Y4229100D02*
D03*
X5604800Y9284400D02*
D03*
X6477000Y7744460D02*
D03*
X6167120Y8079740D02*
D03*
X7948026Y7483206D02*
D03*
X8153400Y9169400D02*
D03*
X8234680Y9227820D02*
D03*
Y8997527D02*
D03*
X8153400Y8938260D02*
D03*
X10576560Y10507980D02*
D03*
X10093960Y3713480D02*
D03*
X11021060Y3987800D02*
D03*
X10368160Y3992760D02*
D03*
X5836920Y2423160D02*
D03*
X8234680Y8882380D02*
D03*
X10028494Y3454834D02*
D03*
X7957820Y4940300D02*
D03*
X7655560Y1965960D02*
D03*
X5118100Y2626360D02*
D03*
X5026660Y2720340D02*
D03*
X4696460Y3205480D02*
D03*
X7655560Y2054860D02*
D03*
X8790940Y10678160D02*
D03*
X8234680Y9112673D02*
D03*
X7015480Y2306320D02*
D03*
X7744460Y2054860D02*
D03*
X10158850Y638930D02*
D03*
X9094590Y2966720D02*
D03*
X9718030Y1879610D02*
D03*
X13383260Y11508740D02*
D03*
X13129871Y11020260D02*
D03*
X13036121D02*
D03*
X13223621D02*
D03*
X13911580Y10995660D02*
D03*
X13129770Y10926840D02*
D03*
X13222479D02*
D03*
X13037061Y10926839D02*
D03*
X12905740Y11503660D02*
D03*
X12080240Y11112500D02*
D03*
X11322150Y11010340D02*
D03*
X11415900D02*
D03*
X11322050Y10916920D02*
D03*
X13222479Y10835400D02*
D03*
Y10743960D02*
D03*
X13129770Y10835400D02*
D03*
X13037061Y10836246D02*
D03*
Y10745653D02*
D03*
X13129770Y10743960D02*
D03*
Y10652520D02*
D03*
X13037061Y10655060D02*
D03*
X13914120Y10538460D02*
D03*
X13222479Y10652520D02*
D03*
X12402820Y10845800D02*
D03*
X11414760Y10916920D02*
D03*
Y10825480D02*
D03*
X11322050D02*
D03*
X11414760Y10734040D02*
D03*
X11322050D02*
D03*
X12087860Y10637520D02*
D03*
X12410440Y10541000D02*
D03*
X11322050Y10642600D02*
D03*
X11414760D02*
D03*
X11005820Y11424920D02*
D03*
X9913620Y12194540D02*
D03*
X9767993Y11394440D02*
D03*
X10403840Y11295380D02*
D03*
X9855200Y11309773D02*
D03*
Y11225107D02*
D03*
Y11140440D02*
D03*
Y11394440D02*
D03*
X9767993Y11309773D02*
D03*
X9680787Y11311466D02*
D03*
Y11228493D02*
D03*
X9767993Y11225107D02*
D03*
Y11140440D02*
D03*
X9680787Y11145520D02*
D03*
X9593580Y11394440D02*
D03*
X9680787Y11394439D02*
D03*
X8877300Y11564620D02*
D03*
X9593580Y11309773D02*
D03*
Y11225107D02*
D03*
Y11140440D02*
D03*
X8877300Y11117580D02*
D03*
X11228400Y11010340D02*
D03*
X11229340Y10916919D02*
D03*
X10576560Y10972800D02*
D03*
X11229340Y10735733D02*
D03*
Y10645140D02*
D03*
Y10826326D02*
D03*
X7774940Y8209280D02*
D03*
X13486360Y2665960D02*
D03*
X11859260Y4003040D02*
D03*
X11978640Y3576320D02*
D03*
X11973560Y3083560D02*
D03*
X12237720Y1818640D02*
D03*
X11991340Y2377440D02*
D03*
X10673080Y3449320D02*
D03*
X12626340Y1348740D02*
D03*
X11879580Y1178560D02*
D03*
X12956540Y1008380D02*
D03*
X12237720Y284480D02*
D03*
X11071860Y1160780D02*
D03*
X10673080Y1155700D02*
D03*
X11750040Y510540D02*
D03*
X11386820Y500380D02*
D03*
X10853420Y530860D02*
D03*
X9720580Y2529840D02*
D03*
X9715500Y2829560D02*
D03*
X9710420Y2230120D02*
D03*
X7772400Y2847340D02*
D03*
X9972040Y1153160D02*
D03*
X8303260Y2100580D02*
D03*
X7744460Y1965960D02*
D03*
X8110220Y1379220D02*
D03*
X8056880Y523240D02*
D03*
X7814056Y1377696D02*
D03*
X6916420Y12951460D02*
D03*
X6794500Y12832080D02*
D03*
Y12951460D02*
D03*
X6916420Y12832080D02*
D03*
X6672580Y12951460D02*
D03*
Y12832080D02*
D03*
X6550660Y12951460D02*
D03*
Y12832080D02*
D03*
X5385080Y9286240D02*
D03*
X5303520Y12984480D02*
D03*
X6129020Y8387080D02*
D03*
X7411720Y7396480D02*
D03*
Y6893560D02*
D03*
X7406640Y6718300D02*
D03*
X7409180Y6553200D02*
D03*
X7416800Y6220460D02*
D03*
X7045960Y7007860D02*
D03*
X6743700Y7005320D02*
D03*
X5201920Y7208520D02*
D03*
X7063560Y6279060D02*
D03*
X6738620Y6278880D02*
D03*
X5807476Y5619236D02*
D03*
X4315460Y11158220D02*
D03*
X4042410Y10474960D02*
D03*
X4147820D02*
D03*
X3822700Y11206480D02*
D03*
X3831590Y10474960D02*
D03*
X3937000D02*
D03*
X3726180D02*
D03*
X4147820Y10365740D02*
D03*
X4042410Y10256520D02*
D03*
X4147820D02*
D03*
X4042410Y10365740D02*
D03*
X3937000Y10363200D02*
D03*
X3726180Y10365740D02*
D03*
X3831590D02*
D03*
Y10256520D02*
D03*
X3937000D02*
D03*
X3726180D02*
D03*
X2976880Y11399520D02*
D03*
X474980Y10675620D02*
D03*
X2379980Y10584180D02*
D03*
X1640840Y10447020D02*
D03*
X4719320Y7526020D02*
D03*
X4721860Y7383780D02*
D03*
X5021580Y6619240D02*
D03*
X1254760Y10172700D02*
D03*
X4709160Y6621780D02*
D03*
X4467860Y6125170D02*
D03*
X4396740Y6664960D02*
D03*
X7007860Y5346700D02*
D03*
X7005320Y5204460D02*
D03*
X7518400Y5092700D02*
D03*
X7327900Y2847340D02*
D03*
X6852920Y4145280D02*
D03*
X5877560Y5481320D02*
D03*
X6375198Y5285258D02*
D03*
X5875020Y5328920D02*
D03*
Y5181600D02*
D03*
X6474460Y4589780D02*
D03*
X6361550Y4270890D02*
D03*
X6101080Y3970020D02*
D03*
X5877560Y5031740D02*
D03*
X6286500Y2771140D02*
D03*
X5986980Y2770940D02*
D03*
X7020560Y2014220D02*
D03*
X6390640Y1961500D02*
D03*
X7447280Y830580D02*
D03*
X7023100Y1714500D02*
D03*
X7020560Y1419860D02*
D03*
X6924040Y256540D02*
D03*
X6200140Y2143760D02*
D03*
X6103620Y2146300D02*
D03*
X6200140Y2039620D02*
D03*
X6103620D02*
D03*
X6052820Y1435100D02*
D03*
X4137660Y4064000D02*
D03*
X3365500Y3916680D02*
D03*
X5133340Y3385820D02*
D03*
X5079020Y3029240D02*
D03*
X2181860Y4343400D02*
D03*
X2326640D02*
D03*
Y4230793D02*
D03*
X2181860D02*
D03*
Y4118187D02*
D03*
X1846580Y4394200D02*
D03*
X2943860Y4112260D02*
D03*
X2326640Y4118187D02*
D03*
Y4005580D02*
D03*
X2181860D02*
D03*
X2425700Y3693160D02*
D03*
X635000Y2908300D02*
D03*
X5516880Y2631440D02*
D03*
X5118100Y2720340D02*
D03*
X5026660Y2626360D02*
D03*
X5384800Y2143760D02*
D03*
X5364480Y1706919D02*
D03*
X4102100Y2824480D02*
D03*
X1010920Y2547620D02*
D03*
X1262380Y1874520D02*
D03*
X382390Y1903850D02*
D03*
X7851140Y5240020D02*
D03*
X9241860Y11410880D02*
D03*
X7683500Y7985760D02*
D03*
X6217920Y8387080D02*
D03*
X8305800Y3792220D02*
D03*
X8211781Y4348202D02*
D03*
X8101076Y1693164D02*
D03*
X6261100Y1823720D02*
D03*
X5334000Y9057640D02*
D03*
X4980940Y7289800D02*
D03*
X1640840Y10754360D02*
D03*
X624840Y10678160D02*
D03*
X4986020Y3037887D02*
D03*
X3738880Y4079240D02*
D03*
X1266310Y2028070D02*
D03*
X9710420Y2928620D02*
D03*
X7193280Y5798820D02*
D03*
X9304020Y3004820D02*
D03*
X6311900Y6631940D02*
D03*
Y6505787D02*
D03*
X9458960Y3025140D02*
D03*
X6027420Y6990081D02*
D03*
X4330700Y9903460D02*
D03*
X7995920Y5598160D02*
D03*
X7932420Y5554980D02*
D03*
X8046720Y6611620D02*
D03*
X8265160Y6385560D02*
D03*
X9387840Y3081020D02*
D03*
X10721340Y3708400D02*
D03*
X9423400Y3281680D02*
D03*
X6438900Y7363460D02*
D03*
X6301740D02*
D03*
X6164580D02*
D03*
X9458960Y3134360D02*
D03*
X5524500Y8714740D02*
D03*
X8396067Y2395740D02*
D03*
X8392160Y2230120D02*
D03*
X7929880Y7386320D02*
D03*
X8244840Y8516620D02*
D03*
X9728200Y4015740D02*
D03*
X8168640Y5085080D02*
D03*
X10817860Y3703320D02*
D03*
X10269220Y4025900D02*
D03*
X9319260Y4097020D02*
D03*
X8467543Y9901247D02*
D03*
X9400540Y9977120D02*
D03*
X10510520Y10066020D02*
D03*
X10596880Y10060940D02*
D03*
X10901680Y3426460D02*
D03*
X11534140Y1813560D02*
D03*
X11600180Y1158240D02*
D03*
X11671300Y1183640D02*
D03*
X5153660Y4643120D02*
D03*
X5273040Y4615180D02*
D03*
X11689080Y1648460D02*
D03*
X4554220Y9796780D02*
D03*
X11755120Y1696720D02*
D03*
X11986260Y1351280D02*
D03*
X8267700Y7406640D02*
D03*
X8260080Y7200900D02*
D03*
Y7302500D02*
D03*
X12219461Y1436079D02*
D03*
X12237734Y1369978D02*
D03*
X8186420Y8696960D02*
D03*
X10388600Y1158240D02*
D03*
X10325100Y1214967D02*
D03*
X10248900Y1181100D02*
D03*
X8054106Y6178599D02*
D03*
X7622540Y6850380D02*
D03*
X10434320Y3129280D02*
D03*
X7520940Y1376680D02*
D03*
X7010400Y2573020D02*
D03*
X10507980Y3251200D02*
D03*
X10523220Y934720D02*
D03*
X10469262Y1160510D02*
D03*
X3535680Y9890760D02*
D03*
X6611620Y8892540D02*
D03*
X9009380Y961451D02*
D03*
X3065780Y1363980D02*
D03*
X11988800Y2029460D02*
D03*
X12034520Y675640D02*
D03*
X9326880Y1051560D02*
D03*
X10373360Y937260D02*
D03*
X6817360Y1638300D02*
D03*
X10528300Y541020D02*
D03*
X6670040Y825500D02*
D03*
X5306060Y1419860D02*
D03*
X12392660Y10688320D02*
D03*
X10576560Y10820400D02*
D03*
X9771380Y1252220D02*
D03*
X11650980Y807720D02*
D03*
X9771380Y883920D02*
D03*
X9872980Y1501140D02*
D03*
X9871640Y1220540D02*
D03*
X10571480Y3434080D02*
D03*
X3647035Y9901325D02*
D03*
X3766820Y9885680D02*
D03*
X10571480Y1203960D02*
D03*
X4386580Y6520180D02*
D03*
X10162540Y1376680D02*
D03*
X4718707Y2029460D02*
D03*
X4264660Y3215640D02*
D03*
X4323080Y3299460D02*
D03*
X4213860Y3360420D02*
D03*
X10160000Y1447800D02*
D03*
X4376420Y3411220D02*
D03*
X2501900Y9339580D02*
D03*
X8605520Y1625600D02*
D03*
X8547100Y1757680D02*
D03*
X2301240Y9258300D02*
D03*
X2291080Y9161780D02*
D03*
X2296160Y9083040D02*
D03*
X12877800Y3741420D02*
D03*
X12915900Y3822700D02*
D03*
X13007339Y3853180D02*
D03*
X13002260Y3942080D02*
D03*
X13784579Y3058160D02*
D03*
X13700760Y3253740D02*
D03*
X13855701Y3426460D02*
D03*
X13599986Y3608440D02*
D03*
X7620000Y3053080D02*
D03*
X7307580Y3070860D02*
D03*
X6090920Y9250680D02*
D03*
X5697220Y3769360D02*
D03*
X7874000Y5392420D02*
D03*
X6756400Y3543300D02*
D03*
X7782560Y5288280D02*
D03*
X6707253Y2691513D02*
D03*
X6830060Y3070860D02*
D03*
X6139180Y2773680D02*
D03*
X6880860Y2984500D02*
D03*
X8503920Y11229340D02*
D03*
X10045700Y11391900D02*
D03*
X7965440Y1376680D02*
D03*
X5100320Y7216140D02*
D03*
X7078980Y7264400D02*
D03*
X7076440Y6535420D02*
D03*
X7086600Y2570480D02*
D03*
X7561580Y6078220D02*
D03*
X7559040Y7353300D02*
D03*
X10320020Y11689080D02*
D03*
X7012940Y1864360D02*
D03*
X4114800Y3533140D02*
D03*
X6647180Y1564640D02*
D03*
X6962140Y2161540D02*
D03*
X5184140Y1645920D02*
D03*
X1209040Y2435860D02*
D03*
X5046508Y6334191D02*
D03*
X6436360Y2773680D02*
D03*
X8199120Y2771140D02*
D03*
X6733540Y2268220D02*
D03*
X7983220Y2913380D02*
D03*
X8391575Y3433635D02*
D03*
X10284460Y1699260D02*
D03*
X9090660Y688340D02*
D03*
X9027160Y11915140D02*
D03*
X8699500Y11010900D02*
D03*
X7604760Y11450320D02*
D03*
X8784520Y10821600D02*
D03*
X8790940Y10970260D02*
D03*
X12740640Y1673860D02*
D03*
Y1790700D02*
D03*
X12738100Y1938020D02*
D03*
X12740640Y2087880D02*
D03*
X10274300Y429260D02*
D03*
X8829040Y960120D02*
D03*
X3065780Y1295400D02*
D03*
X3063240Y1224280D02*
D03*
X3200400Y1122680D02*
D03*
X12222480Y2829560D02*
D03*
X9535160Y11625580D02*
D03*
X9701460Y11590020D02*
D03*
X10065600Y11292440D02*
D03*
X10911840Y10922000D02*
D03*
X10876520Y10510760D02*
D03*
X11747500Y10888980D02*
D03*
X11783060Y10634980D02*
D03*
X10907847Y10666547D02*
D03*
X11684000Y10769600D02*
D03*
X9946640Y11653520D02*
D03*
X7879080Y12397740D02*
D03*
Y12494260D02*
D03*
X8001847D02*
D03*
X8124613D02*
D03*
X8247380D02*
D03*
X8001000Y12397740D02*
D03*
X8244840D02*
D03*
X8122920D02*
D03*
X9745980Y10490200D02*
D03*
X10037600D02*
D03*
X9890760D02*
D03*
X9596120D02*
D03*
X9448800D02*
D03*
X9301480D02*
D03*
X9154160D02*
D03*
X5763260Y10360660D02*
D03*
X8382000Y10924540D02*
D03*
X8262620D02*
D03*
Y10802620D02*
D03*
Y10680700D02*
D03*
Y10558780D02*
D03*
X8382000Y10802620D02*
D03*
Y10680700D02*
D03*
Y10558780D02*
D03*
X6855460Y11267440D02*
D03*
Y11148060D02*
D03*
X6977380D02*
D03*
X7099300D02*
D03*
X7221220D02*
D03*
X6977380Y11267440D02*
D03*
X7099300D02*
D03*
X7221220D02*
D03*
X6217920Y11269980D02*
D03*
Y11150600D02*
D03*
X6339840D02*
D03*
X6461760D02*
D03*
X6583680D02*
D03*
X6339840Y11269980D02*
D03*
X6461760D02*
D03*
X6583680D02*
D03*
X8409940Y12006580D02*
D03*
X8290560D02*
D03*
Y11884660D02*
D03*
Y11762740D02*
D03*
Y11640820D02*
D03*
X8409940Y11884660D02*
D03*
Y11762740D02*
D03*
Y11640820D02*
D03*
X1694180Y3606800D02*
D03*
X1574800D02*
D03*
X1694768Y3743960D02*
D03*
X1690214Y3881120D02*
D03*
X1696286Y4018280D02*
D03*
X1692556Y4155440D02*
D03*
X1574800Y3743960D02*
D03*
Y3881120D02*
D03*
Y4018280D02*
D03*
Y4155440D02*
D03*
X6916420Y12039600D02*
D03*
Y12158980D02*
D03*
X6794500D02*
D03*
X6672580D02*
D03*
X6550660D02*
D03*
X6794500Y12039600D02*
D03*
X6672580D02*
D03*
X6550660D02*
D03*
X5143500Y11440160D02*
D03*
X7406640Y9123680D02*
D03*
Y8996680D02*
D03*
Y9250680D02*
D03*
X5006340Y9464040D02*
D03*
X7406640Y9377680D02*
D03*
Y8869680D02*
D03*
X5158740Y9464040D02*
D03*
X4940300Y10571480D02*
D03*
X5064760Y10568940D02*
D03*
X5179060Y10563860D02*
D03*
X9339580Y11394440D02*
D03*
X4465320Y10800080D02*
D03*
X4554220Y11074400D02*
D03*
X1239520Y9685140D02*
D03*
X1948180Y10589260D02*
D03*
X1877060Y10586720D02*
D03*
X1087120Y9664700D02*
D03*
X789940Y9662160D02*
D03*
X6385560Y9250680D02*
D03*
X6238240D02*
D03*
X7457440Y7289800D02*
D03*
X6736080Y7432040D02*
D03*
X6898640Y6858000D02*
D03*
X4041140Y11061700D02*
D03*
X3794760Y10863580D02*
D03*
X3909060Y10777220D02*
D03*
X3995420Y10833100D02*
D03*
X4119880Y10769600D02*
D03*
X4288164Y10838180D02*
D03*
X3977640Y9570720D02*
D03*
X4254500Y9903460D02*
D03*
X4173220Y9906000D02*
D03*
X4094480Y9908540D02*
D03*
X3918637Y9925557D02*
D03*
X6791960Y5796280D02*
D03*
X4792980Y6794500D02*
D03*
X4955540Y6764020D02*
D03*
X6746240Y6703060D02*
D03*
X6741160Y6195060D02*
D03*
X6027420Y7363461D02*
D03*
Y7239001D02*
D03*
Y7114541D02*
D03*
X6438900Y6992621D02*
D03*
Y7116234D02*
D03*
Y7239847D02*
D03*
X6164580Y7237307D02*
D03*
X6301740D02*
D03*
X6164580Y7111154D02*
D03*
X6301740D02*
D03*
Y6985001D02*
D03*
X6164580D02*
D03*
X6037580Y6631941D02*
D03*
Y6507481D02*
D03*
Y6383021D02*
D03*
Y6258561D02*
D03*
X6449060Y6261101D02*
D03*
Y6384714D02*
D03*
Y6508327D02*
D03*
X6174740Y6505787D02*
D03*
Y6379634D02*
D03*
X6311900D02*
D03*
Y6253481D02*
D03*
X6174740D02*
D03*
Y6631940D02*
D03*
X6449060D02*
D03*
X5593080Y6634479D02*
D03*
X5730240D02*
D03*
X5455920D02*
D03*
Y6256020D02*
D03*
X5593080D02*
D03*
Y6382173D02*
D03*
X5455920D02*
D03*
X5593080Y6508326D02*
D03*
X5455920D02*
D03*
X5730240Y6510866D02*
D03*
Y6387253D02*
D03*
Y6263640D02*
D03*
X5318760Y6261100D02*
D03*
Y6385560D02*
D03*
Y6510020D02*
D03*
Y6634480D02*
D03*
X2082800Y3594100D02*
D03*
X12034520Y289560D02*
D03*
X12221700Y1929620D02*
D03*
X11851640Y840740D02*
D03*
X12616180Y891540D02*
D03*
X5316220Y2428240D02*
D03*
X5280660Y3385820D02*
D03*
X4788687Y2836993D02*
D03*
X5382260Y2542540D02*
D03*
X5270500Y2357120D02*
D03*
X5331460Y2303780D02*
D03*
X1846580Y4244340D02*
D03*
X1844040Y4038600D02*
D03*
X1846580Y3830320D02*
D03*
X1991360Y3688080D02*
D03*
X2080260Y3451860D02*
D03*
%TF.MD5,b06a8c2cf51cfc66056c8701da6f5fa2*%
M02*
