M48
;Layer_Color=9474304
;FILE_FORMAT=4:4
METRIC,LZ
;TYPE=NON_PLATED
T07F00S00C0.9500
T08F00S00C1.3462
T09F00S00C1.6510
T10F00S00C3.4000
T12F00S00C8.0000
T13F00S00C9.0000
%
T07
X0050395Y01254506
X0053745
T08
X003307Y003308
X00305Y011831
X001306
X00919226Y01269238
X01050036
T09
X00136Y003069
X00862558Y00931724
X00963244
X01063929
X01164615
X012653
X01365986
X01248638Y0129357
T10
X0137Y0006
X0006
X00855Y00675
X0137Y0129
X0006
T12
X00375Y01275
T13
X0049Y0042
M30
