%TF.GenerationSoftware,Altium Limited,Altium Designer,26.2.0 (7)*%
G04 Layer_Color=0*
%FSLAX45Y45*%
%MOMM*%
%TF.SameCoordinates,5567E761-9546-4A85-A6DF-5BC1022D79F0*%
%TF.FilePolarity,Positive*%
%TF.FileFunction,NonPlated,1,8,NPTH,Drill*%
%TF.Part,Single*%
G01*
G75*
%TA.AperFunction,OtherDrill,Pad Free-6 (6mm,129mm)*%
%ADD134C,3.39999*%
%TA.AperFunction,OtherDrill,Pad Free-6 (37.5mm,127.5mm)*%
%ADD135C,8.00001*%
%TA.AperFunction,OtherDrill,Pad Free-6 (137mm,129mm)*%
%ADD136C,3.39999*%
%TA.AperFunction,OtherDrill,Pad Free-6 (85.5mm,67.5mm)*%
%ADD137C,3.39999*%
%TA.AperFunction,OtherDrill,Pad Free-6 (27mm,22.5mm)*%
%ADD138O,25.00000X7.00001*%
%TA.AperFunction,OtherDrill,Pad Free-4 (137mm,6mm)*%
%ADD139C,3.39999*%
%TA.AperFunction,OtherDrill,Pad Free-4 (6mm,6mm)*%
%ADD140C,3.39999*%
%TA.AperFunction,OtherDrill,Pad Free-4 (49mm,42mm)*%
%ADD141C,9.00001*%
%TA.AperFunction,ComponentDrill*%
%ADD142C,0.95000*%
%ADD143C,1.65100*%
%ADD144C,1.34620*%
G36*
X1800000Y1900000D02*
X3600000D01*
X3627545D01*
X3681958Y1908618D01*
X3734353Y1925642D01*
X3783440Y1950653D01*
X3828010Y1983035D01*
X3866965Y2021990D01*
X3899347Y2066560D01*
X3924358Y2115647D01*
X3941382Y2168041D01*
X3950000Y2222454D01*
Y2277546D01*
X3941382Y2331959D01*
X3924358Y2384353D01*
X3899347Y2433440D01*
X3866965Y2478010D01*
X3828010Y2516965D01*
X3783440Y2549347D01*
X3734353Y2574358D01*
X3681958Y2591382D01*
X3627545Y2600000D01*
X3600000D01*
D01*
X1800000D01*
X1772454D01*
X1718041Y2591382D01*
X1665646Y2574358D01*
X1616560Y2549347D01*
X1571990Y2516965D01*
X1533035Y2478010D01*
X1500653Y2433440D01*
X1475642Y2384353D01*
X1458618Y2331959D01*
X1450000Y2277546D01*
Y2222454D01*
X1458618Y2168041D01*
X1475642Y2115647D01*
X1500653Y2066560D01*
X1533035Y2021990D01*
X1571990Y1983035D01*
X1616560Y1950653D01*
X1665646Y1925642D01*
X1718041Y1908618D01*
X1772454Y1900000D01*
X1800000D01*
D01*
D02*
G37*
G36*
X13700000Y12730000D02*
X13683257D01*
X13650414Y12736533D01*
X13619475Y12749348D01*
X13591631Y12767952D01*
X13567952Y12791631D01*
X13549348Y12819475D01*
X13536533Y12850414D01*
X13530000Y12883257D01*
Y12900000D01*
Y12916743D01*
X13536533Y12949586D01*
X13549348Y12980525D01*
X13567952Y13008369D01*
X13591631Y13032048D01*
X13619475Y13050652D01*
X13650414Y13063467D01*
X13683257Y13070000D01*
X13700000D01*
X13716743D01*
X13749586Y13063467D01*
X13780525Y13050652D01*
X13808369Y13032048D01*
X13832048Y13008369D01*
X13850652Y12980525D01*
X13863467Y12949586D01*
X13870000Y12916743D01*
Y12900000D01*
Y12883257D01*
X13863467Y12850414D01*
X13850652Y12819475D01*
X13832048Y12791631D01*
X13808369Y12767952D01*
X13780525Y12749348D01*
X13749586Y12736533D01*
X13716743Y12730000D01*
X13700000D01*
D01*
D02*
G37*
G36*
Y430000D02*
X13683257D01*
X13650414Y436533D01*
X13619475Y449348D01*
X13591631Y467952D01*
X13567952Y491631D01*
X13549348Y519475D01*
X13536533Y550413D01*
X13530000Y583256D01*
Y600000D01*
Y616743D01*
X13536533Y649587D01*
X13549348Y680525D01*
X13567952Y708369D01*
X13591631Y732048D01*
X13619475Y750652D01*
X13650414Y763467D01*
X13683257Y770000D01*
X13700000D01*
X13716743D01*
X13749586Y763467D01*
X13780525Y750652D01*
X13808369Y732048D01*
X13832048Y708369D01*
X13850652Y680525D01*
X13863467Y649587D01*
X13870000Y616743D01*
Y600000D01*
Y583256D01*
X13863467Y550413D01*
X13850652Y519475D01*
X13832048Y491631D01*
X13808369Y467952D01*
X13780525Y449348D01*
X13749586Y436533D01*
X13716743Y430000D01*
X13700000D01*
D01*
D02*
G37*
G36*
X8550000Y6580000D02*
X8533256D01*
X8500413Y6586533D01*
X8469475Y6599348D01*
X8441631Y6617952D01*
X8417952Y6641631D01*
X8399348Y6669475D01*
X8386533Y6700413D01*
X8380000Y6733257D01*
Y6750000D01*
Y6766744D01*
X8386533Y6799587D01*
X8399348Y6830525D01*
X8417952Y6858369D01*
X8441631Y6882048D01*
X8469475Y6900652D01*
X8500413Y6913467D01*
X8533256Y6920000D01*
X8550000D01*
X8566743D01*
X8599587Y6913467D01*
X8630525Y6900652D01*
X8658369Y6882048D01*
X8682047Y6858369D01*
X8700652Y6830525D01*
X8713467Y6799587D01*
X8720000Y6766744D01*
Y6750000D01*
Y6733257D01*
X8713467Y6700413D01*
X8700652Y6669475D01*
X8682047Y6641631D01*
X8658369Y6617952D01*
X8630525Y6599348D01*
X8599587Y6586533D01*
X8566743Y6580000D01*
X8550000D01*
D01*
D02*
G37*
G36*
X4900000Y3750000D02*
X4870505D01*
X4812021Y3757699D01*
X4755042Y3772967D01*
X4700543Y3795541D01*
X4649457Y3825036D01*
X4602658Y3860946D01*
X4560946Y3902657D01*
X4525036Y3949457D01*
X4495541Y4000543D01*
X4472967Y4055042D01*
X4457699Y4112021D01*
X4450000Y4170505D01*
Y4200000D01*
Y4229494D01*
X4457699Y4287979D01*
X4472967Y4344958D01*
X4495541Y4399457D01*
X4525036Y4450543D01*
X4560946Y4497342D01*
X4602658Y4539054D01*
X4649457Y4574964D01*
X4700543Y4604459D01*
X4755042Y4627033D01*
X4812021Y4642300D01*
X4870505Y4650000D01*
X4900000D01*
X4929495D01*
X4987979Y4642300D01*
X5044958Y4627033D01*
X5099457Y4604459D01*
X5150543Y4574964D01*
X5197342Y4539054D01*
X5239054Y4497342D01*
X5274964Y4450543D01*
X5304459Y4399457D01*
X5327033Y4344958D01*
X5342300Y4287979D01*
X5350000Y4229494D01*
Y4200000D01*
Y4170505D01*
X5342300Y4112021D01*
X5327033Y4055042D01*
X5304459Y4000543D01*
X5274964Y3949457D01*
X5239054Y3902657D01*
X5197342Y3860946D01*
X5150543Y3825036D01*
X5099457Y3795541D01*
X5044958Y3772967D01*
X4987979Y3757699D01*
X4929495Y3750000D01*
X4900000D01*
D01*
D02*
G37*
G36*
X600000Y430000D02*
X583256D01*
X550413Y436533D01*
X519475Y449348D01*
X491631Y467952D01*
X467952Y491631D01*
X449348Y519475D01*
X436533Y550413D01*
X430000Y583256D01*
Y600000D01*
Y616743D01*
X436533Y649587D01*
X449348Y680525D01*
X467952Y708369D01*
X491631Y732048D01*
X519475Y750652D01*
X550413Y763467D01*
X583256Y770000D01*
X600000D01*
X616743D01*
X649587Y763467D01*
X680525Y750652D01*
X708369Y732048D01*
X732048Y708369D01*
X750652Y680525D01*
X763467Y649587D01*
X770000Y616743D01*
Y600000D01*
Y583256D01*
X763467Y550413D01*
X750652Y519475D01*
X732048Y491631D01*
X708369Y467952D01*
X680525Y449348D01*
X649587Y436533D01*
X616743Y430000D01*
X600000D01*
D01*
D02*
G37*
G36*
Y12730000D02*
X583256D01*
X550413Y12736533D01*
X519475Y12749348D01*
X491631Y12767952D01*
X467952Y12791631D01*
X449348Y12819475D01*
X436533Y12850414D01*
X430000Y12883257D01*
Y12900000D01*
Y12916743D01*
X436533Y12949586D01*
X449348Y12980525D01*
X467952Y13008369D01*
X491631Y13032048D01*
X519475Y13050652D01*
X550413Y13063467D01*
X583256Y13070000D01*
X600000D01*
X616743D01*
X649587Y13063467D01*
X680525Y13050652D01*
X708369Y13032048D01*
X732048Y13008369D01*
X750652Y12980525D01*
X763467Y12949586D01*
X770000Y12916743D01*
Y12900000D01*
Y12883257D01*
X763467Y12850414D01*
X750652Y12819475D01*
X732048Y12791631D01*
X708369Y12767952D01*
X680525Y12749348D01*
X649587Y12736533D01*
X616743Y12730000D01*
X600000D01*
D01*
D02*
G37*
G36*
X3750000Y12350000D02*
X3723782D01*
X3671796Y12356844D01*
X3621148Y12370415D01*
X3572705Y12390481D01*
X3527295Y12416699D01*
X3485696Y12448619D01*
X3448619Y12485696D01*
X3416699Y12527295D01*
X3390481Y12572705D01*
X3370415Y12621148D01*
X3356844Y12671796D01*
X3350000Y12723783D01*
Y12750000D01*
Y12776218D01*
X3356844Y12828204D01*
X3370415Y12878851D01*
X3390481Y12927295D01*
X3416699Y12972705D01*
X3448619Y13014304D01*
X3485696Y13051381D01*
X3527295Y13083301D01*
X3572705Y13109518D01*
X3621148Y13129585D01*
X3671796Y13143156D01*
X3723782Y13150000D01*
X3750000D01*
X3776217D01*
X3828204Y13143156D01*
X3878852Y13129585D01*
X3927295Y13109518D01*
X3972705Y13083301D01*
X4014304Y13051381D01*
X4051381Y13014304D01*
X4083301Y12972705D01*
X4109519Y12927295D01*
X4129585Y12878851D01*
X4143156Y12828204D01*
X4150000Y12776218D01*
Y12750000D01*
Y12723783D01*
X4143156Y12671796D01*
X4129585Y12621148D01*
X4109519Y12572705D01*
X4083301Y12527295D01*
X4051381Y12485696D01*
X4014304Y12448619D01*
X3972705Y12416699D01*
X3927295Y12390481D01*
X3878852Y12370415D01*
X3828204Y12356844D01*
X3776217Y12350000D01*
X3750000D01*
D01*
D02*
G37*
D134*
X600000Y12900000D02*
D03*
D135*
X3750000Y12750000D02*
D03*
D136*
X13700000Y12900000D02*
D03*
D137*
X8550000Y6750000D02*
D03*
D138*
X2700000Y2250000D02*
D03*
D139*
X13700000Y600000D02*
D03*
D140*
X600000D02*
D03*
D141*
X4900000Y4200000D02*
D03*
D142*
X5374500Y12545060D02*
D03*
X5039500D02*
D03*
D143*
X12486380Y12935699D02*
D03*
X13659860Y9317240D02*
D03*
X1360000Y3069000D02*
D03*
X8625580Y9317240D02*
D03*
X9632436D02*
D03*
X10639292D02*
D03*
X11646148D02*
D03*
X12653004D02*
D03*
D144*
X1306000Y11831000D02*
D03*
X3307000Y3308000D02*
D03*
X3050000Y11831000D02*
D03*
X10500360Y12692380D02*
D03*
X9192260D02*
D03*
%TF.MD5,3644bbacc9cbfd183640a04c3ee10192*%
M02*
