%TF.GenerationSoftware,Altium Limited,Altium Designer,26.2.0 (7)*%
G04 Layer_Color=128*
%FSLAX45Y45*%
%MOMM*%
%TF.SameCoordinates,5567E761-9546-4A85-A6DF-5BC1022D79F0*%
%TF.FilePolarity,Positive*%
%TF.FileFunction,Paste,Bot*%
%TF.Part,Single*%
G01*
G75*
%TA.AperFunction,SMDPad,CuDef*%
%ADD29R,1.14380X0.81040*%
%ADD37O,0.85000X0.28000*%
%ADD38O,0.28000X0.85000*%
%ADD42R,0.81040X1.14380*%
G04:AMPARAMS|DCode=45|XSize=1.21mm|YSize=0.58mm|CornerRadius=0.0725mm|HoleSize=0mm|Usage=FLASHONLY|Rotation=0.000|XOffset=0mm|YOffset=0mm|HoleType=Round|Shape=RoundedRectangle|*
%AMROUNDEDRECTD45*
21,1,1.21000,0.43500,0,0,0.0*
21,1,1.06500,0.58000,0,0,0.0*
1,1,0.14500,0.53250,-0.21750*
1,1,0.14500,-0.53250,-0.21750*
1,1,0.14500,-0.53250,0.21750*
1,1,0.14500,0.53250,0.21750*
%
%ADD45ROUNDEDRECTD45*%
%TA.AperFunction,FiducialPad,Global*%
%ADD46C,1.01600*%
%TA.AperFunction,SMDPad,CuDef*%
%ADD67O,0.85000X0.28000*%
%ADD68O,0.28000X0.85000*%
%ADD69R,2.05000X2.05000*%
%ADD71R,0.25000X0.65000*%
%ADD72R,0.65000X0.25000*%
%ADD74R,3.48060X1.19140*%
G04:AMPARAMS|DCode=75|XSize=0.96mm|YSize=5.41mm|CornerRadius=0.12mm|HoleSize=0mm|Usage=FLASHONLY|Rotation=180.000|XOffset=0mm|YOffset=0mm|HoleType=Round|Shape=RoundedRectangle|*
%AMROUNDEDRECTD75*
21,1,0.96000,5.17000,0,0,180.0*
21,1,0.72000,5.41000,0,0,180.0*
1,1,0.24000,-0.36000,2.58500*
1,1,0.24000,0.36000,2.58500*
1,1,0.24000,0.36000,-2.58500*
1,1,0.24000,-0.36000,-2.58500*
%
%ADD75ROUNDEDRECTD75*%
%ADD76R,2.15000X2.25000*%
%ADD77R,2.25000X2.15000*%
D29*
X10187460Y11016030D02*
D03*
Y11165650D02*
D03*
Y10901490D02*
D03*
Y10751870D02*
D03*
X4986020Y3166230D02*
D03*
Y3315850D02*
D03*
X5133340Y3166230D02*
D03*
Y3315850D02*
D03*
X5468620Y1703190D02*
D03*
Y1852810D02*
D03*
X9621040Y11965990D02*
D03*
Y12115610D02*
D03*
X10037600Y10718610D02*
D03*
Y10568990D02*
D03*
X9890280Y10718610D02*
D03*
Y10568990D02*
D03*
X9153680Y10716070D02*
D03*
Y10566450D02*
D03*
X9301000Y10716070D02*
D03*
Y10566450D02*
D03*
X9448320Y10716070D02*
D03*
Y10566450D02*
D03*
X9595640Y10716070D02*
D03*
Y10566450D02*
D03*
X9742960Y10716070D02*
D03*
Y10566450D02*
D03*
X10063000Y11971070D02*
D03*
Y12120690D02*
D03*
X9768360Y11968530D02*
D03*
Y12118150D02*
D03*
X9915680Y11969920D02*
D03*
Y12119540D02*
D03*
X5318760Y2022990D02*
D03*
Y1873370D02*
D03*
X4838700Y3166230D02*
D03*
Y3315850D02*
D03*
X5021580Y1873370D02*
D03*
Y2022990D02*
D03*
X4874260Y1873370D02*
D03*
Y2022990D02*
D03*
X5168900Y1873370D02*
D03*
Y2022990D02*
D03*
X5427980Y3315850D02*
D03*
Y3166230D02*
D03*
X5280660Y3315850D02*
D03*
Y3166230D02*
D03*
X1049020Y1913770D02*
D03*
Y1764150D02*
D03*
X858520Y2676010D02*
D03*
Y2825630D02*
D03*
X635000Y2676010D02*
D03*
Y2825630D02*
D03*
X5128260Y6803270D02*
D03*
Y6653650D02*
D03*
D37*
X4870300Y2569960D02*
D03*
Y2619960D02*
D03*
Y2669960D02*
D03*
X5260300Y2569960D02*
D03*
Y2619960D02*
D03*
Y2669960D02*
D03*
Y2719960D02*
D03*
D38*
X4965300Y2864960D02*
D03*
X5015300D02*
D03*
X5065300D02*
D03*
X5115300D02*
D03*
X5165300D02*
D03*
D42*
X9106570Y11558200D02*
D03*
X8956950D02*
D03*
X9106570Y11410880D02*
D03*
X8956950D02*
D03*
Y11263560D02*
D03*
X9106570D02*
D03*
X8956950Y11116240D02*
D03*
X9106570D02*
D03*
X10171070Y11446440D02*
D03*
X10320690D02*
D03*
X10172220Y11296580D02*
D03*
X10321840D02*
D03*
X4687450Y7188200D02*
D03*
X4537830D02*
D03*
X4331850Y2824480D02*
D03*
X4182230D02*
D03*
X4545450Y2529840D02*
D03*
X4695070D02*
D03*
X5614790Y2420620D02*
D03*
X5764410D02*
D03*
X4545450Y3119120D02*
D03*
X4695070D02*
D03*
X5764410Y1978660D02*
D03*
X5614790D02*
D03*
X10171070Y11596300D02*
D03*
X10320690D02*
D03*
X8956950Y11705520D02*
D03*
X9106570D02*
D03*
X9012590Y10968920D02*
D03*
X8862970D02*
D03*
X8842410Y11705520D02*
D03*
X8692790D02*
D03*
X9012590Y10821600D02*
D03*
X8862970D02*
D03*
X9012590Y10674280D02*
D03*
X8862970D02*
D03*
X4687450Y7040880D02*
D03*
X4537830D02*
D03*
X5614790Y2125980D02*
D03*
X5764410D02*
D03*
X5614790Y2273300D02*
D03*
X5764410D02*
D03*
X5614790Y2862580D02*
D03*
X5764410D02*
D03*
X4695070Y2824480D02*
D03*
X4545450D02*
D03*
X4695070Y2677160D02*
D03*
X4545450D02*
D03*
X5764410Y2567940D02*
D03*
X5614790D02*
D03*
X4545450Y2235200D02*
D03*
X4695070D02*
D03*
X5764410Y2715260D02*
D03*
X5614790D02*
D03*
X4545450Y2382520D02*
D03*
X4695070D02*
D03*
X5764410Y3009900D02*
D03*
X5614790D02*
D03*
X4695070Y2971800D02*
D03*
X4545450D02*
D03*
X530860Y1805940D02*
D03*
X381240D02*
D03*
X4687450Y6893560D02*
D03*
X4537830D02*
D03*
D45*
X4852052Y6942974D02*
D03*
Y7037974D02*
D03*
Y7132974D02*
D03*
X5103052Y6942974D02*
D03*
Y7132974D02*
D03*
Y7037974D02*
D03*
D46*
X1122680Y13208000D02*
D03*
X330200Y4211320D02*
D03*
X13949680D02*
D03*
D67*
X4870300Y2719960D02*
D03*
Y2769960D02*
D03*
X5260300D02*
D03*
D68*
X5165300Y2474960D02*
D03*
X5115300D02*
D03*
X5065300D02*
D03*
X5015300D02*
D03*
X4965300D02*
D03*
D69*
X5065300Y2669960D02*
D03*
D71*
X9848120Y11027440D02*
D03*
X9798120D02*
D03*
X9748120D02*
D03*
X9698120D02*
D03*
X9848120Y11507440D02*
D03*
X9798120D02*
D03*
X9748120D02*
D03*
X9698120D02*
D03*
X9648120D02*
D03*
X9598120D02*
D03*
X9548120Y11027440D02*
D03*
X9598120D02*
D03*
X9648120D02*
D03*
X9898120Y11507440D02*
D03*
Y11027440D02*
D03*
X9548120Y11507440D02*
D03*
D72*
X9963120Y11092440D02*
D03*
Y11142440D02*
D03*
Y11192440D02*
D03*
Y11242440D02*
D03*
Y11442440D02*
D03*
X9483120D02*
D03*
Y11392440D02*
D03*
Y11192440D02*
D03*
Y11142440D02*
D03*
Y11092440D02*
D03*
X9963120Y11392440D02*
D03*
Y11292440D02*
D03*
Y11342440D02*
D03*
X9483120D02*
D03*
Y11292440D02*
D03*
Y11242440D02*
D03*
D74*
X6736080Y12208630D02*
D03*
Y12784970D02*
D03*
D75*
X7482440Y8514080D02*
D03*
X8067440D02*
D03*
X7330840Y9075420D02*
D03*
X6745840D02*
D03*
X7333380Y9672320D02*
D03*
X6748380D02*
D03*
X7330840Y10274300D02*
D03*
X6745840D02*
D03*
X7479900Y10858500D02*
D03*
X8064900D02*
D03*
X7482440Y10261600D02*
D03*
X8067440D02*
D03*
X7482440Y9667240D02*
D03*
X8067440D02*
D03*
X7484980Y9070340D02*
D03*
X8069980D02*
D03*
D76*
X5146040Y10826220D02*
D03*
Y11236220D02*
D03*
X5128260Y10154920D02*
D03*
Y9744920D02*
D03*
D77*
X8537680Y10200640D02*
D03*
X8947680D02*
D03*
X8911060Y12306300D02*
D03*
X9321060D02*
D03*
%TF.MD5,d11bdc8f28127023970b31108bff8fd7*%
M02*
