M48
;Layer_Color=9474304
;FILE_FORMAT=4:4
METRIC,LZ
;TYPE=PLATED
T01F00S00C0.2540
T02F00S00C0.7112
T03F00S00C1.0000
T04F00S00C1.0668
T05F00S00C1.2446
T06F00S00C1.6000
%
T01
X00909066Y00068834
X01015885Y00063893
X0102743Y00042926
X0105283Y00054102
X01061466Y0007493
X01085342Y00053086
X0112395Y00050038
X01138682
X01175004Y00051054
X01203452Y00067564
Y00028956
X01223772Y00028448
X01264134Y00074192
X00805688Y00052324
X0080645Y0002286
X00692404Y00025654
X00038239Y00190385
X000635Y0029083
X00101092Y00254762
X00120904Y00243586
X00126631Y00202807
X00126238Y00187452
X00115316Y0017653
X0015748Y0036068
X00169418
X00169477Y00374396
X0015748
Y00388112
X00169021
X00169629Y00401828
X0015748
Y00415544
X00169256
X00184658Y00424434
Y0043942
X00184404Y0040386
X00184658Y00383032
X00199136Y00368808
X0020828Y0035941
X00208026Y00345186
X0024257Y00369316
X00232664Y00400558
Y00411819
Y00423079
Y0043434
X00218186
Y00423079
Y00411819
Y00400558
X00294386Y00411226
X0033655Y00391668
X00373888Y00407924
X00413766Y004064
X0041148Y00353314
X00421386Y00336042
X00432308Y00329946
X00426466Y00321564
X00437642Y00341122
X00469646Y00320548
X00498602Y00303789
X00478869Y00283699
X0047498Y00253746
X00471871Y00202946
X0041021Y00282448
X00306578Y00136398
Y0012954
X00306324Y00122428
X0032004Y00112268
X00530606Y00141986
X00536448Y00170692
X00518414Y00164592
X0053848Y00214376
X00533146Y00230378
X0052705Y00235712
X00531622Y00242824
X00538226Y00254254
X00551688Y00263144
X0051181Y00262636
X00502666
Y00272034
X0051181
X00507902Y00302924
X00513334Y00338582
X00528066
X00569722Y00376936
X00610108Y00397002
X00636155Y00427089
X00647446Y00458978
X00685292Y00414528
X0067564Y0035433
X00683006Y00307086
X00688086Y0029845
X00670725Y00269151
X00643636Y00277368
X0062865Y00277114
X00613918Y00277368
X00598698Y00277094
X00583692Y00242316
X00610362Y0021463
X00620014Y00214376
Y00203962
X00610362
X00639064Y0019615
X00644652Y0020066
X0062611Y00182372
X00605282Y0014351
X00664718Y00156464
X00681736Y0016383
X0070231Y0017145
X00701294Y00186436
X00702056Y00201422
X00696214Y00216154
X00701548Y00230632
X0070104Y00257302
X0070866Y00257048
X0073279Y00284734
X00730758Y00307086
X00762Y00305308
X0077724Y00284734
X00798322Y00291338
X00819912Y00277114
X00839607Y00239574
X00839216Y00223012
X00830326Y00210058
X00796624Y00198548
X00774446Y00196596
X00765556
Y00205486
X00774446
X00810108Y00169316
X00811022Y00137922
X00796544Y00137668
X00781406Y0013777
X00752094Y00137668
X00702056Y00141986
X00667004Y0008255
X00744728Y00083058
X00775462
X00882904Y00096012
X00860552Y0016256
X0085471Y00175768
X00839157Y00343363
X00839978Y003556
X0083058Y00379222
X00823468Y0042291
X00821178Y0043482
X00527304Y00461518
X00515366Y00464312
X00673354Y00226822
X0090678Y002032
X00929894Y00213106
X00930656Y00182118
X00930402Y00152908
X00932688Y00105156
X00900938Y00096145
X00977138Y00088392
Y00125222
X00987164Y00122054
X00997204Y00115316
X0102489Y0011811
X0103251Y00121497
X0103886Y00115824
X01046926Y00116051
X01057148Y00120396
X01067308Y0011557
X01052322Y00093472
X01037336Y00093726
X01016254Y00078994
Y00137668
X01016Y0014478
X00987298Y00150114
X00971803Y00187961
X00971042Y00223012
X00972058Y00252984
X0097155Y00282956
X00971042Y00292862
X00945896Y00302514
Y00313436
X00938784Y00308102
X00930402Y00300482
X00931672Y00287782
X00909459Y00296672
X0094234Y00328168
X0099568Y00337566
X01002849Y00345483
X01009396Y00371348
X01026922Y0040259
X01036816Y00399276
X01077214Y00385318
X01072134Y0037084
X01081786Y00370332
X01090168Y00342646
X01067308Y00344932
X01057148Y00343408
X01050798Y0032512
X01043432Y00312928
X01102106Y0039878
X01185926Y00400304
X01183534Y00382049
X01197864Y00357632
X01211072Y00342392
X01228598Y00320294
X01197356Y00308356
X01222248Y00282956
X01223518Y002413
X01199134Y00237744
X0119888Y00202946
X0122217Y00192962
X01223772Y00181864
X01221946Y00143608
X01223773Y00136998
X01198626Y00135128
X01187958Y00117856
X0116713Y00118364
X01160018Y00115824
X01165098Y00080772
X01185164Y00084074
X01197356Y00103886
X01261618Y00089154
X01273695Y00083753
X01262634Y00134874
X01274064Y00167386
Y0017907
X0127381Y00193802
X01274064Y00208788
Y00223266
X01274318Y00237998
X01274572Y00252476
X01274064Y00267462
X0128778Y00374142
X0129159Y0038227
X01175512Y00169672
X01168908Y00164846
X01153414Y00181356
X01107186Y00116078
X01028446Y00169926
X0097282Y00401574
X00931926Y00409702
X01300226Y00404876
Y00415544
X01299972Y00426466
X01300226Y00394208
X01300734Y00385318
X0133477Y0038735
X01334516Y0039751
X01342898Y00374142
X01359999Y00360844
X0138557Y00342646
X01370076Y00325374
X01378458Y00305816
X01348636Y00266596
X01317498Y00221996
X0131318Y00160782
X01295654Y00100838
X00816864Y00508508
X00795782Y0049403
X00785114Y00524002
X00778256Y00528828
X007874Y00539242
X00793242Y00555498
X00799592Y00559816
X00805411Y0061786
X00826516Y00638556
X00804672Y00661162
X00762254Y00685038
X00741172Y00689356
X00740664Y0067183
X00740918Y0065532
X0074168Y00622046
X00756158Y00607822
X0075184Y00585978
X00719328Y00579882
X0071628Y00600456
X00706356Y00627906
X00707644Y00653542
X00674624Y00670306
X0067437Y00700532
X00689864Y006858
X00704596Y00700786
X00707898Y0072644
X00745744Y0072898
X00741172Y00739648
X00755904Y0073533
X00792988Y00738632
X00794803Y00748321
X0082677Y00740664
X00826008Y0073025
Y0072009
X00824484Y00851662
X00777494Y00820928
X0076835Y00798576
X006477Y00774446
X0064389Y00736346
Y00723985
Y00711623
Y00699262
X00630174Y006985
Y00711115
Y00723731
Y00736346
X00616458
Y00723731
Y00711115
Y006985
X00602742Y00699008
Y00711454
Y007239
Y00736346
X00603758Y00663194
Y00650748
Y00638302
Y00625856
X00617474Y00625348
Y00637963
Y00650579
Y00663194
X0063119
Y00650579
Y00637963
Y00625348
X00644906Y0062611
Y00638471
Y00650833
Y00663194
X00673862Y00627888
X00674116Y00619506
X00679196Y00579628
X00700786Y0053467
X00700532Y00520446
X0075184Y0050927
X0064516Y00535973
X0063752Y00528526
X00587502Y00532892
Y0051816
X00587756Y00503174
Y00548132
X00580748Y00561924
X00573024Y00626364
Y00638725
Y00651087
Y00663448
X00559308
Y00650833
Y00638217
Y00625602
X00545592
Y00638217
Y00650833
Y00663448
X00531876Y00663448
Y00651002
Y00638556
Y0062611
X00504651Y00633419
X00502158Y00661924
X00510032Y00721614
X00520192Y00720852
X00673608Y00743204
X00616712Y00807974
X00612902Y00838708
X00621792
X00498094Y0072898
X00472186Y00738378
X00471932Y00752602
X00479298Y0067945
X00495554Y00676402
X00470916Y00662178
X00439674Y00666496
X00438658Y00652018
X00446786Y00612517
X00078994Y00966216
X00062484Y01067816
X00047498Y01067562
X00164084Y01075436
Y01044702
Y01014222
X00125476Y0101727
X00123952Y00968514
X00108712Y0096647
X00230124Y0092583
X00229108Y00916178
X00229616Y00908304
X0025019Y00933958
X00237998Y01058418
X00194818Y01058926
X00187706Y01058672
X00297688Y01139952
X0038227Y01120648
X00404114Y0110617
X00399542Y0108331
X00390906Y01077722
X00379476Y01086358
X00411988Y0107696
X00428816Y01083818
X00446532Y01080008
X00455422Y0110744
X00431546Y01115822
X00414782Y01047496
X00404241
X003937
X00383159
X00372618
Y01036574
X00383159
X003937Y0103632
Y01025652
X00404241
X00414782
Y01036574
X00404241
X00383159Y01025652
X00372618
X00376682Y00988568
X00364703Y00990133
X00353568Y00989076
X00391864Y00992556
X00409448Y00990854
X00417322Y009906
X0042545Y00990346
X0043307
X00455422Y00979678
X00397764Y00957072
X0049403Y01057148
X00506476Y01056894
X00517906Y01056386
X00576326Y01036066
X0056048Y0092844
X00538508Y00928624
X005334Y00905764
X0055245Y00871474
X0059436Y00895247
X00609092Y00925068
X00623824
X00638556
X00661162Y00889254
X00740664Y00886968
Y00899668
Y00912368
Y00925068
Y00937768
X0081534Y0091694
X00823468Y00911267
Y00922782
Y00899753
Y00888238
X0081534Y00893826
X00818642Y00869696
X00846754Y00990125
X008382Y01055878
X00826262
Y0106807
X008382
Y01080262
X00826262
Y01092454
X008382
X0086995Y0110109
X00879094Y01097026
X00878452Y0108216
X00879094Y01067816
X0088773Y01111758
Y01156462
X00840994Y01164082
X00829056
Y01176274
X00840994
Y01188466
X00829056
Y01200658
X00840994
X00824484Y01239774
X00824738Y01249426
X00812461
X00812292Y01239774
X008001
X00800185Y01249426
X00787908
Y01239774
X00691642Y01215898
Y0120396
X0067945
Y01215898
X00667258
Y0120396
X00655066
Y01215898
X00658368Y01126998
Y0111506
X00646176
Y01126998
X00633984
Y0111506
X00621792
Y01126998
X00685546Y01126744
Y01114806
X00697738
Y01126744
X0070993
Y01114806
X00722122
Y01126744
X00760476Y01145032
X00850392Y01122934
X0051435Y01144016
X00515874Y00946404
X00500634
X00940054Y00997712
X0094488Y0104902
X00959612
X00974598
X00989076
X0100376
X01057656Y01050798
X01087652Y01051076
X01090785Y01066655
X01091184Y01074166
Y01081532
Y010922
X01122934Y01091692
Y01082633
Y01073573
Y01064514
X01132205Y0106426
Y01073404
Y01082548
Y01091692
X01141476
Y01082548
Y01073404
Y0106426
X0114159Y01101034
X01132215
X0112284
X01099729Y01127415
X01100582Y01142492
X01040384Y01129538
X0100656Y01129244
X0100457Y0113919
X0098552Y01139444
Y01130977
Y01122511
Y01114044
X00976799
Y01122511
Y01130977
Y01139444
X00968079Y01139444
Y01131147
Y01122849
Y01114552
X00959358Y01114044
Y01122511
Y01130977
Y01139444
X00933958Y01139444
X00924186Y01141088
X00921632Y01111624
X00915416Y0104902
X00930148
X00953516Y01162558
X00970146Y01159002
X00994664Y01165352
X01032002Y01168908
X00991362Y01219454
X00902716Y01191514
X01057656Y0109728
Y0108204
X01059688Y01006094
X01051052Y01006602
X01178306Y01063498
X011684Y0107696
X0117475Y01088898
X01186631Y01087271
X01208024Y0111125
X01208786Y01063752
X01239266Y01068832
X01241044Y010541
X01240282Y0108458
X0127381Y01084072
X0127127Y01077722
X0127508Y01069086
X01273048Y010541
X01271909Y01095371
X01288034Y01120648
X01290574Y01150366
X01338326Y01150874
X01322362Y01102026
X01312987
X01312977Y01092684
Y0108354
Y01074396
Y01065252
X01322248
Y01074396
Y0108354
Y01092684
X01303706Y01092684
Y01083625
Y01074565
Y01065506
X01303612Y01102026
X01360293Y01095117
X01352042Y01077468
X01368691Y01076706
X01359408Y01053846
X01391412
X01391158Y01099566
X00691642Y01283208
Y01295146
X0067945
Y01283208
X00667258
Y01295146
X00655066
Y01283208
X00530352Y01298448
X00511556
T02
X00255016Y00045466
Y00058166
X00267716
Y00045466
X00280416
Y00058166
X00293116
Y00045466
X00305816
Y00058166
T03
X01025398Y00022098
X01050798
X00690626Y00112776
X00665226
T04
X001185Y003292
X001535
X00845058Y00954024
X00880058
X00945744
X00980744
X01046429
X01081429
X01147115
X01182115
X012478
X012828
X01348486
X01383486
X01266138Y0127127
X01231138
X01196138
T05
X002682Y003174
X002932
X003182
X003432
X003682
X000931Y011965
X000681
X001181
X001431
X001681
X001931
X002675
X002925
X003175
X003425
X00906726Y01282638
X00931726
X01037536
X01062536
X01087536
T06
X00130048Y00043942
X0018415Y00042672
X00557784Y00448564
X00598932
X00767588Y00393954
X00954532Y00395732
X01305814Y00336804
X01306068Y00301752
X00651256Y00585978
X00554482Y00705358
X00727456Y008001
X00504444Y00880618
M30
